v 63.58251953 -58.21735382 -121.6212845
vn 0.4286363125 -0.7439475656 -0.5126528144
v -86.41751862 -58.21735382 -121.6213455
vn -0.2725276649 -0.6377848983 -0.7203881741
v -161.4175415 -58.21735382 8.282496452
vn -0.8221607208 -0.5497233868 -0.147837624
v -86.41756439 -58.21735382 138.1863098
vn -0.5420897603 -0.5776608586 0.61028409
v 63.58247375 -58.21735382 138.1863403
vn 0.2170956284 -0.6868140101 0.6936540604
v 138.5824738 -58.21733093 8.282496452
vn 0.6304157376 -0.7647476196 0.1331804842
v 72.11477661 39.30691528 -121.6212845
vn 0.457735002 -0.09325092286 -0.8841848969
v -75.60640717 65.35414124 -121.6213455
vn -0.5213446617 0.07527786493 -0.8500193954
v -149.4669952 78.37774658 8.282496452
vn -0.9848077297 0.1736482233 -1.238286131e-007
v -75.60643005 65.35414124 138.1863098
vn -0.5156504512 0.1075723916 0.8500192761
v 72.11473083 39.30691528 138.1863403
vn 0.462023735 -0.06892734021 0.8841849566
v 145.9753265 26.28326797 8.282496452
vn 0.9848077297 -0.1736482382 1.68397861e-007
v 97.45232391 133.8679352 -121.6212845
vn 0.4345881641 -0.1713191271 -0.8841848969
v -43.50157547 185.1709442 -121.6213455
vn -0.5003523827 0.1646647155 -0.850019455
v -113.9785614 210.822464 8.282496452
vn -0.9396926165 0.3420201242 -1.315412277e-007
v -43.50159836 185.1709595 138.1863098
vn -0.4891368151 0.1954798847 0.8500192761
v 97.45228577 133.8679352 138.1863403
vn 0.4430354834 -0.1481097639 0.8841849566
v 167.929245 108.2164001 8.282496452
vn 0.9396926165 -0.342020154 1.991649015e-007
v 138.8252869 222.592514 -121.6212845
vn 0.3982365429 -0.2441818267 -0.8841848969
v 8.921456337 297.5925293 -121.6213455
vn -0.4641571343 0.2490483671 -0.850019455
v -56.03045654 335.0925598 8.282496452
vn -0.8660253882 0.5 -1.383560999e-007
v 8.921433449 297.5925598 138.1863098
vn -0.4477609694 0.2774477899 0.8500193357
v 138.8252563 222.5925598 138.1863403
vn 0.4105857909 -0.2227919251 0.8841849566
v 203.7771759 185.0925293 8.282496452
vn 0.8660253882 -0.5000000596 2.17166459e-007
v 194.9765778 302.7848816 -121.6212845
vn 0.3497846723 -0.3096251488 -0.8841848969
v 80.06990051 399.2030334 -121.6213455
vn -0.4138587713 0.3258648217 -0.850019455
v 22.616539 447.4121094 8.282496452
vn -0.7660443783 0.6427876949 -8.644306604e-008
v 80.06987 399.203064 138.1863098
vn -0.3927801847 0.3509856761 0.8500192761
v 194.9765472 302.7849121 138.1863403
vn 0.3656606674 -0.2907047272 0.8841849566
v 252.4299011 254.5758209 8.282496452
vn 0.7660444975 -0.6427875757 9.634659648e-008
v 264.2000427 372.0083313 -121.6212845
vn 0.2907048166 -0.3656608462 -0.8841848373
v 167.7818909 486.9150085 -121.6213455
vn -0.3509854674 0.3927800357 -0.850019455
v 119.5728149 544.3683472 8.282496452
vn -0.6427875757 0.7660444975 -1.506238902e-007
v 167.7818756 486.9150391 138.1863098
vn -0.3258650005 0.4138590097 0.8500192761
v 264.2000122 372.0083618 138.1863403
vn 0.3096250594 -0.3497845531 0.8841850162
v 312.4090881 314.5550232 8.282496452
vn 0.6427875757 -0.7660444975 1.535310048e-007
v 344.392395 428.1596069 -121.6212845
vn 0.2227919996 -0.4105859101 -0.8841848969
v 269.392395 558.0634766 -121.6213455
vn -0.2774477303 0.4477607906 -0.850019455
v 231.892395 623.0153809 8.282496452
vn -0.5000000596 0.8660253882 -1.221223016e-007
v 269.3923645 558.0634766 138.1863098
vn -0.2490485013 0.4641573131 0.8500193357
v 344.3923645 428.1596375 138.1863403
vn 0.2441817969 -0.3982363939 0.8841849566
v 381.8923645 363.2077332 8.282496452
vn 0.5 -0.8660253882 2.418192366e-007
v 433.1170044 469.5325623 -121.6212845
vn 0.1481098682 -0.4430355728 -0.8841848969
v 381.8139954 610.4865112 -121.6213455
vn -0.1954797804 0.4891365469 -0.850019455
v 356.1624756 680.963501 8.282496452
vn -0.3420200646 0.9396926761 -4.626079431e-008
v 381.8139648 610.4865112 138.1863098
vn -0.1646647453 0.5003525615 0.8500193357
v 433.1170044 469.5326538 138.1863403
vn 0.1713190228 -0.4345879853 0.8841849566
v 458.7684937 399.0556641 8.282496452
vn 0.3420200646 -0.9396926761 2.341021741e-007
v 527.6780396 494.8701477 -121.6212845
vn 0.06892738491 -0.4620240033 -0.8841848373
v 501.6307983 642.5913086 -121.6213455
vn -0.1075722501 0.5156502724 -0.850019455
v 488.6071777 716.4519043 8.282496452
vn -0.1736480296 0.9848077893 -5.877794607e-008
v 501.6308289 642.5913696 138.1863098
vn -0.07527788728 0.5213449001 0.8500192761
v 527.6780396 494.8701477 138.1863403
vn 0.09325088561 -0.457734853 0.8841849566
v 540.7015991 421.0095825 8.282496452
vn 0.1736482978 -0.9848077297 2.993762749e-008
v 625.2022705 503.4023743 -121.6212845
vn 0.6868140101 -0.217095837 -0.6936540008
v 625.2022705 653.4024048 -121.6213455
vn 0.5776609182 0.5420896411 -0.61028409
v 625.2022705 728.4024048 8.282496452
vn 0.549723506 0.8221607208 0.1478372365
v 625.2022705 653.4024658 138.1863098
vn 0.6377849579 0.2725279033 0.7203879952
v 625.2022705 503.4024353 138.1863403
vn 0.7439476848 -0.4286362529 0.5126527548
v 625.2022705 428.4024353 8.282496452
vn 0.7647476196 -0.6304158568 -0.133180216
v -11.41754055 -58.21735382 8.282496452
vn 5.510117518e-008 -1 -7.341378616e-009
v 625.2022705 578.4024658 8.282496452
vn 1 0 0
# mm_gid 0
g mmGroup0
f 1//1 2//2 7//7 
f 7//7 2//2 8//8 
f 2//2 3//3 8//8 
f 8//8 3//3 9//9 
f 3//3 4//4 9//9 
f 9//9 4//4 10//10 
f 4//4 5//5 10//10 
f 10//10 5//5 11//11 
f 5//5 6//6 11//11 
f 11//11 6//6 12//12 
f 6//6 1//1 12//12 
f 12//12 1//1 7//7 
f 7//7 8//8 13//13 
f 13//13 8//8 14//14 
f 8//8 9//9 14//14 
f 14//14 9//9 15//15 
f 9//9 10//10 15//15 
f 15//15 10//10 16//16 
f 10//10 11//11 16//16 
f 16//16 11//11 17//17 
f 11//11 12//12 17//17 
f 17//17 12//12 18//18 
f 12//12 7//7 18//18 
f 18//18 7//7 13//13 
f 13//13 14//14 19//19 
f 19//19 14//14 20//20 
f 14//14 15//15 20//20 
f 20//20 15//15 21//21 
f 15//15 16//16 21//21 
f 21//21 16//16 22//22 
f 16//16 17//17 22//22 
f 22//22 17//17 23//23 
f 17//17 18//18 23//23 
f 23//23 18//18 24//24 
f 18//18 13//13 24//24 
f 24//24 13//13 19//19 
f 19//19 20//20 25//25 
f 25//25 20//20 26//26 
f 20//20 21//21 26//26 
f 26//26 21//21 27//27 
f 21//21 22//22 27//27 
f 27//27 22//22 28//28 
f 22//22 23//23 28//28 
f 28//28 23//23 29//29 
f 23//23 24//24 29//29 
f 29//29 24//24 30//30 
f 24//24 19//19 30//30 
f 30//30 19//19 25//25 
f 25//25 26//26 31//31 
f 31//31 26//26 32//32 
f 26//26 27//27 32//32 
f 32//32 27//27 33//33 
f 27//27 28//28 33//33 
f 33//33 28//28 34//34 
f 28//28 29//29 34//34 
f 34//34 29//29 35//35 
f 29//29 30//30 35//35 
f 35//35 30//30 36//36 
f 30//30 25//25 36//36 
f 36//36 25//25 31//31 
f 31//31 32//32 37//37 
f 37//37 32//32 38//38 
f 32//32 33//33 38//38 
f 38//38 33//33 39//39 
f 33//33 34//34 39//39 
f 39//39 34//34 40//40 
f 34//34 35//35 40//40 
f 40//40 35//35 41//41 
f 35//35 36//36 41//41 
f 41//41 36//36 42//42 
f 36//36 31//31 42//42 
f 42//42 31//31 37//37 
f 37//37 38//38 43//43 
f 43//43 38//38 44//44 
f 38//38 39//39 44//44 
f 44//44 39//39 45//45 
f 39//39 40//40 45//45 
f 45//45 40//40 46//46 
f 40//40 41//41 46//46 
f 46//46 41//41 47//47 
f 41//41 42//42 47//47 
f 47//47 42//42 48//48 
f 42//42 37//37 48//48 
f 48//48 37//37 43//43 
f 43//43 44//44 49//49 
f 49//49 44//44 50//50 
f 44//44 45//45 50//50 
f 50//50 45//45 51//51 
f 45//45 46//46 51//51 
f 51//51 46//46 52//52 
f 46//46 47//47 52//52 
f 52//52 47//47 53//53 
f 47//47 48//48 53//53 
f 53//53 48//48 54//54 
f 48//48 43//43 54//54 
f 54//54 43//43 49//49 
f 49//49 50//50 55//55 
f 55//55 50//50 56//56 
f 50//50 51//51 56//56 
f 56//56 51//51 57//57 
f 51//51 52//52 57//57 
f 57//57 52//52 58//58 
f 52//52 53//53 58//58 
f 58//58 53//53 59//59 
f 53//53 54//54 59//59 
f 59//59 54//54 60//60 
f 54//54 49//49 60//60 
f 60//60 49//49 55//55 
f 2//2 1//1 61//61 
f 3//3 2//2 61//61 
f 4//4 3//3 61//61 
f 5//5 4//4 61//61 
f 6//6 5//5 61//61 
f 1//1 6//6 61//61 
f 55//55 56//56 62//62 
f 56//56 57//57 62//62 
f 57//57 58//58 62//62 
f 58//58 59//59 62//62 
f 59//59 60//60 62//62 
f 60//60 55//55 62//62 
