v 2.127500057 -14.30099964 3.05802989
vn 0.5827337503 -0.05460232124 0.8108267188
v 2.127500057 -14.30099964 -3.05802989
vn 0.9439138174 -0.034877114 -0.3283448517
v 2.127500057 14.30099964 -3.05802989
vn 0.5832684636 0.03392610326 -0.8115706444
v 2.127500057 14.30099964 3.05802989
vn 0.9438488483 0.03679446131 0.3283222616
v -2.127500057 -14.30099964 3.05802989
vn -0.944132328 -0.02745796554 0.3284208477
v -2.127500057 14.30099964 3.05802989
vn -0.5830624104 0.04308769479 0.811283946
v -1.237499952 -14.30099964 1.94599998
vn -0.7711657882 -0.4059699178 0.4903995991
v 1.237499952 -14.30099964 1.94599998
vn 0.936193049 -0.186906442 0.2976718545
v 1.237499952 -14.30099964 -1.94599998
vn 0.5609060526 -0.4200830758 -0.7133825421
v -1.237499952 -14.30099964 -1.94599998
vn -0.7256820798 -0.5103192925 -0.4614756107
v -2.127500057 -14.30099964 -3.05802989
vn -0.5830011964 -0.04545477033 -0.811198771
v -2.127500057 14.30099964 -3.05802989
vn -0.9435651302 0.04420616105 -0.3282235563
v -1.237499952 14.30099964 1.94599998
vn -0.8046168089 0.3013035059 0.5116717815
v -1.237499952 14.30099964 -1.94599998
vn -0.7996605635 0.3192967772 -0.5085200071
v 1.237499952 14.30099964 -1.94599998
vn 0.518050015 0.5454410315 -0.6588765383
v 1.237499952 14.30099964 1.94599998
vn 0.9036072493 0.3177205622 0.2873108983
v 1.237499952 -18.3010006 1.94599998
vn 0.4909409583 -0.6075392365 0.6243981719
v 1.237499952 -18.3010006 -1.94599998
vn 0.9140862226 -0.2827953398 -0.2906427681
v -1.237499952 -18.3010006 1.94599998
vn -0.7480108738 -0.4628316164 0.475674957
v -1.237499952 -18.3010006 -1.94599998
vn -0.7480108738 -0.4628316164 -0.475674957
v 1.237499952 18.3010006 -1.94599998
vn 0.8209002614 0.5079318881 -0.2610133588
v 1.237499952 18.3010006 1.94599998
vn 0.5773091316 0.3572099209 0.7342446446
v -1.237499952 18.3010006 -1.94599998
vn -0.8164675236 0.2525945604 -0.5192078352
v -1.237499952 18.3010006 1.94599998
vn -0.5836289525 0.7222406268 0.3711411953
# mm_gid 0
g mmGroup0
f 1//1 2//2 4//4 
f 4//4 2//2 3//3 
f 5//5 1//1 6//6 
f 6//6 1//1 4//4 
f 2//2 1//1 9//9 
f 9//9 1//1 8//8 
f 5//5 7//7 1//1 
f 7//7 8//8 1//1 
f 5//5 11//11 7//7 
f 7//7 11//11 10//10 
f 11//11 2//2 10//10 
f 9//9 10//10 2//2 
f 2//2 11//11 3//3 
f 3//3 11//11 12//12 
f 6//6 13//13 12//12 
f 13//13 14//14 12//12 
f 3//3 12//12 15//15 
f 12//12 14//14 15//15 
f 3//3 15//15 4//4 
f 15//15 16//16 4//4 
f 4//4 16//16 6//6 
f 16//16 13//13 6//6 
f 6//6 12//12 5//5 
f 5//5 12//12 11//11 
f 17//17 18//18 8//8 
f 8//8 18//18 9//9 
f 19//19 17//17 7//7 
f 7//7 17//17 8//8 
f 19//19 20//20 17//17 
f 17//17 20//20 18//18 
f 18//18 20//20 9//9 
f 9//9 20//20 10//10 
f 10//10 20//20 7//7 
f 7//7 20//20 19//19 
f 15//15 21//21 16//16 
f 16//16 21//21 22//22 
f 14//14 23//23 15//15 
f 15//15 23//23 21//21 
f 22//22 21//21 24//24 
f 24//24 21//21 23//23 
f 16//16 22//22 13//13 
f 13//13 22//22 24//24 
f 24//24 23//23 13//13 
f 13//13 23//23 14//14 
