v 1.237499952 -33.59999847 1.94599998
vn 0.5271589756 -0.5220962763 0.6704617143
v 1.237499952 -33.59999847 -1.94599998
vn 0.9275161624 -0.2296521366 -0.2949129641
v 1.237499952 -28.60199928 -1.94599998
vn 0.5795914531 -0.3474009335 -0.7371473908
v 1.237499952 -28.60199928 1.94599998
vn 0.9421275258 -0.1505332589 0.2995587885
v -1.237499952 -33.59999847 1.94599998
vn -0.7785897255 -0.3855561912 0.4951206446
v -1.237499952 -28.60199928 1.94599998
vn -0.7950786352 -0.3349809647 0.5056062937
v -1.237499952 -33.59999847 -1.94599998
vn -0.7785897255 -0.3855561912 -0.4951206446
v -1.237499952 -28.60199928 -1.94599998
vn -0.7622390389 -0.4289934635 -0.4847228825
v 1.237499952 28.60199928 -1.94599998
vn 0.5481932759 0.4619273841 -0.6972138882
v 1.237499952 33.59999847 -1.94599998
vn 0.8618385196 0.4267808199 -0.2740300894
v 1.237499952 33.59999847 1.94599998
vn 0.5910234451 0.292673707 0.7516870499
v 1.237499952 28.60199928 1.94599998
vn 0.9204629064 0.2590214908 0.2926703095
v -1.237499952 28.60199928 -1.94599998
vn -0.8147297502 0.2603552639 -0.5181028247
v -1.237499952 33.59999847 -1.94599998
vn -0.8259952664 0.2045156658 -0.5252667665
v -1.237499952 33.59999847 1.94599998
vn -0.6474860907 0.6412677765 0.4117492139
v -1.237499952 28.60199928 1.94599998
vn -0.8180767298 0.2451732308 0.5202312469
v 2.127500057 -28.60199928 3.05802989
vn 0.5833863616 -0.02733173594 0.8117347956
v 2.127500057 -28.60199928 -3.05802989
vn 0.9443446398 -0.01744651794 -0.3284947276
v 2.127500057 28.60199928 -3.05802989
vn 0.5835203528 0.01697037928 -0.8119211793
v 2.127500057 28.60199928 3.05802989
vn 0.9443284273 0.01840657927 0.3284890652
v -2.127500057 -28.60199928 3.05802989
vn -0.9443993568 -0.01373286638 0.3285137415
v -2.127500057 28.60199928 3.05802989
vn -0.5834687948 0.02155886218 0.8118493557
v -2.127500057 -28.60199928 -3.05802989
vn -0.5834534168 -0.02274501324 -0.8118280768
v -2.127500057 28.60199928 -3.05802989
vn -0.944257319 0.02211929671 -0.3284643292
# mm_gid 0
g mmGroup0
f 1//1 2//2 4//4 
f 4//4 2//2 3//3 
f 5//5 1//1 6//6 
f 6//6 1//1 4//4 
f 5//5 7//7 1//1 
f 1//1 7//7 2//2 
f 2//2 7//7 3//3 
f 3//3 7//7 8//8 
f 8//8 7//7 6//6 
f 6//6 7//7 5//5 
f 9//9 10//10 12//12 
f 12//12 10//10 11//11 
f 13//13 14//14 9//9 
f 9//9 14//14 10//10 
f 11//11 10//10 15//15 
f 15//15 10//10 14//14 
f 12//12 11//11 16//16 
f 16//16 11//11 15//15 
f 15//15 14//14 16//16 
f 16//16 14//14 13//13 
f 17//17 18//18 20//20 
f 20//20 18//18 19//19 
f 21//21 17//17 22//22 
f 22//22 17//17 20//20 
f 21//21 23//23 6//6 
f 6//6 23//23 8//8 
f 23//23 18//18 8//8 
f 3//3 8//8 18//18 
f 18//18 17//17 3//3 
f 3//3 17//17 4//4 
f 21//21 6//6 17//17 
f 6//6 4//4 17//17 
f 18//18 23//23 19//19 
f 19//19 23//23 24//24 
f 19//19 9//9 20//20 
f 9//9 12//12 20//20 
f 20//20 12//12 22//22 
f 12//12 16//16 22//22 
f 22//22 16//16 24//24 
f 16//16 13//13 24//24 
f 19//19 24//24 9//9 
f 24//24 13//13 9//9 
f 22//22 24//24 21//21 
f 21//21 24//24 23//23 
