v 1.237499952 -55.75 1.94599998
vn 0.4909408987 -0.6075393558 0.6243981123
v 1.237499952 -55.75 -1.94599998
vn 0.914086163 -0.2827953994 -0.2906427681
v 1.237499952 -51.75 -1.94599998
vn 0.560905993 -0.4200831652 -0.7133824825
v 1.237499952 -51.75 1.94599998
vn 0.936193049 -0.1869064867 0.2976718545
v -1.237499952 -55.75 1.94599998
vn -0.7480108142 -0.462831676 0.4756749272
v -1.237499952 -51.75 1.94599998
vn -0.7711657286 -0.4059700072 0.4903995693
v -1.237499952 -55.75 -1.94599998
vn -0.7480108142 -0.462831676 -0.4756749272
v -1.237499952 -51.75 -1.94599998
vn -0.7256820202 -0.5103193521 -0.4614756107
v 1.237499952 51.75 -1.94599998
vn 0.5180499554 0.5454410911 -0.6588764787
v 1.237499952 55.75 -1.94599998
vn 0.8209002018 0.5079320073 -0.2610133588
v 1.237499952 55.75 1.94599998
vn 0.5773091316 0.3572100103 0.7342446446
v 1.237499952 51.75 1.94599998
vn 0.9036072493 0.3177206218 0.2873108685
v -1.237499952 51.75 -1.94599998
vn -0.7996605635 0.3192968369 -0.5085199475
v -1.237499952 55.75 -1.94599998
vn -0.8164675236 0.25259462 -0.5192078352
v -1.237499952 55.75 1.94599998
vn -0.5836288333 0.7222406864 0.3711411655
v -1.237499952 51.75 1.94599998
vn -0.8046168089 0.3013035655 0.5116717815
v 2.127500057 -51.75 3.05802989
vn 0.5835377574 -0.01511005219 0.8119454384
v 2.127500057 -51.75 -3.05802989
vn 0.9444444776 -0.00964363385 -0.3285294473
v 2.127500057 51.75 -3.05802989
vn 0.5835787058 0.00938039273 -0.8120024204
v 2.127500057 51.75 3.05802989
vn 0.9444395304 0.01017443277 0.3285277188
v -2.127500057 -51.75 3.05802989
vn -0.9444612265 -0.007590592373 0.3285352588
v -2.127500057 51.75 3.05802989
vn -0.5835629702 0.01191741228 0.8119804263
v -2.127500057 -51.75 -3.05802989
vn -0.5835582614 -0.0125733288 -0.8119739294
v -2.127500057 51.75 -3.05802989
vn -0.9444178343 0.01222731639 -0.328520149
# mm_gid 0
g mmGroup0
f 1//1 2//2 4//4 
f 4//4 2//2 3//3 
f 5//5 1//1 6//6 
f 6//6 1//1 4//4 
f 5//5 7//7 1//1 
f 1//1 7//7 2//2 
f 2//2 7//7 3//3 
f 3//3 7//7 8//8 
f 8//8 7//7 6//6 
f 6//6 7//7 5//5 
f 9//9 10//10 12//12 
f 12//12 10//10 11//11 
f 13//13 14//14 9//9 
f 9//9 14//14 10//10 
f 11//11 10//10 15//15 
f 15//15 10//10 14//14 
f 12//12 11//11 16//16 
f 16//16 11//11 15//15 
f 15//15 14//14 16//16 
f 16//16 14//14 13//13 
f 17//17 18//18 20//20 
f 20//20 18//18 19//19 
f 21//21 17//17 22//22 
f 22//22 17//17 20//20 
f 21//21 23//23 6//6 
f 6//6 23//23 8//8 
f 23//23 18//18 8//8 
f 3//3 8//8 18//18 
f 18//18 17//17 3//3 
f 3//3 17//17 4//4 
f 21//21 6//6 17//17 
f 6//6 4//4 17//17 
f 18//18 23//23 19//19 
f 19//19 23//23 24//24 
f 19//19 9//9 20//20 
f 9//9 12//12 20//20 
f 20//20 12//12 22//22 
f 12//12 16//16 22//22 
f 22//22 16//16 24//24 
f 16//16 13//13 24//24 
f 19//19 24//24 9//9 
f 24//24 13//13 9//9 
f 22//22 24//24 21//21 
f 21//21 24//24 23//23 
