v 0.988460958 48.6590004 3.043267965
vn 0.5178440213 0.01781116053 0.855289638
v 0.05403999984 48.6590004 1.756933093
vn -0.2516749501 0.5805057883 0.7743853927
v -2.588459969 48.6590004 1.880767941
vn -0.6533942819 0.02265747264 0.7566786408
v 0.988460958 -1 3.043267965
vn -0.1191476062 -0.004051355179 0.9928683043
v 0.6316270232 48.6590004 1.944648147
vn 0.2720920146 0.2779271901 0.9212613106
v -1.117802978 48.6590004 1.37608397
vn -0.3075477183 0.09964898229 0.946300447
v -2.588459969 -1 1.880767941
vn -0.9810874462 -0.004049948882 0.1935227811
v -1.599732995 -1 2.202105045
vn -0.6414166093 -0.007928589359 0.767151773
v -1.599732995 1 2.202105045
vn -0.6496088505 0.004763041157 0.7602537274
v -0.988460958 1 2.400768042
vn -0.309060216 0.01282004174 0.9509560466
v -0.610879004 1 2.523482084
vn -0.3090607822 0.01282001939 0.9509558678
v 0 1 2.722018003
vn -0.2942345738 0.005001481157 0.9557201266
v 0 -1 2.722018003
vn 0.2942345738 -0.005001481157 0.9557201266
v 1.599732995 -1 2.202105045
vn 0.6496088505 -0.004763041157 0.7602537274
v 1.599732995 1 2.202105045
vn 0.6414166093 0.007928589359 0.767151773
v 2.588459969 1 0.8415290117
vn 0.8145030737 0.008023522794 0.580103755
v 2.588459969 -1 0.8415290117
vn 0.9999220967 -0.00803673733 0.009550160728
v 3.199999094 -1 0
vn 0.9074566364 -0.004055596888 0.4201261997
v 0.6316270232 52.65000153 1.944648147
vn 0.1413530111 0.6462754011 0.7498982549
v 0.9631630182 48.6590004 1.48842597
vn 0.8080573678 0.04715289176 0.587213695
v -1.654026151 48.6590004 1.201810956
vn -0.931414783 0.2611964345 0.2534618676
v -2.588459969 48.6590004 -1.880767941
vn -0.9217200875 0.01657399721 -0.3875014782
v -2.588459969 -1 0.8415290117
vn -0.8145030737 -0.008023522794 0.580103755
v 0.610879004 -1 2.523482084
vn 0.3090607822 -0.01282001939 0.9509558678
v 0.988460958 -1 2.400768042
vn 0.309060216 -0.01282004174 0.9509560466
v 2.588459969 -1 -0.8415290117
vn 0.969838202 -0.00793718826 -0.243620351
v 3.199999094 48.6590004 0
vn 0.9733396769 0.02266117185 -0.2282463014
v 0.988460958 48.6590004 1.453613043
vn 0.6587042212 0.5804955959 0.4786790013
v -1.654026151 52.65000153 1.201810956
vn -0.8543027043 0.227886498 0.4671558738
v -1.654026151 48.6590004 -0.5944139957
vn -0.8142848015 0.5804655552 0
v -2.588459969 -1 -1.880767941
vn -0.4872292578 -0.00405010907 -0.87326473
v -2.588459969 -1 -0.8415290117
vn -0.9724174738 -0.004761389457 -0.2331985235
v -2.588459969 1 -0.8415290117
vn -0.969838202 0.00793718826 -0.243620351
v -2.588459969 1 0.8415290117
vn -0.9999220967 0.00803673733 0.009550160728
v 2.588459969 1 -0.8415290117
vn 0.9724174738 0.004761389457 -0.2331985235
v 2.210926056 1 -1.361049056
vn 0.8088909984 0.01281777862 -0.5878189206
v 1.599732995 1 -2.202105045
vn 0.8015042543 0.006519029383 -0.597953558
v 1.599732995 -1 -2.202105045
vn 0.3238487244 -0.00500246603 -0.9460956454
v 0.988460958 -1 -3.043267965
vn 0.6799515486 -0.004050503485 -0.7332458496
v 2.044799089 52.65000153 0
vn 0.9657190442 0.2279673815 0.1241674423
v -1.654026151 52.65000153 -1.201810956
vn -0.620331645 0.5224803686 -0.5849810839
v -1.654026151 48.6590004 -0.6379110217
vn -0.998886466 0.04717827216 0
v 0.988460958 48.6590004 -3.043267965
vn 0.08374672383 0.02147326432 -0.9962556958
v -2.210926056 -1 -1.361049056
vn -0.8088909984 -0.01281777862 -0.5878189206
v 0.988460958 -1 -2.400768042
vn 0.3090605438 -0.01282000355 -0.950955987
v 2.044799089 48.6590004 0
vn 0.9024733901 0.2612220049 0.342497915
v 0.6316270232 52.65000153 -1.944648147
vn 0.364708662 0.5225099325 -0.7706951499
v -1.654026151 48.6590004 -1.201810956
vn -0.4467197657 0.5693981647 -0.6900921464
v 0 -1 -2.722018003
vn -0.00641518645 -0.006341161672 -0.99995929
v 0 1 -2.722018003
vn 0.00641518645 0.006341161672 -0.99995929
v -0.988460958 1 -2.400768042
vn -0.3090605438 0.01282000355 -0.950955987
v -1.599732995 1 -2.202105045
vn -0.3238487244 0.00500246603 -0.9460956454
v -1.599732995 -1 -2.202105045
vn -0.8015042543 -0.006519029383 -0.597953558
v 0.988460958 48.6590004 -1.453613043
vn 0.6587042212 0.5804956555 -0.4786789417
v 1.713263035 48.6590004 -0.4562219679
vn 0.8049296737 0.09966100007 -0.5849409103
v 0.09540300071 48.6590004 -1.770375133
vn -0.3069891036 0.1162856817 -0.9445821047
v 0.6316270232 48.6590004 -1.944648147
vn 0.3211180866 0.2779276967 -0.9053393602
v -0.988460958 -48.6590004 3.043267965
vn -0.5178440213 -0.01781116053 0.855289638
v -0.05403999984 -48.6590004 1.756933093
vn 0.2516749501 -0.5805057883 0.7743853927
v 2.588459969 -48.6590004 1.880767941
vn 0.6533942819 -0.02265747264 0.7566786408
v -0.988460958 1 3.043267965
vn 0.1191476062 0.004051355179 0.9928683043
v -0.6316270232 -48.6590004 1.944648147
vn -0.2720920146 -0.2779271901 0.9212613106
v 1.117802978 -48.6590004 1.37608397
vn 0.3075477183 -0.09964898229 0.946300447
v 2.588459969 1 1.880767941
vn 0.9810874462 0.004049948882 0.1935227811
v -3.199999094 1 0
vn -0.9074566364 0.004055596888 0.4201261997
v -0.6316270232 -52.65000153 1.944648147
vn -0.1413530111 -0.6462754011 0.7498982549
v -0.9631630182 -48.6590004 1.48842597
vn -0.8080573678 -0.04715289176 0.587213695
v 1.654026151 -48.6590004 1.201810956
vn 0.931414783 -0.2611964345 0.2534618676
v 2.588459969 -48.6590004 -1.880767941
vn 0.9217200875 -0.01657399721 -0.3875014782
v -3.199999094 -48.6590004 0
vn -0.9733396769 -0.02266117185 -0.2282463014
v -0.988460958 -48.6590004 1.453613043
vn -0.6587042212 -0.5804955959 0.4786790013
v 1.654026151 -52.65000153 1.201810956
vn 0.8543027043 -0.227886498 0.4671558738
v 1.654026151 -48.6590004 -0.5944139957
vn 0.8142848015 -0.5804655552 0
v 2.588459969 1 -1.880767941
vn 0.4872292578 0.00405010907 -0.87326473
v -0.988460958 1 -3.043267965
vn -0.6799515486 0.004050503485 -0.7332458496
v -2.044799089 -52.65000153 0
vn -0.9657190442 -0.2279673815 0.1241674423
v 1.654026151 -52.65000153 -1.201810956
vn 0.620331645 -0.5224803686 -0.5849810839
v 1.654026151 -48.6590004 -0.6379110217
vn 0.998886466 -0.04717827216 0
v -0.988460958 -48.6590004 -3.043267965
vn -0.08374672383 -0.02147326432 -0.9962556958
v -2.044799089 -48.6590004 0
vn -0.9024733901 -0.2612220049 0.342497915
v -0.6316270232 -52.65000153 -1.944648147
vn -0.364708662 -0.5225099325 -0.7706951499
v 1.654026151 -48.6590004 -1.201810956
vn 0.4467197657 -0.5693981647 -0.6900921464
v -0.988460958 -48.6590004 -1.453613043
vn -0.6587042212 -0.5804956555 -0.4786789417
v -1.713263035 -48.6590004 -0.4562219679
vn -0.8049296737 -0.09966100007 -0.5849409103
v -0.09540300071 -48.6590004 -1.770375133
vn 0.3069891036 -0.1162856817 -0.9445821047
v -0.6316270232 -48.6590004 -1.944648147
vn -0.3211180866 -0.2779276967 -0.9053393602
# mm_gid 0
g mmGroup0
f 1//1 2//2 3//3 
f 3//3 4//4 1//1 
f 2//2 1//1 5//5 
f 2//2 6//6 3//3 
f 7//7 8//8 3//3 
f 8//8 9//9 3//3 
f 13//13 4//4 12//12 
f 4//4 3//3 12//12 
f 12//12 3//3 11//11 
f 11//11 3//3 10//10 
f 9//9 10//10 3//3 
f 4//4 14//14 1//1 
f 14//14 15//15 1//1 
f 17//17 18//18 16//16 
f 18//18 1//1 16//16 
f 15//15 16//16 1//1 
f 2//2 5//5 19//19 
f 1//1 20//20 5//5 
f 6//6 2//2 19//19 
f 6//6 21//21 3//3 
f 22//22 7//7 3//3 
f 7//7 23//23 8//8 
f 24//24 4//4 13//13 
f 4//4 25//25 14//14 
f 26//26 18//18 17//17 
f 1//1 18//18 27//27 
f 20//20 19//19 5//5 
f 28//28 20//20 1//1 
f 29//29 6//6 19//19 
f 6//6 29//29 21//21 
f 3//3 21//21 30//30 
f 22//22 3//3 30//30 
f 31//31 32//32 22//22 
f 32//32 33//33 22//22 
f 23//23 7//7 34//34 
f 7//7 22//22 34//34 
f 33//33 34//34 22//22 
f 25//25 4//4 24//24 
f 18//18 26//26 27//27 
f 26//26 35//35 27//27 
f 38//38 39//39 37//37 
f 39//39 27//27 37//37 
f 37//37 27//27 36//36 
f 35//35 36//36 27//27 
f 1//1 27//27 28//28 
f 19//19 20//20 40//40 
f 20//20 28//28 40//40 
f 29//29 19//19 41//41 
f 30//30 21//21 29//29 
f 30//30 42//42 22//22 
f 43//43 31//31 22//22 
f 32//32 31//31 44//44 
f 45//45 39//39 38//38 
f 27//27 39//39 43//43 
f 28//28 27//27 46//46 
f 19//19 40//40 47//47 
f 28//28 46//46 40//40 
f 41//41 42//42 29//29 
f 41//41 19//19 47//47 
f 42//42 30//30 29//29 
f 42//42 48//48 22//22 
f 22//22 48//48 43//43 
f 39//39 49//49 43//43 
f 49//49 50//50 43//43 
f 53//53 31//31 52//52 
f 31//31 43//43 52//52 
f 52//52 43//43 51//51 
f 50//50 51//51 43//43 
f 31//31 53//53 44//44 
f 49//49 39//39 45//45 
f 43//43 54//54 27//27 
f 27//27 55//55 46//46 
f 40//40 55//55 47//47 
f 55//55 40//40 46//46 
f 42//42 41//41 48//48 
f 56//56 41//41 47//47 
f 48//48 56//56 43//43 
f 54//54 43//43 57//57 
f 54//54 55//55 27//27 
f 55//55 54//54 47//47 
f 48//48 41//41 56//56 
f 56//56 47//47 57//57 
f 56//56 57//57 43//43 
f 54//54 57//57 47//47 
f 58//58 59//59 60//60 
f 60//60 61//61 58//58 
f 59//59 58//58 62//62 
f 59//59 63//63 60//60 
f 64//64 15//15 60//60 
f 15//15 14//14 60//60 
f 12//12 61//61 13//13 
f 61//61 60//60 13//13 
f 13//13 60//60 24//24 
f 24//24 60//60 25//25 
f 14//14 25//25 60//60 
f 61//61 9//9 58//58 
f 9//9 8//8 58//58 
f 34//34 65//65 23//23 
f 65//65 58//58 23//23 
f 8//8 23//23 58//58 
f 59//59 62//62 66//66 
f 58//58 67//67 62//62 
f 63//63 59//59 66//66 
f 63//63 68//68 60//60 
f 69//69 64//64 60//60 
f 64//64 16//16 15//15 
f 11//11 61//61 12//12 
f 61//61 10//10 9//9 
f 33//33 65//65 34//34 
f 58//58 65//65 70//70 
f 67//67 66//66 62//62 
f 71//71 67//67 58//58 
f 72//72 63//63 66//66 
f 63//63 72//72 68//68 
f 60//60 68//68 73//73 
f 69//69 60//60 73//73 
f 74//74 35//35 69//69 
f 35//35 26//26 69//69 
f 16//16 64//64 17//17 
f 64//64 69//69 17//17 
f 26//26 17//17 69//69 
f 10//10 61//61 11//11 
f 65//65 33//33 70//70 
f 33//33 32//32 70//70 
f 52//52 75//75 53//53 
f 75//75 70//70 53//53 
f 53//53 70//70 44//44 
f 32//32 44//44 70//70 
f 58//58 70//70 71//71 
f 66//66 67//67 76//76 
f 67//67 71//71 76//76 
f 72//72 66//66 77//77 
f 73//73 68//68 72//72 
f 73//73 78//78 69//69 
f 79//79 74//74 69//69 
f 35//35 74//74 36//36 
f 51//51 75//75 52//52 
f 70//70 75//75 79//79 
f 71//71 70//70 80//80 
f 66//66 76//76 81//81 
f 71//71 80//80 76//76 
f 77//77 78//78 72//72 
f 77//77 66//66 81//81 
f 78//78 73//73 72//72 
f 78//78 82//82 69//69 
f 69//69 82//82 79//79 
f 75//75 50//50 79//79 
f 50//50 49//49 79//79 
f 37//37 74//74 38//38 
f 74//74 79//79 38//38 
f 38//38 79//79 45//45 
f 49//49 45//45 79//79 
f 74//74 37//37 36//36 
f 50//50 75//75 51//51 
f 79//79 83//83 70//70 
f 70//70 84//84 80//80 
f 76//76 84//84 81//81 
f 84//84 76//76 80//80 
f 78//78 77//77 82//82 
f 85//85 77//77 81//81 
f 82//82 85//85 79//79 
f 83//83 79//79 86//86 
f 83//83 84//84 70//70 
f 84//84 83//83 81//81 
f 82//82 77//77 85//85 
f 85//85 81//81 86//86 
f 85//85 86//86 79//79 
f 83//83 86//86 81//81 
