v 1.081128955 13.05000019 3.328574896
vn 0.4996278584 0.07190192491 0.8632509112
v 0.05910699815 13.05000019 1.921645999
vn -0.2439504564 0.6140552163 0.750616014
v -2.831127644 13.05000019 2.057090998
vn -0.6655986309 0.09132898599 0.7407006621
v 1.081128955 -1 3.328574896
vn -0.1080865413 -0.01654125564 0.9940038919
v 0.6908410192 13.05000019 2.126960039
vn 0.2701075673 0.3010870516 0.9145427942
v -1.222597003 13.05000019 1.505092025
vn -0.3072568774 0.1086429507 0.9454046488
v -2.831127644 -1 2.057090998
vn -0.9787493944 -0.01653567702 0.2043923587
v -1.749708056 -1 2.408552885
vn -0.6249032021 -0.03022637963 0.7801169157
v -1.749708056 1 2.408552885
vn -0.653411746 0.01697267406 0.7568123937
v -1.081128955 1 2.625840902
vn -0.3086118996 0.05537745729 0.9495746493
v -0.6681479812 1 2.760060072
vn -0.30861184 0.05537746847 0.9495746493
v 0 1 2.977207899
vn -0.2459395379 0.02304745093 0.9690111279
v 0 -1 2.977207899
vn 0.2459395379 -0.02304745093 0.9690111279
v 1.749708056 -1 2.408552885
vn 0.653411746 -0.01697267406 0.7568123937
v 1.749708056 1 2.408552885
vn 0.6249032021 0.03022637963 0.7801169157
v 2.831127644 1 0.9204229712
vn 0.8308570981 0.03606175631 0.5553161502
v 2.831127644 -1 0.9204229712
vn 0.9985764623 -0.0361221917 0.03924520686
v 3.499998093 -1 0
vn 0.9119535089 -0.01655819081 0.4099593163
v 0.6908410192 17.04999924 2.126960039
vn 0.1360333711 0.6787320375 0.7216770053
v 1.053459048 13.05000019 1.627967
vn 0.8078859448 0.05144669861 0.5870890021
v -1.809090972 13.05000019 1.31448102
vn -0.9254077077 0.2832025886 0.251827091
v -2.831127644 13.05000019 -2.057090998
vn -0.9119566083 0.066930525 -0.4047906101
v -2.831127644 -1 0.9204229712
vn -0.8308570981 -0.03606175631 0.5553161502
v 0.6681479812 -1 2.760060072
vn 0.30861184 -0.05537746847 0.9495746493
v 1.081128955 -1 2.625840902
vn 0.3086118996 -0.05537745729 0.9495746493
v 2.831127644 -1 -0.9204229712
vn 0.9640924335 -0.0302606523 -0.2638370991
v 3.499998093 13.05000019 0
vn 0.9738230705 0.09134320915 -0.2081468254
v 1.081128955 13.05000019 1.589890003
vn 0.6384868026 0.6140448451 0.4639865756
v -1.809090972 17.04999924 1.31448102
vn -0.8500991464 0.247466296 0.464856863
v -1.809090972 13.05000019 -0.6501410007
vn -0.7892943025 0.6140150428 0
v -2.831127644 -1 -2.057090998
vn -0.4968384206 -0.01653612591 -0.8676854968
v -2.831127644 -1 -0.9204229712
vn -0.973464489 -0.0169655215 -0.2282083482
v -2.831127644 1 -0.9204229712
vn -0.9640924335 0.0302606523 -0.2638370991
v -2.831127644 1 0.9204229712
vn -0.9985764623 0.0361221917 0.03924520686
v 2.831127644 1 -0.9204229712
vn 0.973464489 0.0169655215 -0.2282083482
v 2.418200016 1 -1.488648057
vn 0.8077165484 0.05536793172 -0.5869653821
v 1.749708056 1 -2.408552885
vn 0.7768255472 0.02966653556 -0.6290166974
v 1.749708056 -1 -2.408552885
vn 0.3707013726 -0.0230492074 -0.9284660816
v 1.081128955 -1 -3.328574896
vn 0.6716761589 -0.01653772965 -0.7406603098
v 2.236498117 17.04999924 0
vn 0.9609636664 0.2475534827 0.1235559508
v -1.809090972 17.04999924 -1.31448102
vn -0.604772687 0.5558761954 -0.5703083873
v -1.809090972 13.05000019 -0.6977159977
vn -0.9986743331 0.05147418007 0
v 1.081128955 13.05000019 -3.328574896
vn 0.1030572504 0.08659020066 -0.9908992648
v -2.418200016 -1 -1.488648057
vn -0.8077165484 -0.05536793172 -0.5869653821
v 1.081128955 -1 -2.625840902
vn 0.3086117208 -0.05537743866 -0.9495747089
v 2.236498117 13.05000019 0
vn 0.8966518641 0.2832299769 0.3402883708
v 0.6908410192 17.04999924 -2.126960039
vn 0.3555601835 0.5559063554 -0.7513621449
v -1.809090972 13.05000019 -1.31448102
vn -0.4335051179 0.6029965878 -0.6696778536
v 0 -1 -2.977207899
vn -0.02158377692 -0.0233348459 -0.9994946718
v 0 1 -2.977207899
vn 0.02158377692 0.0233348459 -0.9994946718
v -1.081128955 1 -2.625840902
vn -0.3086117208 0.05537743866 -0.9495747089
v -1.749708056 1 -2.408552885
vn -0.3707013726 0.0230492074 -0.9284660816
v -1.749708056 -1 -2.408552885
vn -0.7768255472 -0.02966653556 -0.6290166974
v 1.081128955 13.05000019 -1.589890003
vn 0.6384865642 0.6140449047 -0.4639867842
v 1.873880982 13.05000019 -0.4989930093
vn 0.8041678071 0.1086561307 -0.5843868852
v 0.104346998 13.05000019 -1.936349034
vn -0.3065940738 0.1267377138 -0.9433650374
v 0.6908410192 13.05000019 -2.126960039
vn 0.3187768161 0.3010875881 -0.8987366557
v -1.081128955 -13.05000019 3.328574896
vn -0.4996278584 -0.07190192491 0.8632509112
v -0.05910699815 -13.05000019 1.921645999
vn 0.2439504564 -0.6140552163 0.750616014
v 2.831127644 -13.05000019 2.057090998
vn 0.6655986309 -0.09132898599 0.7407006621
v -1.081128955 1 3.328574896
vn 0.1080865413 0.01654125564 0.9940038919
v -0.6908410192 -13.05000019 2.126960039
vn -0.2701075673 -0.3010870516 0.9145427942
v 1.222597003 -13.05000019 1.505092025
vn 0.3072568774 -0.1086429507 0.9454046488
v 2.831127644 1 2.057090998
vn 0.9787493944 0.01653567702 0.2043923587
v -3.499998093 1 0
vn -0.9119535089 0.01655819081 0.4099593163
v -0.6908410192 -17.04999924 2.126960039
vn -0.1360333711 -0.6787320375 0.7216770053
v -1.053459048 -13.05000019 1.627967
vn -0.8078859448 -0.05144669861 0.5870890021
v 1.809090972 -13.05000019 1.31448102
vn 0.9254077077 -0.2832025886 0.251827091
v 2.831127644 -13.05000019 -2.057090998
vn 0.9119566083 -0.066930525 -0.4047906101
v -3.499998093 -13.05000019 0
vn -0.9738230705 -0.09134320915 -0.2081468254
v -1.081128955 -13.05000019 1.589890003
vn -0.6384868026 -0.6140448451 0.4639865756
v 1.809090972 -17.04999924 1.31448102
vn 0.8500991464 -0.247466296 0.464856863
v 1.809090972 -13.05000019 -0.6501410007
vn 0.7892943025 -0.6140150428 0
v 2.831127644 1 -2.057090998
vn 0.4968384206 0.01653612591 -0.8676854968
v -1.081128955 1 -3.328574896
vn -0.6716761589 0.01653772965 -0.7406603098
v -2.236498117 -17.04999924 0
vn -0.9609636664 -0.2475534827 0.1235559508
v 1.809090972 -17.04999924 -1.31448102
vn 0.604772687 -0.5558761954 -0.5703083873
v 1.809090972 -13.05000019 -0.6977159977
vn 0.9986743331 -0.05147418007 0
v -1.081128955 -13.05000019 -3.328574896
vn -0.1030572504 -0.08659020066 -0.9908992648
v -2.236498117 -13.05000019 0
vn -0.8966518641 -0.2832299769 0.3402883708
v -0.6908410192 -17.04999924 -2.126960039
vn -0.3555601835 -0.5559063554 -0.7513621449
v 1.809090972 -13.05000019 -1.31448102
vn 0.4335051179 -0.6029965878 -0.6696778536
v -1.081128955 -13.05000019 -1.589890003
vn -0.6384865642 -0.6140449047 -0.4639867842
v -1.873880982 -13.05000019 -0.4989930093
vn -0.8041678071 -0.1086561307 -0.5843868852
v -0.104346998 -13.05000019 -1.936349034
vn 0.3065940738 -0.1267377138 -0.9433650374
v -0.6908410192 -13.05000019 -2.126960039
vn -0.3187768161 -0.3010875881 -0.8987366557
# mm_gid 0
g mmGroup0
f 1//1 2//2 3//3 
f 3//3 4//4 1//1 
f 2//2 1//1 5//5 
f 2//2 6//6 3//3 
f 7//7 8//8 3//3 
f 8//8 9//9 3//3 
f 13//13 4//4 12//12 
f 4//4 3//3 12//12 
f 12//12 3//3 11//11 
f 11//11 3//3 10//10 
f 9//9 10//10 3//3 
f 4//4 14//14 1//1 
f 14//14 15//15 1//1 
f 17//17 18//18 16//16 
f 18//18 1//1 16//16 
f 15//15 16//16 1//1 
f 2//2 5//5 19//19 
f 1//1 20//20 5//5 
f 6//6 2//2 19//19 
f 6//6 21//21 3//3 
f 22//22 7//7 3//3 
f 7//7 23//23 8//8 
f 24//24 4//4 13//13 
f 4//4 25//25 14//14 
f 26//26 18//18 17//17 
f 1//1 18//18 27//27 
f 20//20 19//19 5//5 
f 28//28 20//20 1//1 
f 29//29 6//6 19//19 
f 6//6 29//29 21//21 
f 3//3 21//21 30//30 
f 22//22 3//3 30//30 
f 31//31 32//32 22//22 
f 32//32 33//33 22//22 
f 23//23 7//7 34//34 
f 7//7 22//22 34//34 
f 33//33 34//34 22//22 
f 25//25 4//4 24//24 
f 18//18 26//26 27//27 
f 26//26 35//35 27//27 
f 38//38 39//39 37//37 
f 39//39 27//27 37//37 
f 37//37 27//27 36//36 
f 35//35 36//36 27//27 
f 1//1 27//27 28//28 
f 19//19 20//20 40//40 
f 20//20 28//28 40//40 
f 29//29 19//19 41//41 
f 30//30 21//21 29//29 
f 30//30 42//42 22//22 
f 43//43 31//31 22//22 
f 32//32 31//31 44//44 
f 45//45 39//39 38//38 
f 27//27 39//39 43//43 
f 28//28 27//27 46//46 
f 19//19 40//40 47//47 
f 28//28 46//46 40//40 
f 41//41 42//42 29//29 
f 41//41 19//19 47//47 
f 42//42 30//30 29//29 
f 42//42 48//48 22//22 
f 22//22 48//48 43//43 
f 39//39 49//49 43//43 
f 49//49 50//50 43//43 
f 53//53 31//31 52//52 
f 31//31 43//43 52//52 
f 52//52 43//43 51//51 
f 50//50 51//51 43//43 
f 31//31 53//53 44//44 
f 49//49 39//39 45//45 
f 43//43 54//54 27//27 
f 27//27 55//55 46//46 
f 40//40 55//55 47//47 
f 55//55 40//40 46//46 
f 42//42 41//41 48//48 
f 56//56 41//41 47//47 
f 48//48 56//56 43//43 
f 54//54 43//43 57//57 
f 54//54 55//55 27//27 
f 55//55 54//54 47//47 
f 48//48 41//41 56//56 
f 56//56 47//47 57//57 
f 56//56 57//57 43//43 
f 54//54 57//57 47//47 
f 58//58 59//59 60//60 
f 60//60 61//61 58//58 
f 59//59 58//58 62//62 
f 59//59 63//63 60//60 
f 64//64 15//15 60//60 
f 15//15 14//14 60//60 
f 12//12 61//61 13//13 
f 61//61 60//60 13//13 
f 13//13 60//60 24//24 
f 24//24 60//60 25//25 
f 14//14 25//25 60//60 
f 61//61 9//9 58//58 
f 9//9 8//8 58//58 
f 34//34 65//65 23//23 
f 65//65 58//58 23//23 
f 8//8 23//23 58//58 
f 59//59 62//62 66//66 
f 58//58 67//67 62//62 
f 63//63 59//59 66//66 
f 63//63 68//68 60//60 
f 69//69 64//64 60//60 
f 64//64 16//16 15//15 
f 11//11 61//61 12//12 
f 61//61 10//10 9//9 
f 33//33 65//65 34//34 
f 58//58 65//65 70//70 
f 67//67 66//66 62//62 
f 71//71 67//67 58//58 
f 72//72 63//63 66//66 
f 63//63 72//72 68//68 
f 60//60 68//68 73//73 
f 69//69 60//60 73//73 
f 74//74 35//35 69//69 
f 35//35 26//26 69//69 
f 16//16 64//64 17//17 
f 64//64 69//69 17//17 
f 26//26 17//17 69//69 
f 10//10 61//61 11//11 
f 65//65 33//33 70//70 
f 33//33 32//32 70//70 
f 52//52 75//75 53//53 
f 75//75 70//70 53//53 
f 53//53 70//70 44//44 
f 32//32 44//44 70//70 
f 58//58 70//70 71//71 
f 66//66 67//67 76//76 
f 67//67 71//71 76//76 
f 72//72 66//66 77//77 
f 73//73 68//68 72//72 
f 73//73 78//78 69//69 
f 79//79 74//74 69//69 
f 35//35 74//74 36//36 
f 51//51 75//75 52//52 
f 70//70 75//75 79//79 
f 71//71 70//70 80//80 
f 66//66 76//76 81//81 
f 71//71 80//80 76//76 
f 77//77 78//78 72//72 
f 77//77 66//66 81//81 
f 78//78 73//73 72//72 
f 78//78 82//82 69//69 
f 69//69 82//82 79//79 
f 75//75 50//50 79//79 
f 50//50 49//49 79//79 
f 37//37 74//74 38//38 
f 74//74 79//79 38//38 
f 38//38 79//79 45//45 
f 49//49 45//45 79//79 
f 74//74 37//37 36//36 
f 50//50 75//75 51//51 
f 79//79 83//83 70//70 
f 70//70 84//84 80//80 
f 76//76 84//84 81//81 
f 84//84 76//76 80//80 
f 78//78 77//77 82//82 
f 85//85 77//77 81//81 
f 82//82 85//85 79//79 
f 83//83 79//79 86//86 
f 83//83 84//84 70//70 
f 84//84 83//83 81//81 
f 82//82 77//77 85//85 
f 85//85 81//81 86//86 
f 85//85 86//86 79//79 
f 83//83 86//86 81//81 
