v 1.205899954 47.59999847 -2.088310003
vn 0.7678028345 0.4625847638 -0.4432765841
v -2.411040068 47.59999847 0
vn -0.7678028345 0.4625847638 -0.4432765841
v 1.205899954 47.59999847 2.088310003
vn 5.43955923e-017 0.4625937343 0.886570394
v 1.205899954 43.59770966 -2.088310003
vn 5.789263068e-017 0.331181407 -0.9435670972
v 1.205899954 43.59770966 2.088310003
vn 0.8241427541 0.3072456717 0.4758033752
v -2.411040068 43.59770966 0
vn -0.8155560493 0.3364110291 0.4708459973
v -3.799999952 43.59770966 0
vn -0.8610117435 0.02547375858 -0.5079467297
v 1.896070004 43.59770966 3.088310242
vn 0.01712599769 0.02465243824 0.9995493889
v 1.896070004 43.59770966 -3.283499956
vn 0.8563625813 0.02776824124 -0.5156278014
v 1.896070004 5 3.088310242
vn 0.8528760076 0.1394468993 0.5031471252
v -3.799999952 5 0
vn -0.8512126207 0.1129302233 0.5125269294
v 1.896070004 5 -3.283499956
vn -0.01705146953 0.09636892378 -0.9951996207
v -4 5 4
vn -0.4400988817 0.1776649505 0.8801977634
v 4 5 4
vn 0.886402607 0.1336526573 0.4432013035
v 4 5 -4
vn 0.4384381771 0.1971288472 -0.8768763542
v -4 5 -4
vn -0.8814794421 0.1695359349 -0.4407397211
v -4 -5 4
vn -0.886402607 -0.1336526573 0.4432013035
v 4 -5 4
vn 0.4400988817 -0.1776649505 0.8801977634
v 4 -5 -4
vn 0.8814794421 -0.1695359349 -0.4407397211
v -4 -5 -4
vn -0.4384381771 -0.1971288472 -0.8768763542
v -1.896070004 -5 -3.283499956
vn 0.01705146953 -0.09636892378 -0.9951996207
v -1.896070004 -5 3.088310242
vn -0.8528760076 -0.1394468993 0.5031471252
v 3.799999952 -5 0
vn 0.8512126207 -0.1129302233 0.5125269294
v -1.205899954 -47.59999847 -2.088310003
vn -0.7678028345 -0.4625847638 -0.4432765841
v 2.411040068 -47.59999847 0
vn 0.7678028345 -0.4625847638 -0.4432765841
v -1.205899954 -47.59999847 2.088310003
vn -5.43955923e-017 -0.4625937343 0.886570394
v -1.205899954 -43.59770966 -2.088310003
vn -5.789263068e-017 -0.331181407 -0.9435670972
v -1.205899954 -43.59770966 2.088310003
vn -0.8241427541 -0.3072456717 0.4758033752
v 2.411040068 -43.59770966 0
vn 0.8155560493 -0.3364110291 0.4708459973
v 3.799999952 -43.59770966 0
vn 0.8610117435 -0.02547375858 -0.5079467297
v -1.896070004 -43.59770966 3.088310242
vn -0.01712599769 -0.02465243824 0.9995493889
v -1.896070004 -43.59770966 -3.283499956
vn -0.8563625813 -0.02776824124 -0.5156278014
# mm_gid 0
g mmGroup0
f 1//1 2//2 3//3 
f 4//4 1//1 5//5 
f 5//5 1//1 3//3 
f 6//6 2//2 4//4 
f 4//4 2//2 1//1 
f 5//5 3//3 6//6 
f 6//6 3//3 2//2 
f 7//7 8//8 5//5 
f 9//9 4//4 8//8 
f 8//8 4//4 5//5 
f 5//5 6//6 7//7 
f 7//7 6//6 9//9 
f 6//6 4//4 9//9 
f 10//10 8//8 11//11 
f 11//11 8//8 7//7 
f 12//12 9//9 10//10 
f 10//10 9//9 8//8 
f 11//11 7//7 12//12 
f 12//12 7//7 9//9 
f 11//11 13//13 10//10 
f 13//13 14//14 10//10 
f 14//14 15//15 10//10 
f 15//15 12//12 10//10 
f 13//13 11//11 16//16 
f 15//15 16//16 12//12 
f 11//11 12//12 16//16 
f 17//17 18//18 13//13 
f 13//13 18//18 14//14 
f 18//18 19//19 14//14 
f 14//14 19//19 15//15 
f 20//20 17//17 16//16 
f 16//16 17//17 13//13 
f 16//16 15//15 20//20 
f 20//20 15//15 19//19 
f 20//20 19//19 21//21 
f 22//22 23//23 18//18 
f 18//18 23//23 19//19 
f 23//23 21//21 19//19 
f 18//18 17//17 22//22 
f 17//17 20//20 22//22 
f 20//20 21//21 22//22 
f 24//24 25//25 26//26 
f 27//27 24//24 28//28 
f 28//28 24//24 26//26 
f 29//29 25//25 27//27 
f 27//27 25//25 24//24 
f 28//28 26//26 29//29 
f 29//29 26//26 25//25 
f 30//30 31//31 28//28 
f 32//32 27//27 31//31 
f 31//31 27//27 28//28 
f 28//28 29//29 30//30 
f 30//30 29//29 32//32 
f 29//29 27//27 32//32 
f 22//22 31//31 23//23 
f 23//23 31//31 30//30 
f 21//21 32//32 22//22 
f 22//22 32//32 31//31 
f 23//23 30//30 21//21 
f 21//21 30//30 32//32 
