# This file uses centimeters as units for non-parametric coordinates.

mtllib ballA1012.mtl
g default
v 0.000000 1.000000 4.236000
v -0.000000 -1.000000 4.236000
v 1.000001 1.000000 4.236000
v 1.000000 -1.000000 4.236000
v 1.000000 -1.000000 4.236000
v 3.618000 0.000000 2.618000
v 1.000000 1.000000 4.236000
v 4.236000 -1.000000 0.000000
v 4.236000 1.000000 0.000000
v 4.236000 1.000000 1.000000
v 1.000000 -1.000000 4.236000
v 2.618000 -1.618000 3.236000
v 3.618000 0.000000 2.618000
v 0.000000 -1.000000 4.236000
v 1.000000 -1.000000 4.236000
v 0.000000 -2.618000 3.618000
v 0.000000 1.000000 4.236000
v 1.000000 1.000000 4.236000
v 0.000000 2.618000 3.618000
v 1.000000 1.000000 4.236000
v 3.618000 0.000000 2.618000
v 2.618000 1.618000 3.236000
v 1.000000 -1.000000 4.236000
v 0.000000 -2.618000 3.618000
v 2.618000 -1.618000 3.236000
v 1.000000 1.000000 4.236000
v 0.000000 2.618000 3.618000
v 2.618000 1.618000 3.236000
v 1.618000 -3.236000 2.618000
v 0.000000 -2.618000 3.618000
v 2.618000 -1.618000 3.236000
v 1.000000 -4.236000 0.000000
v 2.618000 -3.618000 0.000000
v 1.000000 -4.236000 1.000000
v 1.618000 -3.236000 2.618000
v 3.236000 -2.618000 1.618000
v 2.618000 -1.618000 3.236000
v 3.618000 0.000000 2.618000
v 3.236000 -2.618000 1.618000
v 2.618000 -1.618000 3.236000
v 4.236000 -1.000000 0.000000
v 3.236000 -2.618000 1.618000
v 2.618000 -3.618000 0.000000
v 1.618000 3.236000 2.618000
v 0.000000 2.618000 3.618000
v 2.618000 1.618000 3.236000
v 2.618000 -3.618000 0.000000
v 3.236000 -2.618000 1.618000
v 1.000000 -4.236000 1.000000
v 1.618000 -3.236000 2.618000
v 0.000000 -2.618000 3.618000
v 1.000000 -4.236000 1.000000
v 1.618000 -3.236000 2.618000
v 3.236000 -2.618000 1.618000
v 1.000000 -4.236000 1.000000
v 3.618000 0.000000 2.618000
v 3.236000 -2.618000 1.618000
v 4.236000 -1.000000 1.000000
v 4.236000 -1.000000 0.000000
v 3.236000 -2.618000 1.618000
v 4.236000 -1.000000 1.000000
v 0.000000 -4.236000 1.000000
v 0.000000 -2.618000 3.618000
v 1.000000 -4.236000 1.000000
v 0.000000 -4.236000 1.000000
v 0.000000 -4.236000 0.000000
v 1.000000 -4.236000 1.000000
v 1.000000 -4.236000 0.000000
v 0.000000 -4.236000 0.000000
v 1.000000 -4.236000 1.000000
v 3.618000 0.000000 2.618000
v 4.236000 -1.000000 1.000000
v 4.236000 1.000000 1.000000
v 4.236000 -1.000000 0.000000
v 4.236000 -1.000000 1.000000
v 4.236000 1.000000 1.000000
v 3.618000 0.000000 2.618000
v 3.236000 2.618000 1.618000
v 2.618000 1.618000 3.236000
v 3.618000 0.000000 2.618000
v 3.236000 2.618000 1.618000
v 4.236000 1.000000 1.000000
v 1.618000 3.236000 2.618000
v 3.236000 2.618000 1.618000
v 2.618000 1.618000 3.236000
v 1.618000 3.236000 2.618000
v 3.236000 2.618000 1.618000
v 1.000000 4.236000 1.000000
v 2.618000 3.618000 0.000000
v 3.236000 2.618000 1.618000
v 1.000000 4.236000 1.000000
v 0.000000 4.236000 1.000000
v 0.000000 4.236000 0.000000
v 1.000000 4.236000 1.000000
v 1.618000 3.236000 2.618000
v 0.000000 2.618000 3.618000
v 1.000000 4.236000 1.000000
v 0.000000 4.236000 1.000000
v 0.000000 2.618000 3.618000
v 1.000000 4.236000 1.000000
v 4.236000 1.000000 0.000000
v 3.236000 2.618000 1.618000
v 4.236000 1.000000 1.000000
v 4.236000 1.000000 0.000000
v 3.236000 2.618000 1.618000
v 2.618000 3.618000 0.000000
v 1.000000 4.236000 0.000000
v 0.000000 4.236000 0.000000
v 1.000000 4.236000 1.000000
v 2.618000 3.618000 -0.000000
vt 0.000000 0.000000
vt 1.000000 0.000000
vt 0.000000 0.425727
vt 1.000000 0.425727
vt 0.000000 0.000000
vt 1.000000 0.000000
vt 0.000000 0.800811
vt 0.000000 0.000000
vt 1.000000 0.000000
vt 0.000000 0.800811
vt 0.000000 0.000000
vt 1.000000 0.000000
vt 0.000000 0.800811
vt 0.000000 0.000000
vt 0.000000 0.800811
vt 1.000000 0.000000
vt 0.000000 0.000000
vt 1.000000 0.000000
vt 0.000000 0.800811
vt 0.000000 0.000000
vt 1.000000 0.000000
vt 0.000000 0.800811
vt 0.000000 0.000000
vt 1.000000 0.000000
vt 0.000000 0.800811
vt 0.000000 0.000000
vt 0.000000 0.800811
vt 1.000000 0.000000
vt 0.000000 0.000000
vt 0.000000 0.800811
vt 1.000000 0.000000
vt 0.000000 0.000000
vt 1.000000 0.000000
vt 0.000000 0.800811
vt 0.000000 0.000000
vt 1.000000 0.000000
vt 0.000000 0.800811
vt 0.000000 0.000000
vt 0.000000 0.800811
vt 1.000000 0.000000
vt 0.000000 0.000000
vt 1.000000 0.000000
vt 0.000000 0.800811
vt 0.000000 0.000000
vt 1.000000 0.000000
vt 0.000000 0.800811
vt 0.000000 0.000000
vt 1.000000 0.000000
vt 0.000000 0.800811
vt 0.000000 0.000000
vt 1.000000 0.000000
vt 0.000000 0.800811
vt 0.000000 0.000000
vt 0.000000 0.800811
vt 1.000000 0.000000
vt 0.000000 0.000000
vt 1.000000 0.000000
vt 0.000000 0.800811
vt 0.000000 0.000000
vt 0.000000 0.800811
vt 1.000000 0.000000
vt 0.000000 0.000000
vt 0.000000 0.800811
vt 1.000000 0.000000
vt 0.000000 0.000000
vt 1.000000 0.000000
vt 0.000000 0.800811
vt 0.000000 0.000000
vt 0.000000 0.800811
vt 1.000000 0.000000
vt 0.000000 0.000000
vt 1.000000 0.000000
vt 0.000000 0.800811
vt 0.000000 0.000000
vt 0.000000 0.800811
vt 1.000000 0.000000
vt 0.000000 0.000000
vt 1.000000 0.000000
vt 0.000000 0.800811
vt 0.000000 0.000000
vt 0.000000 0.800811
vt 1.000000 0.000000
vt 0.000000 0.000000
vt 0.000000 0.800811
vt 1.000000 0.000000
vt 0.000000 0.000000
vt 1.000000 0.000000
vt 0.000000 0.800811
vt 0.000000 0.000000
vt 0.000000 0.800811
vt 1.000000 0.000000
vt 0.000000 0.000000
vt 0.000000 0.800811
vt 1.000000 0.000000
vt 0.000000 0.000000
vt 0.000000 0.800811
vt 1.000000 0.000000
vt 0.000000 0.000000
vt 1.000000 0.000000
vt 0.000000 0.800811
vt 0.000000 0.000000
vt 1.000000 0.000000
vt 0.000000 0.800811
vt 0.000000 0.000000
vt 0.000000 0.800811
vt 1.000000 0.000000
vt 0.000000 0.000000
vt 1.000000 0.000000
vt 0.000000 0.800811
vt 0.000000 0.800811
vt 1.000000 0.000000
vn 0.000000 0.000000 1.000000
vn 0.000000 0.000000 1.000000
vn 0.000000 0.000000 1.000000
vn 0.000000 0.000000 1.000000
vn 0.525728 0.000000 0.850653
vn 0.525728 0.000000 0.850653
vn 0.525728 0.000000 0.850653
vn 1.000000 0.000000 0.000000
vn 1.000000 0.000000 0.000000
vn 1.000000 0.000000 0.000000
vn 0.525734 -0.000020 0.850649
vn 0.525734 -0.000020 0.850649
vn 0.525734 -0.000020 0.850649
vn 0.000000 -0.356811 0.934177
vn 0.000000 -0.356811 0.934176
vn 0.000000 -0.356811 0.934177
vn 0.000000 0.356811 0.934177
vn 0.000000 0.356811 0.934177
vn 0.000000 0.356811 0.934177
vn 0.525733 0.000020 0.850649
vn 0.525733 0.000020 0.850649
vn 0.525734 0.000020 0.850649
vn 0.309031 -0.500000 0.809012
vn 0.309031 -0.500000 0.809012
vn 0.309031 -0.500000 0.809012
vn 0.309031 0.500000 0.809012
vn 0.309031 0.500000 0.809012
vn 0.309031 0.500000 0.809012
vn 0.309031 -0.500000 0.809012
vn 0.309031 -0.500000 0.809012
vn 0.309031 -0.500000 0.809012
vn 0.356812 -0.934177 0.000000
vn 0.356812 -0.934176 0.000000
vn 0.356812 -0.934176 0.000000
vn 0.577350 -0.577350 0.577350
vn 0.577350 -0.577350 0.577350
vn 0.577350 -0.577350 0.577350
vn 0.809012 -0.309031 0.500000
vn 0.809012 -0.309031 0.500000
vn 0.809012 -0.309031 0.500000
vn 0.850653 -0.525728 0.000015
vn 0.850653 -0.525728 0.000015
vn 0.850653 -0.525728 0.000015
vn 0.309031 0.500000 0.809012
vn 0.309031 0.500000 0.809012
vn 0.309031 0.500000 0.809012
vn 0.500000 -0.809012 0.309031
vn 0.500000 -0.809012 0.309031
vn 0.500000 -0.809012 0.309031
vn 0.000020 -0.850649 0.525734
vn 0.000020 -0.850649 0.525734
vn 0.000020 -0.850649 0.525734
vn 0.500000 -0.809012 0.309031
vn 0.500000 -0.809012 0.309031
vn 0.500000 -0.809012 0.309031
vn 0.809012 -0.309031 0.500000
vn 0.809012 -0.309031 0.500000
vn 0.809012 -0.309031 0.500000
vn 0.850646 -0.525739 0.000000
vn 0.850646 -0.525739 0.000000
vn 0.850646 -0.525739 0.000000
vn 0.000000 -0.850653 0.525728
vn 0.000000 -0.850653 0.525728
vn 0.000000 -0.850653 0.525728
vn 0.000000 -1.000000 0.000000
vn 0.000000 -1.000000 0.000000
vn 0.000000 -1.000000 0.000000
vn 0.000000 -1.000000 0.000000
vn 0.000000 -1.000000 0.000000
vn 0.000000 -1.000000 0.000000
vn 0.934176 0.000000 0.356812
vn 0.934176 0.000000 0.356812
vn 0.934176 0.000000 0.356812
vn 1.000000 0.000000 0.000000
vn 1.000000 0.000000 0.000000
vn 1.000000 0.000000 0.000000
vn 0.809012 0.309031 0.500000
vn 0.809012 0.309031 0.500000
vn 0.809012 0.309031 0.500000
vn 0.809012 0.309031 0.500000
vn 0.809012 0.309031 0.500000
vn 0.809012 0.309031 0.500000
vn 0.577350 0.577350 0.577350
vn 0.577350 0.577350 0.577350
vn 0.577350 0.577350 0.577350
vn 0.500000 0.809012 0.309031
vn 0.500000 0.809012 0.309031
vn 0.500000 0.809012 0.309031
vn 0.500000 0.809012 0.309031
vn 0.500000 0.809012 0.309031
vn 0.500000 0.809012 0.309031
vn 0.000000 1.000000 0.000000
vn 0.000000 1.000000 0.000000
vn 0.000000 1.000000 0.000000
vn 0.000020 0.850649 0.525734
vn 0.000020 0.850649 0.525734
vn 0.000020 0.850649 0.525734
vn 0.000000 0.850653 0.525728
vn 0.000000 0.850653 0.525728
vn 0.000000 0.850653 0.525728
vn 0.850646 0.525739 0.000000
vn 0.850646 0.525739 0.000000
vn 0.850646 0.525739 0.000000
vn 0.850653 0.525728 0.000015
vn 0.850653 0.525728 0.000015
vn 0.850653 0.525728 0.000015
vn 0.000000 1.000000 -0.000000
vn 0.000000 1.000000 -0.000000
vn 0.000000 1.000000 -0.000000
vn 0.356812 0.934176 -0.000001
vn 0.356812 0.934176 -0.000001
vn 0.356812 0.934176 -0.000001
vn -0.000000 -0.000000 -1.000000
vn 0.000000 0.000000 -1.000000
vn -0.000000 -0.000000 -1.000000
vn -0.000000 -0.000000 -1.000000
vn -0.000000 -0.000000 -1.000000
vn 0.000000 0.000000 -0.000000
vn 0.000000 0.000000 -1.000000
vn 0.000000 0.000000 -0.000000
vn 0.000000 0.000000 -1.000000
vn 0.000000 0.000000 -0.000000
vn 0.000000 0.000000 -1.000000
vn 0.000000 0.000000 -0.000000
vn 0.000000 0.000000 -1.000000
vn -1.000000 -0.000000 0.000000
vn -0.000000 0.000000 0.000000
vn -0.000000 0.000000 0.000000
vn -1.000000 -0.000000 0.000000
vn -1.000000 0.000000 0.000000
vn -0.000000 -0.000000 0.000000
vn -1.000000 0.000000 -0.000000
vn -1.000000 0.000000 -0.000000
vn -1.000000 0.000000 -0.000000
vn -1.000000 0.000000 -0.000000
vn -1.000000 -0.000000 0.000000
vn -1.000000 -0.000000 0.000000
vn -1.000000 -0.000000 0.000000
vn -1.000000 -0.000000 0.000000
s off
g pPlane5
usemtl initialShadingGroup
f 1/1/1 2/2/2 4/4/3 3/3/4
f 5/5/5 6/6/6 7/7/7
f 8/8/8 9/9/9 10/10/10
f 11/11/11 12/12/12 13/13/13
f 14/14/14 16/15/15 15/16/16
f 17/17/17 18/18/18 19/19/19
f 20/20/20 21/21/21 22/22/22
f 23/23/23 24/24/24 25/25/25
f 26/26/26 28/27/27 27/28/28
f 29/29/29 31/30/30 30/31/31
f 32/32/32 33/33/33 34/34/34
f 35/35/35 36/36/36 37/37/37
f 38/38/38 40/39/39 39/40/40
f 41/41/41 42/42/42 43/43/43
f 44/44/44 45/45/45 46/46/46
f 47/47/47 48/48/48 49/49/49
f 50/50/50 51/51/51 52/52/52
f 53/53/53 55/54/54 54/55/55
f 56/56/56 57/57/57 58/58/58
f 59/59/59 61/60/60 60/61/61
f 62/62/62 64/63/63 63/64/64
f 65/65/65 66/66/66 67/67/67
f 68/68/68 70/69/69 69/70/70
f 71/71/71 72/72/72 73/73/73
f 74/74/74 76/75/75 75/76/76
f 77/77/77 78/78/78 79/79/79
f 80/80/80 82/81/81 81/82/82
f 83/83/83 85/84/84 84/85/85
f 86/86/86 87/87/87 88/88/88
f 89/89/89 91/90/90 90/91/91
f 92/92/92 94/93/93 93/94/94
f 95/95/95 97/96/96 96/97/97
f 98/98/98 99/99/99 100/100/100
f 101/101/101 102/102/102 103/103/103
f 104/104/104 106/105/105 105/106/106
f 107/107/107 108/108/108 109/109/109
f 107/107/110 109/110/111 110/111/112
s 1
f 108/108/113 107/107/114 110/111/115
f 106/105/116 104/104/117 108/108/113 110/111/115
f 9/9/118 8/8/119 108/108/113 104/104/117
f 41/41/120 43/43/121 108/108/113 8/8/119
f 33/33/122 32/32/123 108/108/113 43/43/121
f 68/68/124 69/70/125 108/108/113 32/32/123
s 2
f 92/92/126 93/94/127 108/108/128 69/70/129
f 99/99/130 98/98/131 92/92/126 69/70/129
f 17/17/132 19/19/133 99/99/130 69/70/129
f 2/2/134 1/1/135 17/17/132 69/70/129
f 16/15/136 14/14/137 2/2/134 69/70/129
f 62/62/138 63/64/139 16/15/136 69/70/129
