v 2.997473001 -1.013299942 2.272500038
vn 0.00746708503 -0.02241830714 0.9997208118
v -2.997473001 -1.013299942 2.272500038
vn -0.007551001385 -0.08803350478 0.996088922
v 2.938116074 -1.013299942 2.2275002
vn 0 -0.003259923542 0.9999946952
v 2.997473001 -1.013299942 2.2275002
vn 0.02622533031 -0.0015515876 0.9996548295
v -2.997473001 0 2.272500038
vn -0.007573152427 0 0.9999713302
v -2.844607115 -1.013299942 2.2275002
vn 0 -0.0007924138918 0.999999702
v 2.997473001 -0.01003399957 2.2275002
vn 0.8299489021 0 0.5578394532
v 3.058026075 -28.98240852 2.2275002
vn 0.3581645787 -0.03817550465 0.9328776598
v 2.997473001 0 2.272500038
vn 0.003818904515 0 0.9999927282
v -2.997473001 -1.003268003 2.2275002
vn -0.8721583486 0 0.489223659
v -2.997473001 -1.013299942 2.2275002
vn -0.0001055714893 -0.001608690014 0.9999986887
v -2.997473001 28.9803791 2.272500038
vn -0.3538661599 0.04735181108 0.9340966344
v -2.997473001 -0.2889609933 2.2275002
vn -0.02480961382 0 0.9996922016
v -3.058027267 -28.98240852 2.2275002
vn -0.8236929178 -0.04740906507 0.5650507808
v 2.997473001 -0.002027000068 2.2275002
vn 0.0002572112135 0 0.9999999404
v -2.997473001 0.2869339883 2.2275002
vn -0.9989917874 0 0.0448926948
v 2.997473001 28.9803791 2.272500038
vn 0.820528388 0.03614776582 0.5704616904
v -2.997473001 -0.002027000068 2.2275002
vn -0.5964699388 0 0.8026354313
v 1.9460181 -28.98240852 1.237498999
vn 0.7306364775 -0.3689804673 0.5744768977
v 3.058027267 -0.002027000068 2.2275002
vn 0.9999760985 -3.234138646e-008 0.006915106904
v 2.997473001 0 2.2275002
vn 0.9999998808 0 0.0004656535166
v -2.997473001 0 2.2275002
vn -0.5964699388 0 0.8026354313
v -2.997473001 1.001242042 2.2275002
vn -0.2959065139 0 0.9552168846
v 1.907480955 28.9803791 1.262500048
vn 0.2883535624 0.3970268965 0.8713333607
v -3.058027267 -0.002027000068 2.2275002
vn -0.9999060035 0 0.01371246949
v 1.946015954 -28.98240852 -1.237499952
vn 0.2787877619 -0.3917672634 -0.8768100142
v -1.946015954 -28.98240852 1.237499952
vn -0.291829586 -0.2691243887 0.9178276062
v 3.058026075 -28.98240852 -2.2275002
vn 0.8241109848 -0.0351356566 -0.5653375387
v -2.997473001 1.011273026 2.2275002
vn -0.9999975562 0.002164235339 0.0004921779619
v 2.997473001 28.9803791 -2.272500038
vn 0.354020834 0.03700978309 -0.9345049858
v -1.907482028 28.9803791 1.262500048
vn -0.781504035 0.2017561197 0.5903778076
v 2.997473001 0.00800499972 2.2275002
vn 0.3479962647 0 0.9374959469
v -3.058027267 -0.002027000068 -2.2275002
vn -0.9999760985 0 -0.006915106904
v 1.9460181 -34.04687881 -1.237499952
vn 0.7684704065 -0.3287522793 -0.5489765406
v 1.9460181 -34.04687881 -0.3087559938
vn 0.7929046154 -0.6093457341 0
v -3.058027267 -28.98240852 -2.2275002
vn -0.3579980731 -0.04884191975 -0.932444036
v 1.9460181 -34.04687881 1.237499952
vn 0.2685158253 -0.2528638244 0.9294940233
v 0.4855310023 -34.04687881 1.237499952
vn 0 -0.1803762913 0.9835976958
v 3.058027267 -0.002027000068 -2.2275002
vn 0.9999060035 -3.075387056e-008 -0.01371246763
v -3.058027267 1.011273026 2.2275002
vn -0.998090148 0.0602356419 0.0137007134
v -2.997473001 1.011273026 2.183391094
vn -0.9962306619 0.08674353361 0
v 2.997473001 1.011273026 -2.113902092
vn 0.999999404 0.001066305675 0
v 1.907482028 28.9803791 -1.262500048
vn 0.7421617508 0.3672322333 -0.5606571436
v -0.4768710136 34.04687881 1.262500048
vn 0 0 1
v -1.39001298 34.04687881 1.262500048
vn 0 0.833620429 0.5523377061
v -1.907482028 34.04687881 1.262500048
vn -0.3296954632 0.2684576511 0.9051140547
v -1.907480955 28.9803791 -1.262500048
vn -0.3022342622 0.2730911672 -0.9132774472
v 2.997473001 1.011273026 2.2275002
vn 0.9999975562 0.002164222533 0.00050013687
v -3.058027267 1.011273026 -2.2275002
vn -0.9981457591 0.0593531318 -0.01350001153
v -0.4855310023 -34.04687881 -1.237499952
vn 0 -0.2920076251 -0.9564160109
v -1.9460181 -28.98240852 -1.237499952
vn -0.7697677016 -0.2028219253 -0.6052445769
v -1.9460181 -34.04687881 1.237499952
vn -0.8091148734 -0.10599792 0.5780117512
v 2.997473001 -0.2889609933 -2.2275002
vn 0.02480962686 0 -0.9996922016
v 3.058027267 1.011273026 2.2275002
vn 0.9981457591 0.0593531318 0.01350001153
v -2.997473001 1.011273026 2.113902092
vn -0.999999404 0.001066305675 0
v 2.997473001 1.011273026 -2.183391094
vn 0.9962306619 0.08674353361 0
v 1.907482028 34.04687881 1.262500048
vn 0.8156406283 0.144778192 0.5601514578
v 1.907482028 34.04687881 0.3156250119
vn 0.8381206989 0.5454848409 0
v -2.997473001 28.9803791 -2.272500038
vn -0.8200877905 0.04877326265 -0.5701553822
v 1.907482028 34.04687881 -1.262500048
vn 0.3296954632 0.2684576511 -0.9051140547
v 1.39001298 34.04687881 -1.262500048
vn 0 0.833620429 -0.5523377061
v 0.4768710136 34.04687881 -1.262500048
vn 0 0 -1
v -1.907482028 34.04687881 -1.262500048
vn -0.8156406283 0.144778192 -0.5601514578
v -1.907482028 34.04687881 -0.3156250119
vn -0.8381206989 0.5454848409 0
v -2.997473001 0.00800499972 -2.2275002
vn -0.3479962647 0 -0.9374959469
v -2.997473001 -0.002027000068 -2.2275002
vn -0.0002572112135 0 -0.9999999404
v -1.9460181 -34.04687881 -1.237499952
vn -0.276650399 -0.07978016883 -0.9576532245
v 2.844607115 -1.013299942 -2.2275002
vn 0 -0.0007924138918 -0.999999702
v -1.9460181 -34.04687881 0.3087559938
vn -0.5453534126 -0.8382062316 0
v 2.997473001 -0.002027000068 -2.2275002
vn 0.5964699388 0 -0.8026354313
v 2.997473001 -1.003268003 -2.2275002
vn 0.8721616268 0 -0.489217788
v 3.058027267 1.011273026 -2.2275002
vn 0.998090148 0.0602356419 -0.0137007134
v 2.997473001 1.011273026 -2.2275002
vn 0.9999975562 0.002164235339 -0.0004921779619
v -2.997473001 0 -2.272500038
vn -0.003818904515 0 -0.9999927282
v -2.997473001 0 -2.2275002
vn -0.9999998808 0 -0.0004656535166
v -2.997473001 1.011273026 -2.2275002
vn -0.9999975562 0.002164222533 -0.00050013687
v -2.997473001 -0.01003399957 -2.2275002
vn -0.8299447894 0 -0.5578455329
v -2.938116074 -1.013299942 -2.2275002
vn 0 -0.003259923542 -0.9999946952
v 2.997473001 -1.013299942 -2.2275002
vn 0.0001055714893 -0.001608690014 -0.9999986887
v 2.997473001 0 -2.272500038
vn 0.007573152427 0 -0.9999713302
v 2.997473001 0 -2.2275002
vn 0.5964699388 0 -0.8026354313
v 2.997473001 1.001242042 -2.2275002
vn 0.2959065139 0 -0.9552168846
v -2.997473001 -1.013299942 -2.2275002
vn -0.02622531541 -0.001551586785 -0.9996548295
v 2.997473001 -1.013299942 -2.272500038
vn 0.007551001385 -0.08803350478 -0.996088922
v 2.997473001 0.2869339883 -2.2275002
vn 0.9989917874 0 -0.0448926948
v -2.997473001 -1.013299942 -2.272500038
vn -0.00746708503 -0.02241830714 -0.9997208118
# mm_gid 0
g mmGroup0
f 1//1 2//2 3//3 
f 1//1 3//3 4//4 
f 1//1 5//5 2//2 
f 2//2 6//6 3//3 
f 7//7 1//1 4//4 
f 4//4 3//3 8//8 
f 9//9 5//5 1//1 
f 2//2 5//5 10//10 
f 11//11 6//6 2//2 
f 3//3 6//6 8//8 
f 7//7 4//4 8//8 
f 9//9 1//1 7//7 
f 5//5 9//9 12//12 
f 2//2 10//10 11//11 
f 10//10 5//5 13//13 
f 11//11 14//14 6//6 
f 8//8 6//6 14//14 
f 15//15 7//7 8//8 
f 9//9 7//7 15//15 
f 5//5 12//12 16//16 
f 12//12 9//9 17//17 
f 10//10 14//14 11//11 
f 13//13 14//14 10//10 
f 5//5 18//18 13//13 
f 8//8 14//14 19//19 
f 20//20 15//15 8//8 
f 21//21 9//9 15//15 
f 22//22 5//5 16//16 
f 16//16 12//12 23//23 
f 17//17 24//24 12//12 
f 9//9 21//21 17//17 
f 25//25 14//14 13//13 
f 22//22 18//18 5//5 
f 18//18 25//25 13//13 
f 26//26 8//8 19//19 
f 14//14 27//27 19//19 
f 28//28 20//20 8//8 
f 15//15 20//20 21//21 
f 25//25 22//22 16//16 
f 23//23 25//25 16//16 
f 23//23 12//12 29//29 
f 17//17 30//30 24//24 
f 24//24 31//31 12//12 
f 21//21 32//32 17//17 
f 25//25 33//33 14//14 
f 18//18 22//22 25//25 
f 28//28 8//8 26//26 
f 14//14 36//36 27//27 
f 39//39 20//20 28//28 
f 20//20 32//32 21//21 
f 40//40 25//25 23//23 
f 40//40 23//23 29//29 
f 29//29 12//12 41//41 
f 17//17 42//42 30//30 
f 24//24 30//30 43//43 
f 31//31 47//47 12//12 
f 32//32 48//48 17//17 
f 33//33 25//25 49//49 
f 14//14 33//33 36//36 
f 50//50 26//26 34//34 
f 35//35 19//19 37//37 
f 28//28 26//26 36//36 
f 51//51 27//27 36//36 
f 38//38 27//27 52//52 
f 39//39 28//28 53//53 
f 20//20 39//39 54//54 
f 20//20 54//54 32//32 
f 49//49 25//25 40//40 
f 41//41 40//40 29//29 
f 41//41 12//12 55//55 
f 48//48 42//42 17//17 
f 56//56 30//30 42//42 
f 30//30 59//59 43//43 
f 44//44 24//24 57//57 
f 64//64 31//31 46//46 
f 59//59 12//12 47//47 
f 32//32 54//54 48//48 
f 33//33 49//49 65//65 
f 33//33 66//66 36//36 
f 36//36 68//68 28//28 
f 26//26 51//51 36//36 
f 70//70 39//39 53//53 
f 53//53 28//28 71//71 
f 54//54 39//39 72//72 
f 40//40 41//41 49//49 
f 41//41 55//55 49//49 
f 59//59 55//55 12//12 
f 42//42 48//48 54//54 
f 56//56 42//42 54//54 
f 73//73 30//30 56//56 
f 58//58 43//43 60//60 
f 30//30 74//74 59//59 
f 59//59 47//47 43//43 
f 62//62 47//47 63//63 
f 33//33 65//65 75//75 
f 65//65 49//49 76//76 
f 66//66 33//33 75//75 
f 66//66 77//77 36//36 
f 69//69 51//51 67//67 
f 78//78 68//68 36//36 
f 79//79 28//28 68//68 
f 80//80 70//70 53//53 
f 70//70 81//81 39//39 
f 71//71 80//80 53//53 
f 71//71 28//28 79//79 
f 72//72 56//56 54//54 
f 72//72 39//39 82//82 
f 49//49 55//55 76//76 
f 76//76 55//55 59//59 
f 56//56 72//72 73//73 
f 82//82 30//30 73//73 
f 80//80 74//74 30//30 
f 74//74 75//75 59//59 
f 75//75 65//65 59//59 
f 65//65 76//76 59//59 
f 75//75 74//74 66//66 
f 74//74 77//77 66//66 
f 77//77 83//83 36//36 
f 83//83 78//78 36//36 
f 78//78 84//84 68//68 
f 79//79 68//68 84//84 
f 81//81 70//70 80//80 
f 39//39 81//81 85//85 
f 84//84 80//80 71//71 
f 84//84 71//71 79//79 
f 72//72 82//82 73//73 
f 82//82 39//39 85//85 
f 85//85 30//30 82//82 
f 80//80 30//30 85//85 
f 74//74 80//80 86//86 
f 74//74 86//86 77//77 
f 77//77 86//86 83//83 
f 83//83 86//86 78//78 
f 86//86 84//84 78//78 
f 81//81 80//80 85//85 
f 86//86 80//80 84//84 
f 34//34 26//26 19//19 
f 34//34 19//19 35//35 
f 37//37 19//19 27//27 
f 37//37 27//27 38//38 
f 24//24 44//44 45//45 
f 24//24 45//45 46//46 
f 24//24 46//46 31//31 
f 57//57 24//24 43//43 
f 57//57 43//43 58//58 
f 45//45 44//44 57//57 
f 45//45 57//57 58//58 
f 45//45 58//58 60//60 
f 45//45 60//60 61//61 
f 61//61 62//62 63//63 
f 61//61 63//63 64//64 
f 61//61 64//64 46//46 
f 61//61 46//46 45//45 
f 63//63 47//47 31//31 
f 63//63 31//31 64//64 
f 67//67 51//51 26//26 
f 67//67 26//26 50//50 
f 52//52 27//27 51//51 
f 52//52 51//51 69//69 
f 47//47 62//62 61//61 
f 47//47 61//61 60//60 
f 47//47 60//60 43//43 
f 69//69 67//67 50//50 
f 69//69 50//50 34//34 
f 69//69 34//34 35//35 
f 69//69 35//35 37//37 
f 69//69 37//37 38//38 
f 69//69 38//38 52//52 
