v -2.99747324 -0.5107989907 2.272500038
vn -0.007466552779 -0.1726838201 0.9849489927
v -2.99747324 -0.5107989907 2.227499962
vn -0.0001055696484 -0.003191234078 0.999994874
v -2.844607115 -0.5107989907 2.227499962
vn 0 -0.001571953413 0.9999987483
v 2.938117027 -0.5107989907 2.227499962
vn 0 -0.006466787308 0.9999790788
v 2.99747324 -0.5107989907 2.272500038
vn 0.007461584173 -0.04443965107 0.9989842176
v -2.99747324 -4.719516444e-012 2.272500038
vn -0.007573152427 0 0.9999713302
v -2.99747324 -0.5057420135 2.227499962
vn -0.8721584678 0 0.4892234504
v 2.99747324 -0.5107989907 2.227499962
vn 0.02622564323 -0.003077956149 0.9996513128
v 2.99747324 -4.719516444e-012 2.272500038
vn 0.003818904515 0 0.9999927282
v -2.99747324 -4.719516444e-012 2.227499962
vn -0.5964699388 0 0.8026354313
v -2.99747324 -0.001021999982 2.227499962
vn -0.5964699388 0 0.8026354313
v -2.99747324 -0.1456640065 2.227499962
vn -0.02480960451 0 0.9996922016
v 2.99747324 -0.005057999864 2.227499962
vn 0.8299489021 0 0.5578393936
v -2.99747324 14.60885525 2.272500038
vn -0.352707386 0.09362674505 0.9310379028
v -2.99747324 0.1446419954 2.227499962
vn -0.9989917874 0 0.0448927097
v 2.99747324 -4.719516444e-012 2.227499962
vn 0.9999998808 0 0.000465646357
v 2.99747324 -0.001021999982 2.227499962
vn 0.000257206877 0 0.9999999404
v -2.99747324 14.60885525 -2.272500038
vn -0.8172395825 0.09641811997 -0.5681751966
v -2.99747324 0.5097780228 2.113902092
vn -0.999997735 0.002115285024 0
v -2.99747324 0.5097780228 2.183391094
vn -0.9854080677 0.1702084839 0
v -2.99747324 0.5097780228 2.227499962
vn -0.9999906421 0.004293282051 0.0004922203952
v -2.99747324 0.5047209859 2.227499962
vn -0.2959064841 0 0.9552168846
v 2.99747324 14.60885525 2.272500038
vn 0.8189592957 0.07157113403 0.5693708658
v 2.99747324 0.004035000224 2.227499962
vn 0.3479962051 0 0.9374959469
v 2.99747324 0.5097780228 2.227499962
vn 0.9999906421 0.004293256439 0.0005001344252
v 2.99747324 0.5097780228 -2.113902092
vn 0.999997735 0.002115285024 0
v -1.907482028 14.60885525 -1.262500048
vn -0.4694364369 0.52590698 -0.7092611194
v -2.99747324 -4.719516444e-012 -2.272500038
vn -0.003818904515 0 -0.9999927282
v -2.99747324 -4.719516444e-012 -2.227499962
vn -0.9999998808 0 -0.000465646357
v -2.99747324 0.004035000224 -2.227499962
vn -0.3479962051 0 -0.9374959469
v -2.99747324 0.5097780228 -2.227499962
vn -0.9999906421 0.004293256439 -0.0005001344252
v 1.907482028 14.60885525 1.262500048
vn 0.4017071128 0.6857601404 0.6069303155
v 2.99747324 0.5097780228 -2.183391094
vn 0.9854080677 0.1702084839 0
v 2.99747324 0.5097780228 -2.227499962
vn 0.9999906421 0.004293282051 -0.0004922203952
v 2.99747324 0.5047209859 -2.227499962
vn 0.2959064841 0 -0.9552168846
v 2.99747324 0.1446419954 -2.227499962
vn 0.9989917874 0 -0.0448927097
v 2.99747324 -4.719516444e-012 -2.272500038
vn 0.007573152427 0 -0.9999713302
v 2.99747324 14.60885525 -2.272500038
vn 0.3533112705 0.07327114791 -0.9326320291
v 1.907482028 14.60885525 -1.262500048
vn 0.4569954276 0.5607277155 -0.6904633045
v -1.907482028 14.60885525 1.262500048
vn -0.520398736 0.3331423402 0.7862578034
v -2.99747324 -0.005057999864 -2.227499962
vn -0.829944849 0 -0.5578454733
v -2.99747324 -0.001021999982 -2.227499962
vn -0.000257206877 0 -0.9999999404
v 2.99747324 -4.719516444e-012 -2.227499962
vn 0.5964699388 0 -0.8026354313
v -1.907480955 14.60885525 -1.262500048
vn 0 0 -1
v -1.907482028 14.60885525 1.262498975
vn -1 0 0
v -2.99747324 -0.5107989907 -2.272500038
vn -0.007461584173 -0.04443965107 -0.9989842176
v -2.99747324 -0.5107989907 -2.227499962
vn -0.02622562833 -0.003077954287 -0.9996513128
v 1.907480955 14.60885525 1.262500048
vn 0 0 1
v 2.99747324 -0.001021999982 -2.227499962
vn 0.5964699388 0 -0.8026354313
v 2.99747324 -0.1456640065 -2.227499962
vn 0.02480961755 0 -0.9996922016
v 2.99747324 -0.5057420135 -2.227499962
vn 0.872161746 0 -0.4892175794
v 2.99747324 -0.5107989907 -2.272500038
vn 0.007466552779 -0.1726838201 -0.9849489927
v 1.907482028 18.69524765 -1.262500048
vn 0.3014762402 0.2814514339 -0.9109869003
v -1.907482028 18.69524765 -1.262500048
vn -0.6398888826 0.5973858833 -0.4833966494
v -2.938117027 -0.5107989907 -2.227499962
vn 0 -0.006466787308 -0.9999790788
v 1.907482028 14.60885525 -1.262498975
vn 1 0 0
v -1.907482028 18.69524765 1.262500048
vn -0.3014762402 0.2814514339 0.9109869003
v 2.99747324 -0.5107989907 -2.227499962
vn 0.0001055696484 -0.003191234078 -0.999994874
v 1.907482028 18.69524765 1.262500048
vn 0.6398888826 0.5973858833 0.4833966494
v 2.844607115 -0.5107989907 -2.227499962
vn 0 -0.001571953413 -0.9999987483
v -3.058027029 0.5097780228 -2.227499962
vn -0.993024826 0.1171377748 -0.01343075279
v -3.058027029 0.5097780228 2.227499962
vn -0.9928173423 0.1188612431 0.01362834591
v -3.058027029 -0.001021999982 -2.227499962
vn -0.9999760985 0 -0.006915107369
v -3.058027029 -0.001021999982 2.227499962
vn -0.9999060035 0 0.01371246949
v -3.058027029 -14.60987663 -2.227499962
vn -0.3567512333 -0.09655289352 -0.9291964769
v -3.058027029 -14.60987663 2.227499962
vn -0.8209891915 -0.09373915941 0.5631960034
v 3.058027029 -0.001021999982 -2.227499962
vn 0.9999060035 -6.1008123e-008 -0.01371246763
v 3.058026075 -14.60987663 -2.227499962
vn 0.822621882 -0.06957451999 -0.5643160343
v 3.058026075 -14.60987663 2.227499962
vn 0.3574009538 -0.07556930184 0.9308887124
v -1.946017981 -14.60987663 1.237499952
vn -0.4574294388 -0.5228076577 0.7193263769
v 1.946017981 -14.60987663 -1.237499952
vn 0.3920496106 -0.6827937961 -0.6165142059
v 3.058027029 -0.001021999982 2.227499962
vn 0.9999760985 -6.41573692e-008 0.006915107369
v 1.946017981 -14.60987663 1.237499952
vn 0.4454434812 -0.557594955 0.7004770041
v -1.946017981 -14.60987663 -1.237499952
vn -0.5064073801 -0.3307348192 -0.7963454127
v 3.058027029 0.5097780228 -2.227499962
vn 0.9928173423 0.1188612431 -0.01362834591
v 3.058027029 0.5097780228 2.227499962
vn 0.993024826 0.1171377748 0.01343075279
v -1.946015954 -14.60987663 1.237499952
vn 0 0 1
v -1.946017981 -14.60987663 -1.237499952
vn -1 0 0
v 1.946015954 -14.60987663 -1.237499952
vn 0 0 -1
v 1.946017981 -14.60987663 1.237498999
vn 1 0 0
v 1.946017981 -18.69626808 1.237499952
vn 0.2911277115 -0.2772812247 0.9156199098
v -1.946017981 -18.69626808 1.237499952
vn -0.6292720437 -0.599342823 0.4947776496
v -1.946017981 -18.69626808 -1.237499952
vn -0.2911277115 -0.2772812247 -0.9156199098
v 1.946017981 -18.69626808 -1.237499952
vn 0.6292720437 -0.599342823 -0.4947776496
# mm_gid 0
g mmGroup0
f 5//5 1//1 4//4 
f 2//2 3//3 1//1 
f 1//1 3//3 4//4 
f 5//5 6//6 1//1 
f 1//1 7//7 2//2 
f 5//5 4//4 8//8 
f 9//9 6//6 5//5 
f 1//1 6//6 7//7 
f 7//7 6//6 12//12 
f 10//10 11//11 6//6 
f 6//6 11//11 12//12 
f 9//9 5//5 13//13 
f 13//13 5//5 8//8 
f 6//6 9//9 14//14 
f 10//10 6//6 15//15 
f 16//16 9//9 17//17 
f 9//9 13//13 17//17 
f 6//6 14//14 15//15 
f 15//15 14//14 22//22 
f 22//22 14//14 21//21 
f 21//21 14//14 20//20 
f 20//20 14//14 19//19 
f 18//18 19//19 14//14 
f 14//14 9//9 23//23 
f 9//9 16//16 23//23 
f 16//16 24//24 23//23 
f 24//24 25//25 23//23 
f 25//25 26//26 23//23 
f 18//18 14//14 27//27 
f 28//28 29//29 18//18 
f 29//29 30//30 18//18 
f 30//30 31//31 18//18 
f 31//31 19//19 18//18 
f 23//23 32//32 14//14 
f 37//37 38//38 36//36 
f 36//36 38//38 35//35 
f 35//35 38//38 34//34 
f 34//34 38//38 33//33 
f 33//33 38//38 26//26 
f 23//23 26//26 38//38 
f 18//18 27//27 39//39 
f 40//40 27//27 14//14 
f 38//38 28//28 18//18 
f 29//29 28//28 42//42 
f 28//28 41//41 42//42 
f 23//23 38//38 32//32 
f 32//32 40//40 14//14 
f 43//43 37//37 36//36 
f 37//37 28//28 38//38 
f 38//38 18//18 39//39 
f 44//44 39//39 27//27 
f 45//45 27//27 40//40 
f 28//28 46//46 41//41 
f 41//41 46//46 47//47 
f 32//32 38//38 39//39 
f 48//48 40//40 32//32 
f 52//52 37//37 51//51 
f 51//51 37//37 50//50 
f 43//43 49//49 37//37 
f 37//37 49//49 50//50 
f 28//28 37//37 46//46 
f 44//44 27//27 53//53 
f 44//44 53//53 39//39 
f 45//45 40//40 54//54 
f 45//45 54//54 27//27 
f 47//47 46//46 55//55 
f 56//56 32//32 39//39 
f 48//48 32//32 57//57 
f 48//48 57//57 40//40 
f 46//46 37//37 52//52 
f 52//52 51//51 58//58 
f 27//27 54//54 53//53 
f 39//39 53//53 59//59 
f 40//40 57//57 54//54 
f 46//46 52//52 55//55 
f 58//58 60//60 52//52 
f 55//55 52//52 60//60 
f 56//56 39//39 59//59 
f 56//56 59//59 32//32 
f 32//32 59//59 57//57 
f 54//54 59//59 53//53 
f 57//57 59//59 54//54 
f 62//62 20//20 61//61 
f 20//20 19//19 61//61 
f 61//61 19//19 31//31 
f 63//63 61//61 30//30 
f 30//30 61//61 31//31 
f 61//61 64//64 62//62 
f 20//20 62//62 21//21 
f 42//42 63//63 29//29 
f 63//63 30//30 29//29 
f 63//63 64//64 61//61 
f 62//62 64//64 22//22 
f 22//22 64//64 15//15 
f 11//11 10//10 64//64 
f 64//64 10//10 15//15 
f 62//62 22//22 21//21 
f 63//63 42//42 65//65 
f 42//42 41//41 65//65 
f 41//41 47//47 65//65 
f 47//47 55//55 65//65 
f 55//55 60//60 65//65 
f 64//64 63//63 66//66 
f 11//11 64//64 12//12 
f 66//66 63//63 65//65 
f 67//67 68//68 50//50 
f 50//50 68//68 51//51 
f 51//51 68//68 58//58 
f 58//58 68//68 60//60 
f 65//65 60//60 68//68 
f 64//64 66//66 12//12 
f 12//12 66//66 7//7 
f 7//7 66//66 2//2 
f 2//2 66//66 3//3 
f 69//69 3//3 66//66 
f 66//66 65//65 70//70 
f 68//68 71//71 65//65 
f 49//49 67//67 50//50 
f 67//67 72//72 68//68 
f 69//69 66//66 73//73 
f 72//72 17//17 69//69 
f 17//17 13//13 69//69 
f 13//13 8//8 69//69 
f 8//8 4//4 69//69 
f 4//4 3//3 69//69 
f 66//66 70//70 73//73 
f 74//74 70//70 65//65 
f 68//68 69//69 71//71 
f 71//71 74//74 65//65 
f 75//75 67//67 35//35 
f 35//35 67//67 36//36 
f 49//49 43//43 67//67 
f 67//67 43//43 36//36 
f 72//72 67//67 76//76 
f 68//68 72//72 69//69 
f 71//71 69//69 73//73 
f 17//17 72//72 16//16 
f 72//72 24//24 16//16 
f 77//77 73//73 70//70 
f 78//78 70//70 74//74 
f 79//79 74//74 71//71 
f 76//76 67//67 75//75 
f 75//75 35//35 34//34 
f 72//72 76//76 24//24 
f 24//24 76//76 25//25 
f 80//80 71//71 73//73 
f 77//77 70//70 81//81 
f 77//77 81//81 73//73 
f 78//78 74//74 82//82 
f 78//78 82//82 70//70 
f 79//79 71//71 83//83 
f 79//79 83//83 74//74 
f 75//75 33//33 76//76 
f 33//33 26//26 76//76 
f 26//26 25//25 76//76 
f 33//33 75//75 34//34 
f 80//80 73//73 84//84 
f 80//80 84//84 71//71 
f 70//70 82//82 81//81 
f 73//73 81//81 84//84 
f 74//74 83//83 82//82 
f 71//71 84//84 83//83 
f 82//82 84//84 81//81 
f 83//83 84//84 82//82 
