v 3.250664949 -1.808999896 2.713365078
vn 0.008222344331 -0.01499559358 0.9998537302
v -3.250664949 -1.808999896 2.713365078
vn -0.008331451565 -0.05900388211 0.9982230067
v 3.186295033 -1.808999896 2.659635067
vn 0 -0.002180277603 0.9999976158
v 3.250664949 -1.808999896 2.659635067
vn 0.02887229621 -0.001037642127 0.9995825887
v -3.250664949 0 2.713365078
vn -0.008337979205 0 0.9999652505
v -3.084887981 -1.808999896 2.659635067
vn 0 -0.0005299748736 0.9999998808
v 3.250664949 -0.01791300066 2.659635067
vn 0.8535174131 0 0.5210642815
v 3.316334009 -51.7410202 2.659635067
vn 0.3892316818 -0.02520153113 0.920795083
v 3.250664949 0 2.713365078
vn 0.004204601981 0 0.9999911785
v -3.250664949 -1.791090846 2.659635067
vn -0.891020596 0 0.4539628625
v -3.250664949 -1.808999896 2.659635067
vn -0.0001162315966 -0.001075909706 0.999999404
v -3.250664949 51.73740005 2.713365078
vn -0.3847635984 0.03127575666 0.9224851131
v -3.250664949 -0.5158690214 2.659635067
vn -0.02731313743 0 0.9996269345
v -3.316334963 -51.7410202 2.659635067
vn -0.8483613133 -0.02966152132 0.5285860896
v 3.250664949 -0.003618000075 2.659635067
vn 0.0002831804159 0 0.9999999404
v -3.250664949 0.5122510195 2.659635067
vn -0.9991680384 0 0.04078237712
v 3.250664949 51.73740005 2.713365078
vn 0.8453181386 0.02262165025 0.5337841511
v -3.250664949 -0.003618000075 2.659635067
vn -0.6332377791 0 0.7739573121
v 2.110394955 -51.7410202 1.477573991
vn 0.7091180086 -0.4906121194 0.5064103007
v 3.316334963 -0.003618000075 2.659635067
vn 0.9999802709 -1.811590167e-008 0.00628087949
v 3.250664949 0 2.659635067
vn 0.9999998808 0 0.000422928133
v -3.250664949 0 2.659635067
vn -0.6332377791 0 0.7739573121
v -3.250664949 1.787472963 2.659635067
vn -0.3228028417 0 0.9464662075
v 2.068603992 51.73740005 1.507424951
vn 0.2876325548 0.5422902107 0.7894231081
v -3.316334963 -0.003618000075 2.659635067
vn -0.9999224544 0 0.01245496608
v 2.110394001 -51.7410202 -1.477574944
vn 0.2787874341 -0.53671664 -0.7963747978
v -2.110394001 -51.7410202 1.477574944
vn -0.3049097955 -0.3852235377 0.8709953427
v 3.316334009 -51.7410202 -2.659635067
vn 0.8485298157 -0.02197586372 -0.5286910534
v -3.250664949 1.805382133 2.659635067
vn -0.9999990463 0.001314706169 0.0004470656568
v 3.250664949 51.73740005 -2.713365078
vn 0.3848369718 0.02443884872 -0.9226609468
v -2.068604946 51.73740005 1.507424951
vn -0.7916212678 0.279841572 0.543161571
v 3.250664949 0.01429099962 2.659635067
vn 0.3783080876 0 0.9256797433
v -3.316334963 -0.003618000075 -2.659635067
vn -0.9999802709 0 -0.00628087949
v 2.110394001 -55.75 -1.477574944
vn 0.8951784372 -0.3954727948 -0.2055647522
v 2.110394955 -55.75 0.6589490175
vn 0.6886799335 -0.7250654697 -2.22248147e-007
v -3.316334963 -51.7410202 -2.659635067
vn -0.3891527951 -0.03225141391 -0.9206084609
v 2.110394955 -55.75 1.477573991
vn 0.1029435843 -0.3912484944 0.9145092964
v -0.9411669374 -55.75 1.477574944
vn 1.81874654e-007 -0.5933505893 0.8049441576
v 3.316334963 -0.003618000075 -2.659635067
vn 0.9999224544 -1.72268706e-008 -0.01245496422
v -3.316334963 1.805382133 2.659635067
vn -0.9992510676 0.03663380072 0.01245856658
v -3.250664949 1.805382133 2.606969118
vn -0.9986040592 0.05281938612 0
v 3.250664949 1.805382133 -2.523998976
vn 0.9999997616 0.000647747016 0
v 2.068604946 51.73740005 -1.507424951
vn 0.7198418975 0.4877289832 -0.4939109981
v -2.068604946 55.75 1.507424951
vn -0.1068881899 0.3974787891 0.9113646746
v 0.9214950204 55.75 1.507424951
vn 0 0.6006883383 0.7994832993
v -2.068603992 51.73740005 -1.507424951
vn -0.3152299821 0.3900233507 -0.8651657701
v 3.250664949 1.805382133 2.659635067
vn 0.9999990463 0.001314698369 0.0004542651877
v -3.316334963 1.805382133 -2.659635067
vn -0.9992729425 0.03609585762 -0.01227563899
v 0.9411669374 -55.75 -1.477574944
vn 0 0 -1
v -2.110394955 -51.7410202 -1.477574944
vn -0.7807979584 -0.2818458378 -0.5575997829
v -2.110394001 -55.75 1.477574944
vn -0.9616339207 -0.162777245 0.2208252549
v 3.250664949 -0.5158690214 -2.659635067
vn 0.02731315047 0 -0.9996269345
v 3.316334963 1.805382133 2.659635067
vn 0.9992729425 0.03609585762 0.01227563899
v -3.250664949 1.805382133 2.523998976
vn -0.9999997616 0.000647747016 0
v 3.250664949 1.805382133 -2.606969118
vn 0.9986040592 0.05281938612 0
v 2.068603992 55.75 1.507424951
vn 0.9638952017 0.1599523127 0.2128881216
v 2.068604946 55.75 -0.6715080142
vn 1 -2.428564121e-011 3.163256395e-007
v -3.250664949 51.73740005 -2.713365078
vn -0.8451402783 0.0305327978 -0.5336718559
v 2.068604946 55.75 -1.507424951
vn 0.08804114908 0.6547867656 -0.7506684065
v -0.9214950204 55.75 -1.507424951
vn 0 0 -1
v -2.068603992 55.75 -1.507424951
vn -0.899520576 0.3890923858 -0.1986701936
v -2.068604946 55.75 0.6715080142
vn -0.696213901 0.7178344131 -2.202303051e-007
v -3.250664949 0.01429099962 -2.659635067
vn -0.3783080876 0 -0.9256797433
v -3.250664949 -0.003618000075 -2.659635067
vn -0.0002831804159 0 -0.9999999404
v -2.110394955 -55.75 -1.477574944
vn -0.08521921933 -0.6477707028 -0.7570540309
v 3.084887981 -1.808999896 -2.659635067
vn 0 -0.0005299748736 -0.9999998808
v -2.110394955 -55.75 -0.6589490175
vn -1 1.113884072e-011 3.227160619e-007
v 3.250664949 -0.003618000075 -2.659635067
vn 0.6332377791 0 -0.7739573121
v 3.250664949 -1.791090846 -2.659635067
vn 0.8910232782 0 -0.4539576173
v 3.316334963 1.805382133 -2.659635067
vn 0.9992510676 0.03663380072 -0.01245856658
v 3.250664949 1.805382133 -2.659635067
vn 0.9999990463 0.001314706169 -0.0004470656568
v -3.250664949 0 -2.713365078
vn -0.004204601981 0 -0.9999911785
v -3.250664949 0 -2.659635067
vn -0.9999998808 0 -0.000422928133
v -3.250664949 1.805382133 -2.659635067
vn -0.9999990463 0.001314698369 -0.0004542651877
v -3.250664949 -0.01791300066 -2.659635067
vn -0.8535140753 0 -0.5210698247
v -3.186295033 -1.808999896 -2.659635067
vn 0 -0.002180277603 -0.9999976158
v 3.250664949 -1.808999896 -2.659635067
vn 0.0001162315966 -0.001075909706 -0.999999404
v 3.250664949 0 -2.713365078
vn 0.008337979205 0 -0.9999652505
v 3.250664949 0 -2.659635067
vn 0.6332377791 0 -0.7739573121
v 3.250664949 1.787472963 -2.659635067
vn 0.3228028417 0 -0.9464662075
v -3.250664949 -1.808999896 -2.659635067
vn -0.02887228131 -0.001037641545 -0.9995825887
v 3.250664949 -1.808999896 -2.713365078
vn 0.008331451565 -0.05900388211 -0.9982230067
v 3.250664949 0.5122510195 -2.659635067
vn 0.9991680384 0 -0.04078237712
v -3.250664949 -1.808999896 -2.713365078
vn -0.008222344331 -0.01499559358 -0.9998537302
# mm_gid 0
g mmGroup0
f 1//1 2//2 3//3 
f 1//1 3//3 4//4 
f 1//1 5//5 2//2 
f 2//2 6//6 3//3 
f 7//7 1//1 4//4 
f 4//4 3//3 8//8 
f 9//9 5//5 1//1 
f 2//2 5//5 10//10 
f 11//11 6//6 2//2 
f 3//3 6//6 8//8 
f 7//7 4//4 8//8 
f 9//9 1//1 7//7 
f 5//5 9//9 12//12 
f 2//2 10//10 11//11 
f 10//10 5//5 13//13 
f 11//11 14//14 6//6 
f 8//8 6//6 14//14 
f 15//15 7//7 8//8 
f 9//9 7//7 15//15 
f 5//5 12//12 16//16 
f 12//12 9//9 17//17 
f 10//10 14//14 11//11 
f 13//13 14//14 10//10 
f 5//5 18//18 13//13 
f 8//8 14//14 19//19 
f 20//20 15//15 8//8 
f 21//21 9//9 15//15 
f 22//22 5//5 16//16 
f 16//16 12//12 23//23 
f 17//17 24//24 12//12 
f 9//9 21//21 17//17 
f 25//25 14//14 13//13 
f 22//22 18//18 5//5 
f 18//18 25//25 13//13 
f 26//26 8//8 19//19 
f 14//14 27//27 19//19 
f 28//28 20//20 8//8 
f 15//15 20//20 21//21 
f 25//25 22//22 16//16 
f 23//23 25//25 16//16 
f 23//23 12//12 29//29 
f 17//17 30//30 24//24 
f 24//24 31//31 12//12 
f 21//21 32//32 17//17 
f 25//25 33//33 14//14 
f 18//18 22//22 25//25 
f 28//28 8//8 26//26 
f 14//14 36//36 27//27 
f 39//39 20//20 28//28 
f 20//20 32//32 21//21 
f 40//40 25//25 23//23 
f 40//40 23//23 29//29 
f 29//29 12//12 41//41 
f 17//17 42//42 30//30 
f 24//24 30//30 43//43 
f 31//31 46//46 12//12 
f 32//32 47//47 17//17 
f 33//33 25//25 48//48 
f 14//14 33//33 36//36 
f 49//49 26//26 34//34 
f 35//35 19//19 37//37 
f 28//28 26//26 36//36 
f 50//50 27//27 36//36 
f 38//38 27//27 51//51 
f 39//39 28//28 52//52 
f 20//20 39//39 53//53 
f 20//20 53//53 32//32 
f 48//48 25//25 40//40 
f 41//41 40//40 29//29 
f 41//41 12//12 54//54 
f 47//47 42//42 17//17 
f 55//55 30//30 42//42 
f 30//30 58//58 43//43 
f 62//62 31//31 44//44 
f 45//45 24//24 56//56 
f 58//58 12//12 46//46 
f 32//32 53//53 47//47 
f 33//33 48//48 63//63 
f 33//33 64//64 36//36 
f 36//36 66//66 28//28 
f 26//26 50//50 36//36 
f 68//68 39//39 52//52 
f 52//52 28//28 69//69 
f 53//53 39//39 70//70 
f 40//40 41//41 48//48 
f 41//41 54//54 48//48 
f 58//58 54//54 12//12 
f 42//42 47//47 53//53 
f 55//55 42//42 53//53 
f 71//71 30//30 55//55 
f 57//57 43//43 59//59 
f 30//30 72//72 58//58 
f 58//58 46//46 43//43 
f 60//60 46//46 61//61 
f 33//33 63//63 73//73 
f 63//63 48//48 74//74 
f 64//64 33//33 73//73 
f 64//64 75//75 36//36 
f 67//67 50//50 65//65 
f 76//76 66//66 36//36 
f 77//77 28//28 66//66 
f 78//78 68//68 52//52 
f 68//68 79//79 39//39 
f 69//69 78//78 52//52 
f 69//69 28//28 77//77 
f 70//70 55//55 53//53 
f 70//70 39//39 80//80 
f 48//48 54//54 74//74 
f 74//74 54//54 58//58 
f 55//55 70//70 71//71 
f 80//80 30//30 71//71 
f 78//78 72//72 30//30 
f 72//72 73//73 58//58 
f 73//73 63//63 58//58 
f 63//63 74//74 58//58 
f 73//73 72//72 64//64 
f 72//72 75//75 64//64 
f 75//75 81//81 36//36 
f 81//81 76//76 36//36 
f 76//76 82//82 66//66 
f 77//77 66//66 82//82 
f 79//79 68//68 78//78 
f 39//39 79//79 83//83 
f 82//82 78//78 69//69 
f 82//82 69//69 77//77 
f 70//70 80//80 71//71 
f 80//80 39//39 83//83 
f 83//83 30//30 80//80 
f 78//78 30//30 83//83 
f 72//72 78//78 84//84 
f 72//72 84//84 75//75 
f 75//75 84//84 81//81 
f 81//81 84//84 76//76 
f 84//84 82//82 76//76 
f 79//79 78//78 83//83 
f 84//84 78//78 82//82 
f 34//34 26//26 19//19 
f 34//34 19//19 35//35 
f 37//37 19//19 27//27 
f 37//37 27//27 38//38 
f 44//44 31//31 24//24 
f 44//44 24//24 45//45 
f 56//56 24//24 43//43 
f 56//56 43//43 57//57 
f 59//59 60//60 61//61 
f 59//59 61//61 62//62 
f 59//59 62//62 44//44 
f 59//59 44//44 45//45 
f 59//59 45//45 56//56 
f 59//59 56//56 57//57 
f 61//61 46//46 31//31 
f 61//61 31//31 62//62 
f 65//65 50//50 26//26 
f 65//65 26//26 49//49 
f 51//51 27//27 50//50 
f 51//51 50//50 67//67 
f 59//59 43//43 46//46 
f 59//59 46//46 60//60 
f 65//65 49//49 34//34 
f 65//65 34//34 35//35 
f 65//65 35//35 37//37 
f 65//65 37//37 38//38 
f 65//65 38//38 51//51 
f 65//65 51//51 67//67 
