v 2.722500086 -1 2.272500038
vn 0.008221158758 -0.02271617949 0.9997081757
v -2.722500086 -1 2.272500038
vn -0.008312738501 -0.08919455856 0.9959795475
v 2.668588877 -1 2.227499962
vn 0 -0.0033032801 0.9999945164
v 2.722500086 -1 2.227499962
vn 0.02887242287 -0.001572107314 0.9995818734
v -2.722500086 0 2.272500038
vn -0.008337991312 0 0.9999652505
v -2.58365798 -1 2.227499962
vn 0 -0.0008029529708 0.999999702
v 2.722500086 -0.009902000427 2.227499962
vn 0.8535192013 0 0.5210614204
v 2.77749896 -28.60200119 2.227499962
vn 0.3890716732 -0.03816651925 0.9204165339
v 2.722500086 0 2.272500038
vn 0.004204608034 0 0.9999911785
v -2.722500086 -0.9901000261 2.227499962
vn -0.8910214901 0 0.453961134
v -2.722500086 -1 2.227499962
vn -0.000116231342 -0.00163008552 0.9999986887
v -2.722500086 28.60000038 2.272500038
vn -0.3845200241 0.04735513777 0.921901226
v -2.722500086 -0.2851679921 2.227499962
vn -0.02731326781 0 0.9996269345
v -2.777499914 -28.60200119 2.227499962
vn -0.8478782773 -0.04491385072 0.5282850862
v 2.722500086 -0.002000000095 2.227499962
vn 0.0002831773309 0 0.9999999404
v -2.722500086 0.2831679881 2.227499962
vn -0.9991680384 0 0.04078217968
v 2.722500086 28.60000038 2.272500038
vn 0.8450380564 0.03426215425 0.5336073637
v -2.722500086 -0.002000000095 2.227499962
vn -0.6332396269 0 0.773955822
v 1.767500043 -28.60200119 1.237498999
vn 0.7611612678 -0.3537769616 0.543576479
v 2.777499914 -0.002000000095 2.227499962
vn 0.9999802709 -3.277166627e-008 0.006280858535
v 2.722500086 0 2.227499962
vn 0.9999998808 0 0.0004229284532
v -2.722500086 0 2.227499962
vn -0.6332396269 0 0.773955822
v -2.722500086 0.9880999923 2.227499962
vn -0.3228042424 0 0.9464657307
v 1.732499003 28.60000038 1.262500048
vn 0.3140622973 0.3979799151 0.8619610667
v -2.777499914 -0.002000000095 2.227499962
vn -0.9999224544 0 0.0124549251
v 1.76749897 -28.60200119 -1.237499952
vn 0.3038314581 -0.3929506242 -0.8679149151
v -1.76749897 -28.60200119 1.237499952
vn -0.3181369901 -0.2700155675 0.9087796211
v 2.77749896 -28.60200119 -2.227499962
vn 0.8482645154 -0.03328468278 -0.5285257697
v -2.722500086 0.9979999661 2.227499962
vn -0.9999979138 0.001991869882 0.0004470660933
v 2.722500086 28.60000038 -2.272500038
vn 0.384688139 0.03701237962 -0.9223042727
v -1.732499838 28.60000038 1.262500048
vn -0.8091824651 0.192261681 0.555210948
v 2.722500086 0.007899999619 2.227499962
vn 0.3783096671 0 0.9256790876
v -2.777499914 -0.002000000095 -2.227499962
vn -0.9999802709 0 -0.006280858535
v 1.767500043 -33.59999847 -1.237499952
vn 0.7965624332 -0.3136260808 -0.5168433189
v 1.767500043 -33.59999847 -0.3087559938
vn 0.8164286613 -0.5774463415 0
v -2.777499914 -28.60200119 -2.227499962
vn -0.3888909221 -0.04883043841 -0.919988811
v 1.767500043 -33.59999847 1.237499952
vn 0.2931529284 -0.2540748119 0.9216872454
v 0.4409910142 -33.59999847 1.237499952
vn 0 -0.1826957315 0.9831694961
v 2.777499914 -0.002000000095 -2.227499962
vn 0.9999224544 -3.116340963e-008 -0.01245492324
v -2.777499914 0.9979999661 2.227499962
vn -0.9983836412 0.05545459688 0.01244771015
v -2.722500086 0.9979999661 2.183391094
vn -0.9968044162 0.07988099754 0
v 2.722500086 0.9979999661 -2.113902092
vn 0.9999995232 0.0009813819779 0
v 1.732499838 28.60000038 -1.262500048
vn 0.7719361782 0.351539731 -0.5296549201
v -0.4331249595 33.59999847 1.262500048
vn 0 0 1
v -1.262500048 33.59999847 1.262500048
vn 0 0.8369565606 0.5472693443
v -1.732499838 33.59999847 1.262500048
vn -0.3585411906 0.2686908543 0.894009769
v -1.732499003 28.60000038 -1.262500048
vn -0.3292585909 0.2738115788 -0.9036681056
v 2.722500086 0.9979999661 2.227499962
vn 0.9999979138 0.00199185824 0.0004542631214
v -2.777499914 0.9979999661 -2.227499962
vn -0.9984306693 0.05464167148 -0.01226525288
v -0.4409910142 -33.59999847 -1.237499952
vn 0 -0.2955540717 -0.9553260207
v -1.767500043 -28.60200119 -1.237499952
vn -0.798391521 -0.1936074942 -0.570164144
v -1.767500043 -33.59999847 1.237499952
vn -0.83462888 -0.1006309539 0.5415422916
v 2.722500086 -0.2851679921 -2.227499962
vn 0.02731328458 0 -0.9996269345
v 2.777499914 0.9979999661 2.227499962
vn 0.9984306693 0.05464167148 0.01226525288
v -2.722500086 0.9979999661 2.113902092
vn -0.9999995232 0.0009813819779 0
v 2.722500086 0.9979999661 -2.183391094
vn 0.9968044162 0.07988099754 0
v 1.732499838 33.59999847 1.262500048
vn 0.8404348493 0.1372964233 0.5242317915
v 1.732499838 33.59999847 0.3156250119
vn 0.8578710556 0.513864994 0
v -2.722500086 28.60000038 -2.272500038
vn -0.8446304202 0.04623158276 -0.5333499312
v 1.732499838 33.59999847 -1.262500048
vn 0.3585411906 0.2686908543 -0.894009769
v 1.262500048 33.59999847 -1.262500048
vn 0 0.8369565606 -0.5472693443
v 0.4331249595 33.59999847 -1.262500048
vn 0 0 -1
v -1.732499838 33.59999847 -1.262500048
vn -0.8404348493 0.1372964233 -0.5242317915
v -1.732499838 33.59999847 -0.3156250119
vn -0.8578710556 0.513864994 0
v -2.722500086 0.007899999619 -2.227499962
vn -0.3783096671 0 -0.9256790876
v -2.722500086 -0.002000000095 -2.227499962
vn -0.0002831773309 0 -0.9999999404
v -1.767500043 -33.59999847 -1.237499952
vn -0.3021230698 -0.08018591255 -0.9498904347
v 2.58365798 -1 -2.227499962
vn 0 -0.0008029529708 -0.999999702
v -1.767500043 -33.59999847 0.3087559938
vn -0.5772541761 -0.8165645003 0
v 2.722500086 -0.002000000095 -2.227499962
vn 0.6332396269 0 -0.773955822
v 2.722500086 -0.9901000261 -2.227499962
vn 0.8910246491 0 -0.4539548755
v 2.777499914 0.9979999661 -2.227499962
vn 0.9983836412 0.05545459688 -0.01244771015
v 2.722500086 0.9979999661 -2.227499962
vn 0.9999979138 0.001991869882 -0.0004470660933
v -2.722500086 0 -2.272500038
vn -0.004204608034 0 -0.9999911785
v -2.722500086 0 -2.227499962
vn -0.9999998808 0 -0.0004229284532
v -2.722500086 0.9979999661 -2.227499962
vn -0.9999979138 0.00199185824 -0.0004542631214
v -2.722500086 -0.009902000427 -2.227499962
vn -0.8535151482 0 -0.521067977
v -2.668588877 -1 -2.227499962
vn 0 -0.0033032801 -0.9999945164
v 2.722500086 -1 -2.227499962
vn 0.000116231342 -0.00163008552 -0.9999986887
v 2.722500086 0 -2.272500038
vn 0.008337991312 0 -0.9999652505
v 2.722500086 0 -2.227499962
vn 0.6332396269 0 -0.773955822
v 2.722500086 0.9880999923 -2.227499962
vn 0.3228042424 0 -0.9464657307
v -2.722500086 -1 -2.227499962
vn -0.02887240611 -0.001572106383 -0.9995818734
v 2.722500086 -1 -2.272500038
vn 0.008312738501 -0.08919455856 -0.9959795475
v 2.722500086 0.2831679881 -2.227499962
vn 0.9991680384 0 -0.04078217968
v -2.722500086 -1 -2.272500038
vn -0.008221158758 -0.02271617949 -0.9997081757
# mm_gid 0
g mmGroup0
f 1//1 2//2 3//3 
f 1//1 3//3 4//4 
f 1//1 5//5 2//2 
f 2//2 6//6 3//3 
f 7//7 1//1 4//4 
f 4//4 3//3 8//8 
f 9//9 5//5 1//1 
f 2//2 5//5 10//10 
f 11//11 6//6 2//2 
f 3//3 6//6 8//8 
f 7//7 4//4 8//8 
f 9//9 1//1 7//7 
f 5//5 9//9 12//12 
f 2//2 10//10 11//11 
f 10//10 5//5 13//13 
f 11//11 14//14 6//6 
f 8//8 6//6 14//14 
f 15//15 7//7 8//8 
f 9//9 7//7 15//15 
f 5//5 12//12 16//16 
f 12//12 9//9 17//17 
f 10//10 14//14 11//11 
f 13//13 14//14 10//10 
f 5//5 18//18 13//13 
f 8//8 14//14 19//19 
f 20//20 15//15 8//8 
f 21//21 9//9 15//15 
f 22//22 5//5 16//16 
f 16//16 12//12 23//23 
f 17//17 24//24 12//12 
f 9//9 21//21 17//17 
f 25//25 14//14 13//13 
f 22//22 18//18 5//5 
f 18//18 25//25 13//13 
f 26//26 8//8 19//19 
f 14//14 27//27 19//19 
f 28//28 20//20 8//8 
f 15//15 20//20 21//21 
f 25//25 22//22 16//16 
f 23//23 25//25 16//16 
f 23//23 12//12 29//29 
f 17//17 30//30 24//24 
f 24//24 31//31 12//12 
f 21//21 32//32 17//17 
f 25//25 33//33 14//14 
f 18//18 22//22 25//25 
f 28//28 8//8 26//26 
f 14//14 36//36 27//27 
f 39//39 20//20 28//28 
f 20//20 32//32 21//21 
f 40//40 25//25 23//23 
f 40//40 23//23 29//29 
f 29//29 12//12 41//41 
f 17//17 42//42 30//30 
f 24//24 30//30 43//43 
f 31//31 47//47 12//12 
f 32//32 48//48 17//17 
f 33//33 25//25 49//49 
f 14//14 33//33 36//36 
f 50//50 26//26 34//34 
f 35//35 19//19 37//37 
f 28//28 26//26 36//36 
f 51//51 27//27 36//36 
f 38//38 27//27 52//52 
f 39//39 28//28 53//53 
f 20//20 39//39 54//54 
f 20//20 54//54 32//32 
f 49//49 25//25 40//40 
f 41//41 40//40 29//29 
f 41//41 12//12 55//55 
f 48//48 42//42 17//17 
f 56//56 30//30 42//42 
f 30//30 59//59 43//43 
f 44//44 24//24 57//57 
f 64//64 31//31 46//46 
f 59//59 12//12 47//47 
f 32//32 54//54 48//48 
f 33//33 49//49 65//65 
f 33//33 66//66 36//36 
f 36//36 68//68 28//28 
f 26//26 51//51 36//36 
f 70//70 39//39 53//53 
f 53//53 28//28 71//71 
f 54//54 39//39 72//72 
f 40//40 41//41 49//49 
f 41//41 55//55 49//49 
f 59//59 55//55 12//12 
f 42//42 48//48 54//54 
f 56//56 42//42 54//54 
f 73//73 30//30 56//56 
f 58//58 43//43 60//60 
f 30//30 74//74 59//59 
f 59//59 47//47 43//43 
f 62//62 47//47 63//63 
f 33//33 65//65 75//75 
f 65//65 49//49 76//76 
f 66//66 33//33 75//75 
f 66//66 77//77 36//36 
f 69//69 51//51 67//67 
f 78//78 68//68 36//36 
f 79//79 28//28 68//68 
f 80//80 70//70 53//53 
f 70//70 81//81 39//39 
f 71//71 80//80 53//53 
f 71//71 28//28 79//79 
f 72//72 56//56 54//54 
f 72//72 39//39 82//82 
f 49//49 55//55 76//76 
f 76//76 55//55 59//59 
f 56//56 72//72 73//73 
f 82//82 30//30 73//73 
f 80//80 74//74 30//30 
f 74//74 75//75 59//59 
f 75//75 65//65 59//59 
f 65//65 76//76 59//59 
f 75//75 74//74 66//66 
f 74//74 77//77 66//66 
f 77//77 83//83 36//36 
f 83//83 78//78 36//36 
f 78//78 84//84 68//68 
f 79//79 68//68 84//84 
f 81//81 70//70 80//80 
f 39//39 81//81 85//85 
f 84//84 80//80 71//71 
f 84//84 71//71 79//79 
f 72//72 82//82 73//73 
f 82//82 39//39 85//85 
f 85//85 30//30 82//82 
f 80//80 30//30 85//85 
f 74//74 80//80 86//86 
f 74//74 86//86 77//77 
f 77//77 86//86 83//83 
f 83//83 86//86 78//78 
f 86//86 84//84 78//78 
f 81//81 80//80 85//85 
f 86//86 80//80 84//84 
f 34//34 26//26 19//19 
f 34//34 19//19 35//35 
f 37//37 19//19 27//27 
f 37//37 27//27 38//38 
f 24//24 44//44 45//45 
f 24//24 45//45 46//46 
f 24//24 46//46 31//31 
f 57//57 24//24 43//43 
f 57//57 43//43 58//58 
f 45//45 44//44 57//57 
f 45//45 57//57 58//58 
f 45//45 58//58 60//60 
f 45//45 60//60 61//61 
f 61//61 62//62 63//63 
f 61//61 63//63 64//64 
f 61//61 64//64 46//46 
f 61//61 46//46 45//45 
f 63//63 47//47 31//31 
f 63//63 31//31 64//64 
f 67//67 51//51 26//26 
f 67//67 26//26 50//50 
f 52//52 27//27 51//51 
f 52//52 51//51 69//69 
f 47//47 62//62 61//61 
f 47//47 61//61 60//60 
f 47//47 60//60 43//43 
f 69//69 67//67 50//50 
f 69//69 50//50 34//34 
f 69//69 34//34 35//35 
f 69//69 35//35 37//37 
f 69//69 37//37 38//38 
f 69//69 38//38 52//52 
