# This file uses centimeters as units for non-parametric coordinates.

v 1.250000 28.599998 1.750000
v 1.250000 28.599998 -1.750000
v -1.250000 28.599998 -1.750000
v -1.250000 28.599998 1.750000
v 1.250000 32.599998 1.750000
v 1.250000 32.599998 -1.750000
v -1.250000 32.599998 -1.750000
v -1.250000 32.599998 1.750000
v 2.250000 14.300000 2.750000
v 2.250000 14.300000 -2.750000
v -2.250000 14.300000 2.750000
v -2.250000 14.300000 -2.750000
v 2.250000 28.599998 2.750000
v 2.250000 28.599998 -2.750000
v -2.250000 28.599998 -2.750000
v -2.250000 28.599998 2.750000
v -2.250000 0.000000 -2.750000
v 2.250000 0.000000 -2.750000
v 2.250000 0.000000 2.750000
v -2.250000 0.000000 2.750000
v -2.250000 0.000000 -0.000000
v 2.250000 0.000000 0.000000
v 1.250000 -28.599998 1.750000
v 1.250000 -28.599998 -1.750000
v -1.250000 -28.599998 -1.750000
v -1.250000 -28.599998 1.750000
v 1.250000 -32.599998 1.750000
v 1.250000 -32.599998 -1.750000
v -1.250000 -32.599998 -1.750000
v -1.250000 -32.599998 1.750000
v 2.250000 -14.300000 2.750000
v 2.250000 -14.300000 -2.750000
v -2.250000 -14.300000 2.750000
v -2.250000 -14.300000 -2.750000
v 2.250000 -28.599998 2.750000
v 2.250000 -28.599998 -2.750000
v -2.250000 -28.599998 -2.750000
v -2.250000 -28.599998 2.750000
vt 0.000000 0.000000
vt 1.000000 0.000000
vt 1.000000 0.618826
vt 0.000000 0.618826
vt 0.000000 0.000000
vt 0.000000 0.618826
vt 1.000000 0.618826
vt 1.000000 0.000000
vt 0.000000 0.000000
vt 1.000000 0.000000
vt 1.000000 0.618826
vt 0.000000 0.618826
vt 0.000000 0.000000
vt 1.000000 0.000000
vt 1.000000 0.000000
vt 0.000000 0.000000
vt 1.000000 0.618826
vt 1.000000 0.618826
vt 0.000000 0.618826
vt 0.000000 0.618826
vt 0.000000 0.000000
vt 1.000000 0.000000
vt 1.000000 0.618826
vt 0.000000 0.618826
vt 0.000000 0.000000
vt 0.000000 0.618826
vt 0.000000 0.618826
vt 0.000000 0.000000
vt 1.000000 0.618826
vt 1.000000 0.618826
vt 0.500000 0.618826
vt 1.000000 0.000000
vt 1.000000 0.000000
vt 0.500000 0.000000
vt 0.000000 0.000000
vt 0.000000 0.618826
vt 1.000000 0.618826
vt 1.000000 0.000000
vt 0.000000 0.000000
vt 1.000000 0.000000
vt 1.000000 0.618826
vt 0.000000 0.618826
vt 0.000000 0.000000
vt 1.000000 0.000000
vt 1.000000 0.618826
vt 0.000000 0.618826
vt 0.000000 0.000000
vt 0.000000 0.000000
vt 1.000000 0.000000
vt 1.000000 0.000000
vt 1.000000 0.618826
vt 1.000000 0.618826
vt 0.000000 0.618826
vt 0.000000 0.618826
vt 0.000000 0.000000
vt 0.000000 0.618826
vt 1.000000 0.618826
vt 1.000000 0.000000
vt 0.000000 0.000000
vt 0.000000 0.000000
vt 0.000000 0.618826
vt 0.000000 0.618826
vt 0.500000 0.618826
vt 1.000000 0.618826
vt 1.000000 0.618826
vt 1.000000 0.000000
vt 1.000000 0.000000
vt 0.500000 0.000000
vn 0.000000 1.000000 0.000000
vn 0.000000 1.000000 0.000000
vn 0.000000 1.000000 0.000000
vn 0.000000 1.000000 0.000000
vn 0.000000 -1.000000 0.000000
vn 0.000000 -1.000000 0.000000
vn 0.000000 -1.000000 0.000000
vn 0.000000 -1.000000 0.000000
vn 1.000000 0.000000 0.000000
vn 1.000000 0.000000 0.000000
vn 1.000000 0.000000 0.000000
vn 1.000000 0.000000 0.000000
vn 0.000000 0.000000 -1.000000
vn 0.000000 0.000000 -1.000000
vn 0.000000 0.000000 -1.000000
vn 0.000000 0.000000 -1.000000
vn -1.000000 0.000000 -0.000000
vn -1.000000 0.000000 -0.000000
vn -1.000000 0.000000 -0.000000
vn -1.000000 0.000000 -0.000000
vn -0.000000 0.000000 1.000000
vn -0.000000 0.000000 1.000000
vn -0.000000 0.000000 1.000000
vn -0.000000 0.000000 1.000000
vn 1.000000 0.000000 0.000000
vn 1.000000 0.000000 0.000000
vn 1.000000 0.000000 0.000000
vn 1.000000 0.000000 0.000000
vn 0.000000 0.000000 -1.000000
vn 0.000000 0.000000 -1.000000
vn 0.000000 0.000000 -1.000000
vn 0.000000 0.000000 -1.000000
vn -1.000000 0.000000 -0.000000
vn -1.000000 0.000000 -0.000000
vn -1.000000 0.000000 -0.000000
vn -1.000000 0.000000 -0.000000
vn -0.000000 0.000000 1.000000
vn -0.000000 0.000000 1.000000
vn -0.000000 0.000000 1.000000
vn -0.000000 0.000000 1.000000
vn 0.000000 1.000000 0.000000
vn 0.000000 1.000000 0.000000
vn 0.000000 1.000000 0.000000
vn 0.000000 1.000000 0.000000
vn -0.000000 0.000000 1.000000
vn -0.000000 0.000000 1.000000
vn -0.000000 0.000000 1.000000
vn -0.000000 0.000000 1.000000
vn -1.000000 0.000000 -0.000000
vn -1.000000 0.000000 -0.000000
vn -1.000000 0.000000 -0.000000
vn -1.000000 0.000000 -0.000000
vn -1.000000 0.000000 -0.000000
vn 0.000000 0.000000 -1.000000
vn 0.000000 0.000000 -1.000000
vn 0.000000 0.000000 -1.000000
vn 0.000000 0.000000 -1.000000
vn 1.000000 0.000000 0.000000
vn 1.000000 0.000000 0.000000
vn 1.000000 0.000000 0.000000
vn 1.000000 0.000000 0.000000
vn 1.000000 0.000000 0.000000
vn 0.000000 -1.000000 0.000000
vn 0.000000 -1.000000 0.000000
vn 0.000000 -1.000000 0.000000
vn 0.000000 -1.000000 0.000000
vn 0.000000 -1.000000 0.000000
vn 0.000000 -1.000000 0.000000
vn 0.000000 -1.000000 0.000000
vn 0.000000 -1.000000 0.000000
vn 0.000000 1.000000 0.000000
vn 0.000000 1.000000 0.000000
vn 0.000000 1.000000 0.000000
vn 0.000000 1.000000 0.000000
vn 1.000000 0.000000 0.000000
vn 1.000000 0.000000 0.000000
vn 1.000000 0.000000 0.000000
vn 1.000000 0.000000 0.000000
vn 0.000000 0.000000 -1.000000
vn 0.000000 0.000000 -1.000000
vn 0.000000 0.000000 -1.000000
vn 0.000000 0.000000 -1.000000
vn -1.000000 0.000000 -0.000000
vn -1.000000 0.000000 -0.000000
vn -1.000000 0.000000 -0.000000
vn -1.000000 0.000000 -0.000000
vn -0.000000 0.000000 1.000000
vn -0.000000 0.000000 1.000000
vn -0.000000 0.000000 1.000000
vn -0.000000 0.000000 1.000000
vn 1.000000 0.000000 0.000000
vn 1.000000 0.000000 0.000000
vn 1.000000 0.000000 0.000000
vn 1.000000 0.000000 0.000000
vn 0.000000 -0.000000 -1.000000
vn 0.000000 -0.000000 -1.000000
vn 0.000000 -0.000000 -1.000000
vn 0.000000 -0.000000 -1.000000
vn -1.000000 0.000000 -0.000000
vn -1.000000 0.000000 -0.000000
vn -1.000000 0.000000 -0.000000
vn -1.000000 0.000000 -0.000000
vn -0.000000 0.000000 1.000000
vn -0.000000 0.000000 1.000000
vn -0.000000 0.000000 1.000000
vn -0.000000 0.000000 1.000000
vn 0.000000 -1.000000 0.000000
vn 0.000000 -1.000000 0.000000
vn 0.000000 -1.000000 0.000000
vn 0.000000 -1.000000 0.000000
vn -0.000000 0.000000 1.000000
vn -0.000000 0.000000 1.000000
vn -0.000000 0.000000 1.000000
vn -0.000000 0.000000 1.000000
vn -1.000000 0.000000 -0.000000
vn -1.000000 0.000000 -0.000000
vn -1.000000 0.000000 -0.000000
vn -1.000000 0.000000 -0.000000
vn -1.000000 0.000000 -0.000000
vn 0.000000 -0.000000 -1.000000
vn 0.000000 0.000000 -1.000000
vn 0.000000 0.000000 -1.000000
vn 0.000000 -0.000000 -1.000000
vn 1.000000 0.000000 0.000000
vn 1.000000 0.000000 0.000000
vn 1.000000 0.000000 0.000000
vn 1.000000 0.000000 0.000000
vn 1.000000 0.000000 0.000000
vn 0.000000 1.000000 0.000000
vn 0.000000 1.000000 0.000000
vn 0.000000 1.000000 0.000000
vn 0.000000 1.000000 0.000000
f 5/1/1 6/2/2 7/3/3 8/4/4
f 1/5/5 4/6/6 3/7/7 2/8/8
f 1/9/9 2/10/10 6/2/11 5/1/12
f 2/10/13 3/11/14 7/3/15 6/2/16
f 3/11/17 4/12/18 8/4/19 7/3/20
f 4/12/21 1/9/22 5/1/23 8/4/24
f 9/13/25 10/14/26 14/15/27 13/16/28
f 10/14/29 12/17/30 15/18/31 14/15/32
f 12/17/33 11/19/34 16/20/35 15/18/36
f 11/19/37 9/13/38 13/16/39 16/20/40
f 13/21/41 14/22/42 15/23/43 16/24/44
f 9/25/45 11/26/46 20/27/47 19/28/48
f 11/26/49 12/29/50 17/30/51 21/31/52 20/27/53
f 12/29/54 10/32/55 18/33/56 17/30/57
f 10/32/58 9/25/59 19/28/60 22/34/61 18/33/62
f 22/34/63 21/31/64 17/30/65 18/33/66
f 27/35/67 30/36/68 29/37/69 28/38/70
f 23/39/71 24/40/72 25/41/73 26/42/74
f 23/43/75 27/35/76 28/38/77 24/44/78
f 24/44/79 28/38/80 29/37/81 25/45/82
f 25/45/83 29/37/84 30/36/85 26/46/86
f 26/46/87 30/36/88 27/35/89 23/43/90
f 31/47/91 35/48/92 36/49/93 32/50/94
f 32/50/95 36/49/96 37/51/97 34/52/98
f 34/52/99 37/51/100 38/53/101 33/54/102
f 33/54/103 38/53/104 35/48/105 31/47/106
f 35/55/107 38/56/108 37/57/109 36/58/110
f 31/59/111 19/60/112 20/61/113 33/62/114
f 33/62/115 20/61/116 21/63/117 17/64/118 34/65/119
f 34/65/120 17/64/121 18/66/122 32/67/123
f 32/67/124 18/66/125 22/68/126 19/60/127 31/59/128
f 22/68/129 18/66/130 17/64/131 21/63/132
