v -2.722500086 -0.5 2.272500038
vn -0.008215279318 -0.1762976646 0.98430264
v -2.722500086 -0.5 2.227499962
vn -0.0001162308763 -0.003260158235 0.9999946952
v -2.58365798 -0.5 2.227499962
vn 0 -0.001605904545 0.9999986887
v 2.668589354 -0.5 2.227499962
vn 0 -0.006606451701 0.9999781847
v 2.722500086 -0.5 2.272500038
vn 0.008214803413 -0.04539723322 0.9989352226
v -2.722500086 -8.333528312e-012 2.272500038
vn -0.008337991312 0 0.9999652505
v -2.722500086 -0.4950500131 2.227499962
vn -0.8910214901 0 0.453961134
v 2.722500086 -0.5 2.227499962
vn 0.0288723167 -0.003144202987 0.9995781779
v 2.722500086 -8.333528312e-012 2.272500038
vn 0.004204608034 0 0.9999911785
v -2.722500086 -8.333528312e-012 2.227499962
vn -0.6332396269 0 0.773955822
v -2.722500086 -0.001000000047 2.227499962
vn -0.6332396269 0 0.773955822
v -2.722500086 -0.1425839961 2.227499962
vn -0.02731326781 0 0.9996269345
v 2.722500086 -0.004951000214 2.227499962
vn 0.8535192013 0 0.5210614204
v -2.722500086 14.30000019 2.272500038
vn -0.3832330704 0.09439327568 0.918815732
v -2.722500086 0.141583994 2.227499962
vn -0.9991680384 0 0.04078217968
v 2.722500086 -8.333528312e-012 2.227499962
vn 0.9999998808 0 0.0004229284532
v 2.722500086 -0.001000000047 2.227499962
vn 0.0002831773309 0 0.9999999404
v -2.722500086 14.30000019 -2.272500038
vn -0.8419354558 0.09216812253 -0.531648159
v -2.722500086 0.4990000129 2.113902092
vn -0.9999980927 0.001962761162 0
v -2.722500086 0.4990000129 2.183391094
vn -0.987398386 0.1582544446 0
v -2.722500086 0.4990000129 2.227499962
vn -0.9999919534 0.003983716015 0.0004470634449
v -2.722500086 0.4940499961 2.227499962
vn -0.3228042424 0 0.9464657307
v 2.722500086 14.30000019 2.272500038
vn 0.8435540199 0.06840393692 0.5326701999
v 2.722500086 0.003949999809 2.227499962
vn 0.3783096671 0 0.9256790876
v 2.722500086 0.4990000129 2.227499962
vn 0.9999919534 0.003983692732 0.0004542604147
v 2.722500086 0.4990000129 -2.113902092
vn 0.9999980927 0.001962761162 0
v -1.732499957 14.30000019 -1.262500048
vn -0.502283752 0.5221243501 -0.6892729998
v -2.722500086 -8.333528312e-012 -2.272500038
vn -0.004204608034 0 -0.9999911785
v -2.722500086 -8.333528312e-012 -2.227499962
vn -0.9999998808 0 -0.0004229284532
v -2.722500086 0.003949999809 -2.227499962
vn -0.3783096671 0 -0.9256790876
v -2.722500086 0.4990000129 -2.227499962
vn -0.9999919534 0.003983692732 -0.0004542604147
v 1.732499957 14.30000019 1.262500048
vn 0.4306423366 0.6821379662 0.5909610391
v 2.722500086 0.4990000129 -2.183391094
vn 0.987398386 0.1582544446 0
v 2.722500086 0.4990000129 -2.227499962
vn 0.9999919534 0.003983716015 -0.0004470634449
v 2.722500086 0.4940499961 -2.227499962
vn 0.3228042424 0 -0.9464657307
v 2.722500086 0.141583994 -2.227499962
vn 0.9991680384 0 -0.04078217968
v 2.722500086 -8.333528312e-012 -2.272500038
vn 0.008337991312 0 -0.9999652505
v 2.722500086 14.30000019 -2.272500038
vn 0.3839000762 0.07387309521 -0.920414865
v 1.732499957 14.30000019 -1.262500048
vn 0.4891555607 0.5569034815 -0.6712565422
v -1.732499957 14.30000019 1.262500048
vn -0.5559006929 0.3302049637 0.7628493309
v -2.722500086 -0.004951000214 -2.227499962
vn -0.8535151482 0 -0.521067977
v -2.722500086 -0.001000000047 -2.227499962
vn -0.0002831773309 0 -0.9999999404
v 2.722500086 -8.333528312e-012 -2.227499962
vn 0.6332396269 0 -0.773955822
v -1.732499003 14.30000019 -1.262500048
vn 0 0 -1
v -1.732499957 14.30000019 1.262498975
vn -1 0 0
v -2.722500086 -0.5 -2.272500038
vn -0.008214803413 -0.04539723322 -0.9989352226
v -2.722500086 -0.5 -2.227499962
vn -0.02887229808 -0.003144201124 -0.9995781779
v 1.732499003 14.30000019 1.262500048
vn 0 0 1
v 2.722500086 -0.001000000047 -2.227499962
vn 0.6332396269 0 -0.773955822
v 2.722500086 -0.1425839961 -2.227499962
vn 0.02731328458 0 -0.9996269345
v 2.722500086 -0.4950500131 -2.227499962
vn 0.8910246491 0 -0.4539548755
v 2.722500086 -0.5 -2.272500038
vn 0.008215279318 -0.1762976646 -0.98430264
v 1.732499957 18.29999924 -1.262500048
vn 0.3282136023 0.2843151093 -0.9008000493
v -1.732499957 18.29999924 -1.262500048
vn -0.6709784269 0.5812351704 -0.4603842199
v -2.668589354 -0.5 -2.227499962
vn 0 -0.006606451701 -0.9999781847
v 1.732499957 14.30000019 -1.262498975
vn 1 0 0
v -1.732499957 18.29999924 1.262500048
vn -0.3282136023 0.2843151093 0.9008000493
v 2.722500086 -0.5 -2.227499962
vn 0.0001162308836 -0.003260158235 -0.9999946952
v 1.732499957 18.29999924 1.262500048
vn 0.6709784269 0.5812351704 0.4603842199
v 2.58365798 -0.5 -2.227499962
vn 0 -0.001605904545 -0.9999986887
v -2.777499914 0.4990000129 -2.227499962
vn -0.9939889908 0.1087971628 -0.01221068669
v -2.777499914 0.4990000129 2.227499962
vn -0.9938098788 0.1104011014 0.01239068527
v -2.777499914 -0.001000000047 -2.227499962
vn -0.9999802709 0 -0.006280858535
v -2.777499914 -0.001000000047 2.227499962
vn -0.9999224544 0 0.0124549251
v -2.777499914 -14.3010006 -2.227499962
vn -0.3875074089 -0.09731341898 -0.91671592
v -2.777499914 -14.3010006 2.227499962
vn -0.8453242779 -0.08955707401 0.526693821
v 2.777499914 -0.001000000047 -2.227499962
vn 0.9999224544 -6.232681926e-008 -0.01245492324
v 2.777498722 -14.3010006 -2.227499962
vn 0.8468583822 -0.06645898521 -0.527649641
v 2.777498722 -14.3010006 2.227499962
vn 0.3882243335 -0.076166749 0.9184119701
v -1.767500043 -14.3010006 1.237499952
vn -0.4900162816 -0.5196624994 0.6998820901
v 1.767500043 -14.3010006 -1.237499952
vn 0.4206490815 -0.6797691584 -0.6008062959
v 2.777499914 -0.001000000047 2.227499962
vn 0.9999802709 -6.554333254e-008 0.006280858535
v 1.767500043 -14.3010006 1.237499952
vn 0.477324456 -0.5544122458 0.6817539334
v -1.767500043 -14.3010006 -1.237499952
vn -0.5417506695 -0.3283010423 -0.7737730145
v 2.777499914 0.4990000129 -2.227499962
vn 0.9938098788 0.1104011014 -0.01239068527
v 2.777499914 0.4990000129 2.227499962
vn 0.9939889908 0.1087971628 0.01221068669
v -1.76749897 -14.3010006 1.237499952
vn 0 0 1
v -1.767500043 -14.3010006 -1.237499952
vn -1 0 0
v 1.76749897 -14.3010006 -1.237499952
vn 0 0 -1
v 1.767500043 -14.3010006 1.237498999
vn 1 0 0
v 1.767500043 -18.30099869 1.237499952
vn 0.3171650469 -0.2802947462 0.9060028791
v -1.767500043 -18.30099869 1.237499952
vn -0.6606724858 -0.5838696361 0.4718136191
v -1.767500043 -18.30099869 -1.237499952
vn -0.3171650469 -0.2802947462 -0.9060028791
v 1.767500043 -18.30099869 -1.237499952
vn 0.6606724858 -0.5838696361 -0.4718136191
# mm_gid 0
g mmGroup0
f 5//5 1//1 4//4 
f 2//2 3//3 1//1 
f 1//1 3//3 4//4 
f 5//5 6//6 1//1 
f 1//1 7//7 2//2 
f 5//5 4//4 8//8 
f 9//9 6//6 5//5 
f 1//1 6//6 7//7 
f 7//7 6//6 12//12 
f 10//10 11//11 6//6 
f 6//6 11//11 12//12 
f 9//9 5//5 13//13 
f 13//13 5//5 8//8 
f 6//6 9//9 14//14 
f 10//10 6//6 15//15 
f 16//16 9//9 17//17 
f 9//9 13//13 17//17 
f 6//6 14//14 15//15 
f 15//15 14//14 22//22 
f 22//22 14//14 21//21 
f 21//21 14//14 20//20 
f 20//20 14//14 19//19 
f 18//18 19//19 14//14 
f 14//14 9//9 23//23 
f 9//9 16//16 23//23 
f 16//16 24//24 23//23 
f 24//24 25//25 23//23 
f 25//25 26//26 23//23 
f 18//18 14//14 27//27 
f 28//28 29//29 18//18 
f 29//29 30//30 18//18 
f 30//30 31//31 18//18 
f 31//31 19//19 18//18 
f 23//23 32//32 14//14 
f 37//37 38//38 36//36 
f 36//36 38//38 35//35 
f 35//35 38//38 34//34 
f 34//34 38//38 33//33 
f 33//33 38//38 26//26 
f 23//23 26//26 38//38 
f 18//18 27//27 39//39 
f 40//40 27//27 14//14 
f 38//38 28//28 18//18 
f 29//29 28//28 42//42 
f 28//28 41//41 42//42 
f 23//23 38//38 32//32 
f 32//32 40//40 14//14 
f 43//43 37//37 36//36 
f 37//37 28//28 38//38 
f 38//38 18//18 39//39 
f 44//44 39//39 27//27 
f 45//45 27//27 40//40 
f 28//28 46//46 41//41 
f 41//41 46//46 47//47 
f 32//32 38//38 39//39 
f 48//48 40//40 32//32 
f 52//52 37//37 51//51 
f 51//51 37//37 50//50 
f 43//43 49//49 37//37 
f 37//37 49//49 50//50 
f 28//28 37//37 46//46 
f 44//44 27//27 53//53 
f 44//44 53//53 39//39 
f 45//45 40//40 54//54 
f 45//45 54//54 27//27 
f 47//47 46//46 55//55 
f 56//56 32//32 39//39 
f 48//48 32//32 57//57 
f 48//48 57//57 40//40 
f 46//46 37//37 52//52 
f 52//52 51//51 58//58 
f 27//27 54//54 53//53 
f 39//39 53//53 59//59 
f 40//40 57//57 54//54 
f 46//46 52//52 55//55 
f 58//58 60//60 52//52 
f 55//55 52//52 60//60 
f 56//56 39//39 59//59 
f 56//56 59//59 32//32 
f 32//32 59//59 57//57 
f 54//54 59//59 53//53 
f 57//57 59//59 54//54 
f 62//62 20//20 61//61 
f 20//20 19//19 61//61 
f 61//61 19//19 31//31 
f 63//63 61//61 30//30 
f 30//30 61//61 31//31 
f 61//61 64//64 62//62 
f 20//20 62//62 21//21 
f 42//42 63//63 29//29 
f 63//63 30//30 29//29 
f 63//63 64//64 61//61 
f 62//62 64//64 22//22 
f 22//22 64//64 15//15 
f 11//11 10//10 64//64 
f 64//64 10//10 15//15 
f 62//62 22//22 21//21 
f 63//63 42//42 65//65 
f 42//42 41//41 65//65 
f 41//41 47//47 65//65 
f 47//47 55//55 65//65 
f 55//55 60//60 65//65 
f 64//64 63//63 66//66 
f 11//11 64//64 12//12 
f 66//66 63//63 65//65 
f 67//67 68//68 50//50 
f 50//50 68//68 51//51 
f 51//51 68//68 58//58 
f 58//58 68//68 60//60 
f 65//65 60//60 68//68 
f 64//64 66//66 12//12 
f 12//12 66//66 7//7 
f 7//7 66//66 2//2 
f 2//2 66//66 3//3 
f 69//69 3//3 66//66 
f 66//66 65//65 70//70 
f 68//68 71//71 65//65 
f 49//49 67//67 50//50 
f 67//67 72//72 68//68 
f 69//69 66//66 73//73 
f 72//72 17//17 69//69 
f 17//17 13//13 69//69 
f 13//13 8//8 69//69 
f 8//8 4//4 69//69 
f 4//4 3//3 69//69 
f 66//66 70//70 73//73 
f 74//74 70//70 65//65 
f 68//68 69//69 71//71 
f 71//71 74//74 65//65 
f 75//75 67//67 35//35 
f 35//35 67//67 36//36 
f 49//49 43//43 67//67 
f 67//67 43//43 36//36 
f 72//72 67//67 76//76 
f 68//68 72//72 69//69 
f 71//71 69//69 73//73 
f 17//17 72//72 16//16 
f 72//72 24//24 16//16 
f 77//77 73//73 70//70 
f 78//78 70//70 74//74 
f 79//79 74//74 71//71 
f 76//76 67//67 75//75 
f 75//75 35//35 34//34 
f 72//72 76//76 24//24 
f 24//24 76//76 25//25 
f 80//80 71//71 73//73 
f 77//77 70//70 81//81 
f 77//77 81//81 73//73 
f 78//78 74//74 82//82 
f 78//78 82//82 70//70 
f 79//79 71//71 83//83 
f 79//79 83//83 74//74 
f 75//75 33//33 76//76 
f 33//33 26//26 76//76 
f 26//26 25//25 76//76 
f 33//33 75//75 34//34 
f 80//80 73//73 84//84 
f 80//80 84//84 71//71 
f 70//70 82//82 81//81 
f 73//73 81//81 84//84 
f 74//74 83//83 82//82 
f 71//71 84//84 83//83 
f 82//82 84//84 81//81 
f 83//83 84//84 82//82 
