v 2.722500086 -1.808999896 2.272500038
vn 0.00822263211 -0.01255956478 0.9998872876
v -2.722500086 -1.808999896 2.272500038
vn -0.008335796185 -0.04944276437 0.9987421632
v 2.668589115 -1.808999896 2.227499962
vn 0 -0.001826032298 0.9999983311
v 2.722500086 -1.808999896 2.227499962
vn 0.02887244336 -0.0008690484683 0.9995827079
v -2.722500086 0 2.272500038
vn -0.008337991312 0 0.9999652505
v -2.58365798 -1.808999896 2.227499962
vn 0 -0.0004438657779 0.9999998808
v 2.722500086 -0.01791300066 2.227499962
vn 0.8535192013 0 0.5210614204
v 2.77749896 -51.7410202 2.227499962
vn 0.3892686069 -0.02110881172 0.9208824039
v 2.722500086 0 2.272500038
vn 0.004204608034 0 0.9999911785
v -2.722500086 -1.791090846 2.227499962
vn -0.8910214901 0 0.4539611042
v -2.722500086 -1.808999896 2.227499962
vn -0.0001162314293 -0.0009010984213 0.9999995828
v -2.722500086 51.73740005 2.272500038
vn -0.3848197758 0.02619792894 0.9226198792
v -2.722500086 -0.5158690214 2.227499962
vn -0.02731326967 0 0.9996269345
v -2.777499914 -51.7410202 2.227499962
vn -0.848472774 -0.02484540828 0.528655529
v 2.722500086 -0.003618000075 2.227499962
vn 0.0002831817837 0 0.9999999404
v -2.722500086 0.5122510195 2.227499962
vn -0.9991680384 0 0.04078218341
v 2.722500086 51.73740005 2.272500038
vn 0.8453826904 0.01894755475 0.5338249803
v -2.722500086 -0.003618000075 2.227499962
vn -0.6332396269 0 0.773955822
v 1.767500162 -51.7410202 1.237498999
vn 0.7360588908 -0.4265086651 0.525649786
v 2.777499914 -0.003618000075 2.227499962
vn 0.9999802709 -1.811590167e-008 0.006280858535
v 2.722500086 0 2.227499962
vn 0.9999998808 0 0.0004229260958
v -2.722500086 0 2.227499962
vn -0.6332396269 0 0.773955822
v -2.722500086 1.787472963 2.227499962
vn -0.3228042126 0 0.9464657903
v 1.732499003 51.73740005 1.262500048
vn 0.3011569977 0.4755348563 0.8265416026
v -2.777499914 -0.003618000075 2.227499962
vn -0.9999224544 0 0.0124549251
v 1.767498851 -51.7410202 -1.237499952
vn 0.2916091084 -0.4701847732 -0.8330008388
v -1.767498851 -51.7410202 1.237499952
vn -0.3118973672 -0.3300265372 0.8909559846
v 2.77749896 -51.7410202 -2.227499962
vn 0.84859097 -0.01840657555 -0.5287292004
v -2.722500086 1.805382133 2.227499962
vn -0.9999992847 0.001101090573 0.0004470639687
v 2.722500086 51.73740005 -2.272500038
vn 0.3848712444 0.02046987228 -0.9227432609
v -1.732499957 51.73740005 1.262500048
vn -0.8010410666 0.2371620387 0.5496247411
v 2.722500086 0.01429099962 2.227499962
vn 0.3783096671 0 0.9256790876
v -2.777499914 -0.003618000075 -2.227499962
vn -0.9999802709 0 -0.006280858535
v 1.767498851 -55.75 -1.237499952
vn 0.916839838 -0.3392315209 -0.2105390728
v 1.767500162 -55.75 0.5518839955
vn 0.7500546575 -0.6613758802 -3.251400642e-007
v -2.777499914 -51.7410202 -2.227499962
vn -0.389213264 -0.02701542899 -0.9207514524
v 1.767500162 -55.75 1.237498999
vn 0.1053797454 -0.3354333639 0.9361514449
v -0.7882469893 -55.75 1.237499952
vn 2.295578838e-007 -0.525318563 0.8509056568
v 2.777499914 -0.003618000075 -2.227499962
vn 0.9999224544 -1.72268706e-008 -0.01245492324
v -2.777499914 1.805382133 2.227499962
vn -0.9994513392 0.03068762086 0.01246102154
v -2.722500086 1.805382133 2.183391094
vn -0.9990202188 0.04425570369 0
v 2.722500086 1.805382133 -2.113902092
vn 0.9999998808 0.0005424999399 0
v 1.732499957 51.73740005 -1.262500048
vn 0.7468514442 0.4238100648 -0.5124431252
v -1.732499957 55.75 1.262500048
vn -0.1095019728 0.341037184 0.9336503148
v 0.7717710137 55.75 1.262500048
vn 0 0.5325939655 0.8463708758
v -1.732499003 51.73740005 -1.262500048
vn -0.3226417303 0.3343330324 -0.8855076432
v 2.722500086 1.805382133 2.227499962
vn 0.9999992847 0.001101084054 0.0004542637907
v -2.777499914 1.805382133 -2.227499962
vn -0.9994673729 0.03023681603 -0.01227798685
v 0.7882469893 -55.75 -1.237499952
vn 0 0 -1
v -1.767500162 -51.7410202 -1.237499952
vn -0.7902249694 -0.2389017195 -0.5643318892
v -1.767498851 -55.75 1.237499952
vn -0.9654602408 -0.13687177 0.2217039913
v 2.722500086 -0.5158690214 -2.227499962
vn 0.02731328458 0 -0.9996269345
v 2.777499914 1.805382133 2.227499962
vn 0.9994673729 0.03023681603 0.01227798685
v -2.722500086 1.805382133 2.113902092
vn -0.9999998808 0.0005424999399 0
v 2.722500086 1.805382133 -2.183391094
vn 0.9990202188 0.04425570369 0
v 1.732499003 55.75 1.262500048
vn 0.9675977826 0.1344780326 0.2137059718
v 1.732499957 55.75 -0.56240201
vn 1 6.527966969e-012 3.776927713e-007
v -2.722500086 51.73740005 -2.272500038
vn -0.8452578783 0.02557541803 -0.5337461829
v 1.732499957 55.75 -1.262500048
vn 0.09428203851 0.5872712731 -0.8038801551
v -0.7717710137 55.75 -1.262500048
vn 0 0 -1
v -1.732499003 55.75 -1.262500048
vn -0.920565784 0.333497107 -0.2033183724
v -1.732499957 55.75 0.56240201
vn -0.756862998 0.6535735726 -2.858616881e-007
v -2.722500086 0.01429099962 -2.227499962
vn -0.3783096671 0 -0.9256790876
v -2.722500086 -0.003618000075 -2.227499962
vn -0.0002831817837 0 -0.9999999404
v -1.767500162 -55.75 -1.237499952
vn -0.09111756086 -0.5800718069 -0.8094530702
v 2.58365798 -1.808999896 -2.227499962
vn 0 -0.0004438657779 -0.9999998808
v -1.767500162 -55.75 -0.5518839955
vn -1 1.276252281e-011 4.334883386e-007
v 2.722500086 -0.003618000075 -2.227499962
vn 0.6332396269 0 -0.773955822
v 2.722500086 -1.791090846 -2.227499962
vn 0.8910247087 0 -0.4539548755
v 2.777499914 1.805382133 -2.227499962
vn 0.9994513392 0.03068762086 -0.01246102154
v 2.722500086 1.805382133 -2.227499962
vn 0.9999992847 0.001101090573 -0.0004470639687
v -2.722500086 0 -2.272500038
vn -0.004204608034 0 -0.9999911785
v -2.722500086 0 -2.227499962
vn -0.9999998808 0 -0.0004229260958
v -2.722500086 1.805382133 -2.227499962
vn -0.9999992847 0.001101084054 -0.0004542637907
v -2.722500086 -0.01791300066 -2.227499962
vn -0.8535151482 0 -0.521067977
v -2.668589115 -1.808999896 -2.227499962
vn 0 -0.001826032298 -0.9999983311
v 2.722500086 -1.808999896 -2.227499962
vn 0.0001162314293 -0.0009010984213 -0.9999995828
v 2.722500086 0 -2.272500038
vn 0.008337991312 0 -0.9999652505
v 2.722500086 0 -2.227499962
vn 0.6332396269 0 -0.773955822
v 2.722500086 1.787472963 -2.227499962
vn 0.3228042126 0 -0.9464657903
v -2.722500086 -1.808999896 -2.227499962
vn -0.0288724266 -0.0008690480026 -0.9995827079
v 2.722500086 -1.808999896 -2.272500038
vn 0.008335796185 -0.04944276437 -0.9987421632
v 2.722500086 0.5122510195 -2.227499962
vn 0.9991680384 0 -0.04078218341
v -2.722500086 -1.808999896 -2.272500038
vn -0.00822263211 -0.01255956478 -0.9998872876
# mm_gid 0
g mmGroup0
f 1//1 2//2 3//3 
f 1//1 3//3 4//4 
f 1//1 5//5 2//2 
f 2//2 6//6 3//3 
f 7//7 1//1 4//4 
f 4//4 3//3 8//8 
f 9//9 5//5 1//1 
f 2//2 5//5 10//10 
f 11//11 6//6 2//2 
f 3//3 6//6 8//8 
f 7//7 4//4 8//8 
f 9//9 1//1 7//7 
f 5//5 9//9 12//12 
f 2//2 10//10 11//11 
f 10//10 5//5 13//13 
f 11//11 14//14 6//6 
f 8//8 6//6 14//14 
f 15//15 7//7 8//8 
f 9//9 7//7 15//15 
f 5//5 12//12 16//16 
f 12//12 9//9 17//17 
f 10//10 14//14 11//11 
f 13//13 14//14 10//10 
f 5//5 18//18 13//13 
f 8//8 14//14 19//19 
f 20//20 15//15 8//8 
f 21//21 9//9 15//15 
f 22//22 5//5 16//16 
f 16//16 12//12 23//23 
f 17//17 24//24 12//12 
f 9//9 21//21 17//17 
f 25//25 14//14 13//13 
f 22//22 18//18 5//5 
f 18//18 25//25 13//13 
f 26//26 8//8 19//19 
f 14//14 27//27 19//19 
f 28//28 20//20 8//8 
f 15//15 20//20 21//21 
f 25//25 22//22 16//16 
f 23//23 25//25 16//16 
f 23//23 12//12 29//29 
f 17//17 30//30 24//24 
f 24//24 31//31 12//12 
f 21//21 32//32 17//17 
f 25//25 33//33 14//14 
f 18//18 22//22 25//25 
f 28//28 8//8 26//26 
f 14//14 36//36 27//27 
f 39//39 20//20 28//28 
f 20//20 32//32 21//21 
f 40//40 25//25 23//23 
f 40//40 23//23 29//29 
f 29//29 12//12 41//41 
f 17//17 42//42 30//30 
f 24//24 30//30 43//43 
f 31//31 46//46 12//12 
f 32//32 47//47 17//17 
f 33//33 25//25 48//48 
f 14//14 33//33 36//36 
f 49//49 26//26 34//34 
f 35//35 19//19 37//37 
f 28//28 26//26 36//36 
f 50//50 27//27 36//36 
f 38//38 27//27 51//51 
f 39//39 28//28 52//52 
f 20//20 39//39 53//53 
f 20//20 53//53 32//32 
f 48//48 25//25 40//40 
f 41//41 40//40 29//29 
f 41//41 12//12 54//54 
f 47//47 42//42 17//17 
f 55//55 30//30 42//42 
f 30//30 58//58 43//43 
f 62//62 31//31 44//44 
f 45//45 24//24 56//56 
f 58//58 12//12 46//46 
f 32//32 53//53 47//47 
f 33//33 48//48 63//63 
f 33//33 64//64 36//36 
f 36//36 66//66 28//28 
f 26//26 50//50 36//36 
f 68//68 39//39 52//52 
f 52//52 28//28 69//69 
f 53//53 39//39 70//70 
f 40//40 41//41 48//48 
f 41//41 54//54 48//48 
f 58//58 54//54 12//12 
f 42//42 47//47 53//53 
f 55//55 42//42 53//53 
f 71//71 30//30 55//55 
f 57//57 43//43 59//59 
f 30//30 72//72 58//58 
f 58//58 46//46 43//43 
f 60//60 46//46 61//61 
f 33//33 63//63 73//73 
f 63//63 48//48 74//74 
f 64//64 33//33 73//73 
f 64//64 75//75 36//36 
f 67//67 50//50 65//65 
f 76//76 66//66 36//36 
f 77//77 28//28 66//66 
f 78//78 68//68 52//52 
f 68//68 79//79 39//39 
f 69//69 78//78 52//52 
f 69//69 28//28 77//77 
f 70//70 55//55 53//53 
f 70//70 39//39 80//80 
f 48//48 54//54 74//74 
f 74//74 54//54 58//58 
f 55//55 70//70 71//71 
f 80//80 30//30 71//71 
f 78//78 72//72 30//30 
f 72//72 73//73 58//58 
f 73//73 63//63 58//58 
f 63//63 74//74 58//58 
f 73//73 72//72 64//64 
f 72//72 75//75 64//64 
f 75//75 81//81 36//36 
f 81//81 76//76 36//36 
f 76//76 82//82 66//66 
f 77//77 66//66 82//82 
f 79//79 68//68 78//78 
f 39//39 79//79 83//83 
f 82//82 78//78 69//69 
f 82//82 69//69 77//77 
f 70//70 80//80 71//71 
f 80//80 39//39 83//83 
f 83//83 30//30 80//80 
f 78//78 30//30 83//83 
f 72//72 78//78 84//84 
f 72//72 84//84 75//75 
f 75//75 84//84 81//81 
f 81//81 84//84 76//76 
f 84//84 82//82 76//76 
f 79//79 78//78 83//83 
f 84//84 78//78 82//82 
f 34//34 26//26 19//19 
f 34//34 19//19 35//35 
f 37//37 19//19 27//27 
f 37//37 27//27 38//38 
f 44//44 31//31 24//24 
f 44//44 24//24 45//45 
f 56//56 24//24 43//43 
f 56//56 43//43 57//57 
f 59//59 60//60 61//61 
f 59//59 61//61 62//62 
f 59//59 62//62 44//44 
f 59//59 44//44 45//45 
f 59//59 45//45 56//56 
f 59//59 56//56 57//57 
f 61//61 46//46 31//31 
f 61//61 31//31 62//62 
f 65//65 50//50 26//26 
f 65//65 26//26 49//49 
f 51//51 27//27 50//50 
f 51//51 50//50 67//67 
f 59//59 43//43 46//46 
f 59//59 46//46 60//60 
f 65//65 49//49 34//34 
f 65//65 34//34 35//35 
f 65//65 35//35 37//37 
f 65//65 37//37 38//38 
f 65//65 38//38 51//51 
f 65//65 51//51 67//67 
