v 1.25 14.29999924 1.75
vn 0.8115941882 -0.5072463751 0.289855063
v 1.25 14.29999924 -1.75
vn 0.5398358107 -0.3373973966 -0.7711940408
v -1.25 14.29999924 -1.75
vn -0.8115941882 -0.5072463751 -0.289855063
v -1.25 14.29999924 1.75
vn -0.5398358107 -0.3373973966 0.7711940408
v 1.25 18.29999924 1.75
vn 0.4660844207 0.5826055408 0.6658349037
v 1.25 18.29999924 -1.75
vn 0.9034314752 0.2823223472 -0.3226540983
v -1.25 18.29999924 -1.75
vn -0.4660844207 0.5826055408 -0.6658349037
v -1.25 18.29999924 1.75
vn -0.9034314752 0.2823223472 0.3226540983
v 2.25 0 -2.75
vn 0.5214499831 0 -0.8532818556
v -2.25 0 -2.75
vn -0.9255469441 0 -0.3786328435
v 2.25 14.29999924 2.75
vn 0.4954507649 0.311822176 0.8107376099
v 2.25 14.29999924 -2.75
vn 0.9158860445 0.1441079527 -0.3746806681
v -2.25 14.29999924 -2.75
vn -0.4954507649 0.311822176 -0.8107376099
v -2.25 14.29999924 2.75
vn -0.9158860445 0.1441079527 0.3746806681
v 2.25 0 0
vn 0 0 0
v -2.25 0 0
vn 0 0 0
v 2.25 0 2.75
vn 0.9255469441 0 0.3786328435
v -2.25 0 2.75
vn -0.5214499831 0 0.8532818556
v 1.25 -14.29999924 1.75
vn 0.8115941882 0.5072463751 0.289855063
v 1.25 -14.29999924 -1.75
vn 0.5398358107 0.3373973966 -0.7711940408
v -1.25 -14.29999924 -1.75
vn -0.8115941882 0.5072463751 -0.289855063
v -1.25 -14.29999924 1.75
vn -0.5398358107 0.3373973966 0.7711940408
v 1.25 -18.29999924 1.75
vn 0.4660844207 -0.5826055408 0.6658349037
v 1.25 -18.29999924 -1.75
vn 0.9034314752 -0.2823223472 -0.3226540983
v -1.25 -18.29999924 -1.75
vn -0.4660844207 -0.5826055408 -0.6658349037
v -1.25 -18.29999924 1.75
vn -0.9034314752 -0.2823223472 0.3226540983
v 2.25 -14.29999924 2.75
vn 0.4954507649 -0.311822176 0.8107376099
v 2.25 -14.29999924 -2.75
vn 0.9158860445 -0.1441079527 -0.3746806681
v -2.25 -14.29999924 -2.75
vn -0.4954507649 -0.311822176 -0.8107376099
v -2.25 -14.29999924 2.75
vn -0.9158860445 -0.1441079527 0.3746806681
# mm_gid 0
g mmGroup0
f 5//5 6//6 7//7 
f 5//5 7//7 8//8 
f 1//1 4//4 3//3 
f 1//1 3//3 2//2 
f 1//1 2//2 6//6 
f 1//1 6//6 5//5 
f 2//2 3//3 7//7 
f 2//2 7//7 6//6 
f 3//3 4//4 8//8 
f 3//3 8//8 7//7 
f 4//4 1//1 5//5 
f 4//4 5//5 8//8 
f 9//9 10//10 13//13 
f 9//9 13//13 12//12 
f 10//10 16//16 18//18 
f 10//10 18//18 14//14 
f 10//10 14//14 13//13 
f 11//11 12//12 13//13 
f 11//11 13//13 14//14 
f 15//15 16//16 10//10 
f 15//15 10//10 9//9 
f 17//17 15//15 9//9 
f 17//17 9//9 12//12 
f 17//17 12//12 11//11 
f 18//18 17//17 11//11 
f 18//18 11//11 14//14 
f 23//23 26//26 25//25 
f 23//23 25//25 24//24 
f 19//19 20//20 21//21 
f 19//19 21//21 22//22 
f 19//19 23//23 24//24 
f 19//19 24//24 20//20 
f 20//20 24//24 25//25 
f 20//20 25//25 21//21 
f 21//21 25//25 26//26 
f 21//21 26//26 22//22 
f 22//22 26//26 23//23 
f 22//22 23//23 19//19 
f 9//9 28//28 29//29 
f 9//9 29//29 10//10 
f 10//10 29//29 30//30 
f 10//10 30//30 18//18 
f 10//10 18//18 16//16 
f 27//27 30//30 29//29 
f 27//27 29//29 28//28 
f 15//15 9//9 10//10 
f 15//15 10//10 16//16 
f 17//17 27//27 28//28 
f 17//17 28//28 9//9 
f 17//17 9//9 15//15 
f 18//18 30//30 27//27 
f 18//18 27//27 17//17 
