v -2.99747324 -0.5 2.272500038
vn -0.007461695932 -0.1762987077 0.9843084216
v -2.99747324 -0.5 2.227499962
vn -0.0001055679604 -0.003260158235 0.9999946952
v -2.844607353 -0.5 2.227499962
vn 0 -0.001605904778 0.9999986887
v 2.938117027 -0.5 2.227499962
vn 0 -0.006606452167 0.9999781847
v 2.99747324 -0.5 2.272500038
vn 0.007461262867 -0.04539750144 0.9989411235
v -2.99747324 -8.333528312e-012 2.272500038
vn -0.007573152427 0 0.9999713302
v -2.99747324 -0.4950500131 2.227499962
vn -0.8721583486 0 0.4892237186
v 2.99747324 -0.5 2.227499962
vn 0.02622564882 -0.003144433955 0.9996510744
v 2.99747324 -8.333528312e-012 2.272500038
vn 0.003818904515 0 0.9999927282
v -2.99747324 -8.333528312e-012 2.227499962
vn -0.5964699388 0 0.8026354313
v -2.99747324 -0.001000000047 2.227499962
vn -0.5964699388 0 0.8026354313
v -2.99747324 -0.1425839961 2.227499962
vn -0.02480963245 0 0.9996922016
v 2.99747324 -0.004951000214 2.227499962
vn 0.8299487829 0 0.5578395724
v -2.99747324 14.30000019 2.272500038
vn -0.3526399136 0.0956306234 0.9308597445
v -2.99747324 0.141583994 2.227499962
vn -0.9989917874 0 0.0448926799
v 2.99747324 -8.333528312e-012 2.227499962
vn 0.9999998808 0 0.0004656381789
v 2.99747324 -0.001000000047 2.227499962
vn 0.0002572034718 0 0.9999999404
v -2.99747324 14.30000019 -2.272500038
vn -0.8170737624 0.09848058224 -0.5680599213
v -2.99747324 0.4990000129 2.113902092
vn -0.9999976754 0.002160971286 0
v -2.99747324 0.4990000129 2.183391094
vn -0.9847854376 0.1737748086 0
v -2.99747324 0.4990000129 2.227499962
vn -0.9999902844 0.00438600732 0.0004922096268
v -2.99747324 0.4940499961 2.227499962
vn -0.2959065735 0 0.9552168846
v 2.99747324 14.30000019 2.272500038
vn 0.818867743 0.07310876995 0.5693072081
v 2.99747324 0.003949999809 2.227499962
vn 0.3479963243 0 0.9374958873
v 2.99747324 0.4990000129 2.227499962
vn 0.9999902844 0.004385981709 0.0005001334357
v 2.99747324 0.4990000129 -2.113902092
vn 0.9999976754 0.002160971286 0
v -1.907482028 14.30000019 -1.262500048
vn -0.4666273296 0.534050703 -0.705016911
v -2.99747324 -8.333528312e-012 -2.272500038
vn -0.003818904515 0 -0.9999927282
v -2.99747324 -8.333528312e-012 -2.227499962
vn -0.9999998808 0 -0.0004656381789
v -2.99747324 0.003949999809 -2.227499962
vn -0.3479963243 0 -0.9374958873
v -2.99747324 0.4990000129 -2.227499962
vn -0.9999902844 0.004385981709 -0.0005001334357
v 1.907482028 14.30000019 1.262500048
vn 0.3976453245 0.693487823 0.6007935405
v 2.99747324 0.4990000129 -2.183391094
vn 0.9847854376 0.1737748086 0
v 2.99747324 0.4990000129 -2.227499962
vn 0.9999902844 0.00438600732 -0.0004922096268
v 2.99747324 0.4940499961 -2.227499962
vn 0.2959065735 0 -0.9552168846
v 2.99747324 0.141583994 -2.227499962
vn 0.9989917874 0 -0.0448926799
v 2.99747324 -8.333528312e-012 -2.272500038
vn 0.007573152427 0 -0.9999713302
v 2.99747324 14.30000019 -2.272500038
vn 0.3532699049 0.07484491169 -0.9325227141
v 1.907482028 14.30000019 -1.262500048
vn 0.4538904727 0.5689464808 -0.685772121
v -1.907482028 14.30000019 1.262500048
vn -0.5191423893 0.3395160139 0.7843596339
v -2.99747324 -0.004951000214 -2.227499962
vn -0.8299447298 0 -0.5578455925
v -2.99747324 -0.001000000047 -2.227499962
vn -0.0002572034718 0 -0.9999999404
v 2.99747324 -8.333528312e-012 -2.227499962
vn 0.5964699388 0 -0.8026354313
v -1.907480955 14.30000019 -1.262500048
vn 0 0 -1
v -1.907482028 14.30000019 1.262498975
vn -1 0 0
v -2.99747324 -0.5 -2.272500038
vn -0.007461262867 -0.04539750144 -0.9989411235
v -2.99747324 -0.5 -2.227499962
vn -0.02622563392 -0.003144432325 -0.9996510744
v 1.907480955 14.30000019 1.262500048
vn 0 0 1
v 2.99747324 -0.001000000047 -2.227499962
vn 0.5964699388 0 -0.8026354313
v 2.99747324 -0.1425839961 -2.227499962
vn 0.02480964549 0 -0.9996922016
v 2.99747324 -0.4950500131 -2.227499962
vn 0.8721616268 0 -0.4892178774
v 2.99747324 -0.5 -2.272500038
vn 0.007461695932 -0.1762987077 -0.9843084216
v 1.907482028 18.29999924 -1.262500048
vn 0.3009562194 0.2870343626 -0.9094155431
v -1.907482028 18.29999924 -1.262500048
vn -0.634961009 0.6055884957 -0.4796739221
v -2.938117027 -0.5 -2.227499962
vn 0 -0.006606452167 -0.9999781847
v 1.907482028 14.30000019 -1.262498975
vn 1 0 0
v -1.907482028 18.29999924 1.262500048
vn -0.3009562194 0.2870343626 0.9094155431
v 2.99747324 -0.5 -2.227499962
vn 0.0001055679604 -0.003260158235 -0.9999946952
v 1.907482028 18.29999924 1.262500048
vn 0.634961009 0.6055884957 0.4796739221
v 2.844607353 -0.5 -2.227499962
vn 0 -0.001605904778 -0.9999986887
v -3.058027029 0.4990000129 -2.227499962
vn -0.9927275181 0.11963211 -0.01342673134
v -3.058027029 0.4990000129 2.227499962
vn -0.9925112128 0.1213912144 0.01362414286
v -3.058027029 -0.001000000047 -2.227499962
vn -0.9999760985 0 -0.006915106904
v -3.058027029 -0.001000000047 2.227499962
vn -0.9999060035 0 0.01371246949
v -3.058027029 -14.3010006 -2.227499962
vn -0.3566786647 -0.09861819446 -0.929007411
v -3.058027029 -14.3010006 2.227499962
vn -0.8208317161 -0.09574539214 0.5630879998
v 3.058027029 -0.001000000047 -2.227499962
vn 0.9999060035 -6.232578897e-008 -0.01371246763
v 3.058026075 -14.3010006 -2.227499962
vn 0.8225349784 -0.07106969506 -0.5642564297
v 3.058026075 -14.3010006 2.227499962
vn 0.3573564291 -0.07719183713 0.9307727218
v -1.946017981 -14.3010006 1.237499952
vn -0.4547240734 -0.5309405923 0.7150720954
v 1.946017981 -14.3010006 -1.237499952
vn 0.3881192207 -0.6905480027 -0.6103335023
v 3.058027029 -0.001000000047 2.227499962
vn 0.9999760985 -6.554305543e-008 0.006915106904
v 1.946017981 -14.3010006 1.237499952
vn 0.4424503744 -0.565810442 0.6957702041
v -1.946017981 -14.3010006 -1.237499952
vn -0.5052024126 -0.3370741606 -0.7944504619
v 3.058027029 0.4990000129 -2.227499962
vn 0.9925112128 0.1213912144 -0.01362414286
v 3.058027029 0.4990000129 2.227499962
vn 0.9927275181 0.11963211 0.01342673134
v -1.946015954 -14.3010006 1.237499952
vn 0 0 1
v -1.946017981 -14.3010006 -1.237499952
vn -1 0 0
v 1.946015954 -14.3010006 -1.237499952
vn 0 0 -1
v 1.946017981 -14.3010006 1.237498999
vn 1 0 0
v 1.946017981 -18.30099869 1.237499952
vn 0.2906402946 -0.2827957571 0.9140868783
v -1.946017981 -18.30099869 1.237499952
vn -0.6243944764 -0.6075417399 0.4909425676
v -1.946017981 -18.30099869 -1.237499952
vn -0.2906402946 -0.2827957571 -0.9140868783
v 1.946017981 -18.30099869 -1.237499952
vn 0.6243944764 -0.6075417399 -0.4909425676
# mm_gid 0
g mmGroup0
f 5//5 1//1 4//4 
f 2//2 3//3 1//1 
f 1//1 3//3 4//4 
f 5//5 6//6 1//1 
f 1//1 7//7 2//2 
f 5//5 4//4 8//8 
f 9//9 6//6 5//5 
f 1//1 6//6 7//7 
f 7//7 6//6 12//12 
f 10//10 11//11 6//6 
f 6//6 11//11 12//12 
f 9//9 5//5 13//13 
f 13//13 5//5 8//8 
f 6//6 9//9 14//14 
f 10//10 6//6 15//15 
f 16//16 9//9 17//17 
f 9//9 13//13 17//17 
f 6//6 14//14 15//15 
f 15//15 14//14 22//22 
f 22//22 14//14 21//21 
f 21//21 14//14 20//20 
f 20//20 14//14 19//19 
f 18//18 19//19 14//14 
f 14//14 9//9 23//23 
f 9//9 16//16 23//23 
f 16//16 24//24 23//23 
f 24//24 25//25 23//23 
f 25//25 26//26 23//23 
f 18//18 14//14 27//27 
f 28//28 29//29 18//18 
f 29//29 30//30 18//18 
f 30//30 31//31 18//18 
f 31//31 19//19 18//18 
f 23//23 32//32 14//14 
f 37//37 38//38 36//36 
f 36//36 38//38 35//35 
f 35//35 38//38 34//34 
f 34//34 38//38 33//33 
f 33//33 38//38 26//26 
f 23//23 26//26 38//38 
f 18//18 27//27 39//39 
f 40//40 27//27 14//14 
f 38//38 28//28 18//18 
f 29//29 28//28 42//42 
f 28//28 41//41 42//42 
f 23//23 38//38 32//32 
f 32//32 40//40 14//14 
f 43//43 37//37 36//36 
f 37//37 28//28 38//38 
f 38//38 18//18 39//39 
f 44//44 39//39 27//27 
f 45//45 27//27 40//40 
f 28//28 46//46 41//41 
f 41//41 46//46 47//47 
f 32//32 38//38 39//39 
f 48//48 40//40 32//32 
f 52//52 37//37 51//51 
f 51//51 37//37 50//50 
f 43//43 49//49 37//37 
f 37//37 49//49 50//50 
f 28//28 37//37 46//46 
f 44//44 27//27 53//53 
f 44//44 53//53 39//39 
f 45//45 40//40 54//54 
f 45//45 54//54 27//27 
f 47//47 46//46 55//55 
f 56//56 32//32 39//39 
f 48//48 32//32 57//57 
f 48//48 57//57 40//40 
f 46//46 37//37 52//52 
f 52//52 51//51 58//58 
f 27//27 54//54 53//53 
f 39//39 53//53 59//59 
f 40//40 57//57 54//54 
f 46//46 52//52 55//55 
f 58//58 60//60 52//52 
f 55//55 52//52 60//60 
f 56//56 39//39 59//59 
f 56//56 59//59 32//32 
f 32//32 59//59 57//57 
f 54//54 59//59 53//53 
f 57//57 59//59 54//54 
f 62//62 20//20 61//61 
f 20//20 19//19 61//61 
f 61//61 19//19 31//31 
f 63//63 61//61 30//30 
f 30//30 61//61 31//31 
f 61//61 64//64 62//62 
f 20//20 62//62 21//21 
f 42//42 63//63 29//29 
f 63//63 30//30 29//29 
f 63//63 64//64 61//61 
f 62//62 64//64 22//22 
f 22//22 64//64 15//15 
f 11//11 10//10 64//64 
f 64//64 10//10 15//15 
f 62//62 22//22 21//21 
f 63//63 42//42 65//65 
f 42//42 41//41 65//65 
f 41//41 47//47 65//65 
f 47//47 55//55 65//65 
f 55//55 60//60 65//65 
f 64//64 63//63 66//66 
f 11//11 64//64 12//12 
f 66//66 63//63 65//65 
f 67//67 68//68 50//50 
f 50//50 68//68 51//51 
f 51//51 68//68 58//58 
f 58//58 68//68 60//60 
f 65//65 60//60 68//68 
f 64//64 66//66 12//12 
f 12//12 66//66 7//7 
f 7//7 66//66 2//2 
f 2//2 66//66 3//3 
f 69//69 3//3 66//66 
f 66//66 65//65 70//70 
f 68//68 71//71 65//65 
f 49//49 67//67 50//50 
f 67//67 72//72 68//68 
f 69//69 66//66 73//73 
f 72//72 17//17 69//69 
f 17//17 13//13 69//69 
f 13//13 8//8 69//69 
f 8//8 4//4 69//69 
f 4//4 3//3 69//69 
f 66//66 70//70 73//73 
f 74//74 70//70 65//65 
f 68//68 69//69 71//71 
f 71//71 74//74 65//65 
f 75//75 67//67 35//35 
f 35//35 67//67 36//36 
f 49//49 43//43 67//67 
f 67//67 43//43 36//36 
f 72//72 67//67 76//76 
f 68//68 72//72 69//69 
f 71//71 69//69 73//73 
f 17//17 72//72 16//16 
f 72//72 24//24 16//16 
f 77//77 73//73 70//70 
f 78//78 70//70 74//74 
f 79//79 74//74 71//71 
f 76//76 67//67 75//75 
f 75//75 35//35 34//34 
f 72//72 76//76 24//24 
f 24//24 76//76 25//25 
f 80//80 71//71 73//73 
f 77//77 70//70 81//81 
f 77//77 81//81 73//73 
f 78//78 74//74 82//82 
f 78//78 82//82 70//70 
f 79//79 71//71 83//83 
f 79//79 83//83 74//74 
f 75//75 33//33 76//76 
f 33//33 26//26 76//76 
f 26//26 25//25 76//76 
f 33//33 75//75 34//34 
f 80//80 73//73 84//84 
f 80//80 84//84 71//71 
f 70//70 82//82 81//81 
f 73//73 81//81 84//84 
f 74//74 83//83 82//82 
f 71//71 84//84 83//83 
f 82//82 84//84 81//81 
f 83//83 84//84 82//82 
