v 2.272500038 -1.808999896 -2.997473001
vn 0.9998932481 -0.01255963743 -0.007468373515
v 2.272500038 -1.808999896 2.997473001
vn 0.9987482429 -0.04944306612 0.007571158931
v 2.227499962 -1.808999896 -2.938117027
vn 0.9999983311 -0.001826032414 0
v 2.227499962 -1.808999896 -2.997473001
vn 0.999655664 -0.0008691122639 -0.02622576244
v 2.272500038 0 2.997473001
vn 0.9999713302 0 0.007573152427
v 2.227499962 -1.808999896 2.844607115
vn 0.9999998808 -0.000443865807 0
v 2.227499962 -0.01791300066 -2.997473001
vn 0.5578395724 0 -0.8299487829
v 2.227499962 -51.7410202 -3.058026075
vn 0.9333444834 -0.02139447071 -0.3583438396
v 2.272500038 0 -2.997473001
vn 0.9999927282 0 -0.003818904515
v 2.227499962 -1.791090846 2.997473001
vn 0.4892237186 0 0.8721583486
v 2.227499962 -1.808999896 2.997473001
vn 0.9999995828 -0.0009010984213 0.0001055684625
v 2.272500038 51.73740005 2.997473001
vn 0.9348161221 0.02654424869 0.3541387022
v 2.227499962 -0.5158690214 2.997473001
vn 0.9996922016 0 0.02480963245
v 2.227499962 -51.7410202 3.058027029
vn 0.5654870272 -0.02657639422 0.8243288994
v 2.227499962 -0.003618000075 -2.997473001
vn 0.9999999404 0 -0.0002572075173
v 2.227499962 0.5122510195 2.997473001
vn 0.04489268363 0 0.9989917874
v 2.272500038 51.73740005 -2.997473001
vn 0.5707176328 0.02025702782 -0.8208965063
v 2.227499962 -0.003618000075 2.997473001
vn 0.8026354313 0 0.5964699388
v 1.237498999 -51.7410202 -1.946017981
vn 0.5525022149 -0.4482966363 -0.702688694
v 2.227499962 -0.003618000075 -3.058027029
vn 0.006915106904 -1.811582528e-008 -0.9999760985
v 2.227499962 0 -2.997473001
vn 0.0004656355886 0 -0.9999998808
v 2.227499962 0 2.997473001
vn 0.8026354313 0 0.5964699388
v 2.227499962 1.787472963 2.997473001
vn 0.9552168846 0 0.2959065735
v 1.262500048 51.73740005 -1.907481074
vn 0.8331820369 0.4793555439 -0.2757280171
v 2.227499962 -0.003618000075 3.058027029
vn 0.01371246949 0 0.9999060035
v -1.237499952 -51.7410202 -1.946015954
vn -0.8392709494 -0.4737238288 -0.2668520212
v 1.237499952 -51.7410202 1.946015954
vn 0.8986404538 -0.3328728974 0.285728842
v -2.227499962 -51.7410202 -3.058026075
vn -0.5655771494 -0.01968936063 -0.8244603276
v 2.227499962 1.805382133 2.997473001
vn 0.0004922109656 0.001212284784 0.9999991655
v -2.272500038 51.73740005 -2.997473001
vn -0.9349444509 0.02074054815 -0.3541873395
v 1.262500048 51.73740005 1.907482028
vn 0.5833639503 0.2517205477 0.7722197175
v 2.227499962 0.01429099962 -2.997473001
vn 0.9374958873 0 -0.3479963243
v -2.227499962 -0.003618000075 3.058027029
vn -0.006915106904 0 0.9999760985
v -1.237499952 -55.75 -1.946015954
vn -0.2279800177 -0.3673328459 -0.9017159939
v 0.5518839955 -55.75 -1.946017981
vn -5.874927069e-007 -0.6965643167 -0.7174943686
v -2.227499962 -51.7410202 3.058027029
vn -0.9332081676 -0.02738091536 0.358291477
v 1.237498999 -55.75 -1.946017981
vn 0.9370626807 -0.335759908 -0.09580592066
v 1.237499952 -55.75 0.8678600192
vn 0.8509056568 -0.525318563 -2.084994293e-007
v -2.227499962 -0.003618000075 -3.058027029
vn -0.01371246763 -1.722658638e-008 -0.9999060035
v 2.227499962 1.805382133 3.058027029
vn 0.01371781062 0.03378270194 0.9993350506
v 2.183391094 1.805382133 2.997473001
vn 0 0.04871477559 0.9988127351
v -2.113902092 1.805382133 -2.997473001
vn 0 0.0005972846411 -0.9999998212
v -1.262500048 51.73740005 -1.907482028
vn -0.5394564867 0.4461513162 -0.7140978575
v 1.262500048 55.75 1.907482028
vn 0.9346317649 0.3413957059 0.09956138581
v 1.262500048 55.75 -0.8497200012
vn 0.8463708758 0.5325939655 0
v -1.262500048 51.73740005 1.907481074
vn -0.8936877251 0.3374217153 0.2957513928
v 2.227499962 1.805382133 -2.997473001
vn 0.0005001378595 0.001212277682 -0.9999991655
v -2.227499962 1.805382133 3.058027029
vn -0.01351636276 0.03328654543 0.9993544221
v -1.237499952 -55.75 -0.8678600192
vn -1 0 0
v -1.237499952 -51.7410202 1.946017981
vn -0.5979599357 -0.2531376481 0.7605032921
v 1.237499952 -55.75 1.946015954
vn 0.2423569411 -0.1496219039 0.9585804343
v -2.227499962 -0.5158690214 -2.997473001
vn -0.9996922016 0 -0.02480964549
v 2.227499962 1.805382133 -3.058027029
vn 0.01351636276 0.03328654543 -0.9993544221
v 2.113902092 1.805382133 2.997473001
vn 0 0.0005972846411 0.9999998212
v -2.183391094 1.805382133 -2.997473001
vn 0 0.04871477559 -0.9988127351
v 1.262500048 55.75 -1.907481074
vn 0.2337145507 0.1470687538 -0.9611182213
v -0.56240201 55.75 -1.907482028
vn 4.249043855e-007 -1.271599059e-011 -1
v -2.272500038 51.73740005 2.997473001
vn -0.5706213713 0.02734236233 0.8207579851
v -1.262500048 55.75 -1.907482028
vn -0.8045063615 0.5877287388 -0.08569981158
v -1.262500048 55.75 0.8497200012
vn -1 0 0
v -1.262500048 55.75 1.907481074
vn -0.2203156799 0.3613773882 0.9060173035
v 0.56240201 55.75 1.907482028
vn -3.079407236e-007 0.6890335679 0.7247294188
v -2.227499962 0.01429099962 2.997473001
vn -0.9374958873 0 0.3479963243
v -2.227499962 -0.003618000075 2.997473001
vn -0.9999999404 0 0.0002572075173
v -1.237499952 -55.75 1.946017981
vn -0.8100419641 -0.5804938078 0.08281911165
v -2.227499962 -1.808999896 -2.844607115
vn -0.9999998808 -0.000443865807 0
v -0.5518839955 -55.75 1.946017981
vn 8.188113156e-007 3.226632069e-012 1
v -2.227499962 -0.003618000075 -2.997473001
vn -0.8026354313 0 -0.5964699388
v -2.227499962 -1.791090846 -2.997473001
vn -0.4892178476 0 -0.8721616268
v -2.227499962 1.805382133 -3.058027029
vn -0.01371781062 0.03378270194 -0.9993350506
v -2.227499962 1.805382133 -2.997473001
vn -0.0004922109656 0.001212284784 -0.9999991655
v -2.272500038 0 2.997473001
vn -0.9999927282 0 0.003818904515
v -2.227499962 0 2.997473001
vn -0.0004656355886 0 0.9999998808
v -2.227499962 1.805382133 2.997473001
vn -0.0005001378595 0.001212277682 0.9999991655
v -2.227499962 -0.01791300066 2.997473001
vn -0.5578455925 0 0.8299447298
v -2.227499962 -1.808999896 2.938117027
vn -0.9999983311 -0.001826032414 0
v -2.227499962 -1.808999896 -2.997473001
vn -0.9999995828 -0.0009010984213 -0.0001055684625
v -2.272500038 0 -2.997473001
vn -0.9999713302 0 -0.007573152427
v -2.227499962 0 -2.997473001
vn -0.8026354313 0 -0.5964699388
v -2.227499962 1.787472963 -2.997473001
vn -0.9552168846 0 -0.2959065735
v -2.227499962 -1.808999896 2.997473001
vn -0.999655664 -0.0008691117982 0.02622574754
v -2.272500038 -1.808999896 -2.997473001
vn -0.9987482429 -0.04944306612 -0.007571158931
v -2.227499962 0.5122510195 -2.997473001
vn -0.04489268363 0 -0.9989917874
v -2.272500038 -1.808999896 2.997473001
vn -0.9998932481 -0.01255963743 0.007468373515
# mm_gid 0
g mmGroup0
f 1//1 2//2 3//3 
f 1//1 3//3 4//4 
f 1//1 5//5 2//2 
f 2//2 6//6 3//3 
f 7//7 1//1 4//4 
f 4//4 3//3 8//8 
f 9//9 5//5 1//1 
f 2//2 5//5 10//10 
f 11//11 6//6 2//2 
f 3//3 6//6 8//8 
f 7//7 4//4 8//8 
f 9//9 1//1 7//7 
f 5//5 9//9 12//12 
f 2//2 10//10 11//11 
f 10//10 5//5 13//13 
f 11//11 14//14 6//6 
f 8//8 6//6 14//14 
f 15//15 7//7 8//8 
f 9//9 7//7 15//15 
f 5//5 12//12 16//16 
f 12//12 9//9 17//17 
f 10//10 14//14 11//11 
f 13//13 14//14 10//10 
f 5//5 18//18 13//13 
f 8//8 14//14 19//19 
f 20//20 15//15 8//8 
f 21//21 9//9 15//15 
f 22//22 5//5 16//16 
f 16//16 12//12 23//23 
f 17//17 24//24 12//12 
f 9//9 21//21 17//17 
f 25//25 14//14 13//13 
f 22//22 18//18 5//5 
f 18//18 25//25 13//13 
f 26//26 8//8 19//19 
f 14//14 27//27 19//19 
f 28//28 20//20 8//8 
f 15//15 20//20 21//21 
f 25//25 22//22 16//16 
f 23//23 25//25 16//16 
f 23//23 12//12 29//29 
f 17//17 30//30 24//24 
f 24//24 31//31 12//12 
f 21//21 32//32 17//17 
f 25//25 33//33 14//14 
f 18//18 22//22 25//25 
f 28//28 8//8 26//26 
f 14//14 36//36 27//27 
f 39//39 20//20 28//28 
f 20//20 32//32 21//21 
f 40//40 25//25 23//23 
f 40//40 23//23 29//29 
f 29//29 12//12 41//41 
f 17//17 42//42 30//30 
f 24//24 30//30 43//43 
f 31//31 46//46 12//12 
f 32//32 47//47 17//17 
f 33//33 25//25 48//48 
f 14//14 33//33 36//36 
f 49//49 26//26 34//34 
f 35//35 19//19 37//37 
f 28//28 26//26 36//36 
f 50//50 27//27 36//36 
f 38//38 27//27 51//51 
f 39//39 28//28 52//52 
f 20//20 39//39 53//53 
f 20//20 53//53 32//32 
f 48//48 25//25 40//40 
f 41//41 40//40 29//29 
f 41//41 12//12 54//54 
f 47//47 42//42 17//17 
f 55//55 30//30 42//42 
f 30//30 58//58 43//43 
f 62//62 31//31 44//44 
f 45//45 24//24 56//56 
f 58//58 12//12 46//46 
f 32//32 53//53 47//47 
f 33//33 48//48 63//63 
f 33//33 64//64 36//36 
f 36//36 66//66 28//28 
f 26//26 50//50 36//36 
f 68//68 39//39 52//52 
f 52//52 28//28 69//69 
f 53//53 39//39 70//70 
f 40//40 41//41 48//48 
f 41//41 54//54 48//48 
f 58//58 54//54 12//12 
f 42//42 47//47 53//53 
f 55//55 42//42 53//53 
f 71//71 30//30 55//55 
f 57//57 43//43 59//59 
f 30//30 72//72 58//58 
f 58//58 46//46 43//43 
f 60//60 46//46 61//61 
f 33//33 63//63 73//73 
f 63//63 48//48 74//74 
f 64//64 33//33 73//73 
f 64//64 75//75 36//36 
f 67//67 50//50 65//65 
f 76//76 66//66 36//36 
f 77//77 28//28 66//66 
f 78//78 68//68 52//52 
f 68//68 79//79 39//39 
f 69//69 78//78 52//52 
f 69//69 28//28 77//77 
f 70//70 55//55 53//53 
f 70//70 39//39 80//80 
f 48//48 54//54 74//74 
f 74//74 54//54 58//58 
f 55//55 70//70 71//71 
f 80//80 30//30 71//71 
f 78//78 72//72 30//30 
f 72//72 73//73 58//58 
f 73//73 63//63 58//58 
f 63//63 74//74 58//58 
f 73//73 72//72 64//64 
f 72//72 75//75 64//64 
f 75//75 81//81 36//36 
f 81//81 76//76 36//36 
f 76//76 82//82 66//66 
f 77//77 66//66 82//82 
f 79//79 68//68 78//78 
f 39//39 79//79 83//83 
f 82//82 78//78 69//69 
f 82//82 69//69 77//77 
f 70//70 80//80 71//71 
f 80//80 39//39 83//83 
f 83//83 30//30 80//80 
f 78//78 30//30 83//83 
f 72//72 78//78 84//84 
f 72//72 84//84 75//75 
f 75//75 84//84 81//81 
f 81//81 84//84 76//76 
f 84//84 82//82 76//76 
f 79//79 78//78 83//83 
f 84//84 78//78 82//82 
f 34//34 26//26 19//19 
f 34//34 19//19 35//35 
f 37//37 19//19 27//27 
f 37//37 27//27 38//38 
f 44//44 31//31 24//24 
f 44//44 24//24 45//45 
f 56//56 24//24 43//43 
f 56//56 43//43 57//57 
f 59//59 60//60 61//61 
f 59//59 61//61 62//62 
f 59//59 62//62 44//44 
f 59//59 44//44 45//45 
f 59//59 45//45 56//56 
f 59//59 56//56 57//57 
f 61//61 46//46 31//31 
f 61//61 31//31 62//62 
f 65//65 50//50 26//26 
f 65//65 26//26 49//49 
f 51//51 27//27 50//50 
f 51//51 50//50 67//67 
f 59//59 43//43 46//46 
f 59//59 46//46 60//60 
f 65//65 49//49 34//34 
f 65//65 34//34 35//35 
f 65//65 35//35 37//37 
f 65//65 37//37 38//38 
f 65//65 38//38 51//51 
f 65//65 51//51 67//67 
