v -1 -1 1
vn -0.6666666865 -0.6666666865 0.3333333433
v 1 -1 1
vn 0.4082483053 -0.4082483053 0.8164966106
v -1 1 1
vn -0.4082483053 0.4082483053 0.8164966106
v 1 1 1
vn 0.6666666865 0.6666666865 0.3333333433
v -1 1 -1
vn -0.6666666865 0.6666666865 -0.3333333433
v 1 1 -1
vn 0.4082483053 0.4082483053 -0.8164966106
v -1 -1 -1
vn -0.4082483053 -0.4082483053 -0.8164966106
v 1 -1 -1
vn 0.6666666865 -0.6666666865 -0.3333333433
v -1 -1 1
vn -0.6666666865 -0.6666666865 0.3333333433
v 1 -1 1
vn 0.4082483053 -0.4082483053 0.8164966106
v -1 1 1
vn -0.4082483053 0.4082483053 0.8164966106
v 1 1 1
vn 0.6666666865 0.6666666865 0.3333333433
v -1 1 -1
vn -0.6666666865 0.6666666865 -0.3333333433
v 1 1 -1
vn 0.4082483053 0.4082483053 -0.8164966106
v -1 -1 -1
vn -0.4082483053 -0.4082483053 -0.8164966106
v 1 -1 -1
vn 0.6666666865 -0.6666666865 -0.3333333433
# mm_gid 0
g mmGroup0
f 1//1 2//2 3//3 
f 3//3 2//2 4//4 
f 3//3 4//4 5//5 
f 5//5 4//4 6//6 
f 5//5 6//6 7//7 
f 7//7 6//6 8//8 
f 7//7 8//8 1//1 
f 1//1 8//8 2//2 
f 2//2 8//8 4//4 
f 4//4 8//8 6//6 
f 7//7 1//1 5//5 
f 5//5 1//1 3//3 
f 9//9 10//10 11//11 
f 11//11 10//10 12//12 
f 11//11 12//12 13//13 
f 13//13 12//12 14//14 
f 13//13 14//14 15//15 
f 15//15 14//14 16//16 
f 15//15 16//16 9//9 
f 9//9 16//16 10//10 
f 10//10 16//16 12//12 
f 12//12 16//16 14//14 
f 15//15 9//9 13//13 
f 13//13 9//9 11//11 
