# This file uses centimeters as units for non-parametric coordinates.

v -1.000000 -1.000000 1.000000
v 1.000000 -1.000000 1.000000
v -1.000000 1.000000 1.000000
v 1.000000 1.000000 1.000000
v -1.000000 1.000000 -1.000000
v 1.000000 1.000000 -1.000000
v -1.000000 -1.000000 -1.000000
v 1.000000 -1.000000 -1.000000
vn -0.666667 -0.666667 0.333333
vn 0.408248 -0.408248 0.816497
vn -0.408248 0.408248 0.816497
vn -0.408248 0.408248 0.816497
vn 0.408248 -0.408248 0.816497
vn 0.666667 0.666667 0.333333
vn -0.408248 0.408248 0.816497
vn 0.666667 0.666667 0.333333
vn -0.666667 0.666667 -0.333333
vn -0.666667 0.666667 -0.333333
vn 0.666667 0.666667 0.333333
vn 0.408248 0.408248 -0.816497
vn -0.666667 0.666667 -0.333333
vn 0.408248 0.408248 -0.816497
vn -0.408248 -0.408248 -0.816497
vn -0.408248 -0.408248 -0.816497
vn 0.408248 0.408248 -0.816497
vn 0.666667 -0.666667 -0.333333
vn -0.408248 -0.408248 -0.816497
vn 0.666667 -0.666667 -0.333333
vn -0.666667 -0.666667 0.333333
vn -0.666667 -0.666667 0.333333
vn 0.666667 -0.666667 -0.333333
vn 0.408248 -0.408248 0.816497
vn 0.408248 -0.408248 0.816497
vn 0.666667 -0.666667 -0.333333
vn 0.666667 0.666667 0.333333
vn 0.666667 0.666667 0.333333
vn 0.666667 -0.666667 -0.333333
vn 0.408248 0.408248 -0.816497
vn -0.408248 -0.408248 -0.816497
vn -0.666667 -0.666667 0.333333
vn -0.666667 0.666667 -0.333333
vn -0.666667 0.666667 -0.333333
vn -0.666667 -0.666667 0.333333
vn -0.408248 0.408248 0.816497
vn -0.666667 -0.666667 0.333333
vn 0.408248 -0.408248 0.816497
vn -0.408248 0.408248 0.816497
vn -0.408248 0.408248 0.816497
vn 0.408248 -0.408248 0.816497
vn 0.666667 0.666667 0.333333
vn -0.408248 0.408248 0.816497
vn 0.666667 0.666667 0.333333
vn -0.666667 0.666667 -0.333333
vn -0.666667 0.666667 -0.333333
vn 0.666667 0.666667 0.333333
vn 0.408248 0.408248 -0.816497
vn -0.666667 0.666667 -0.333333
vn 0.408248 0.408248 -0.816497
vn -0.408248 -0.408248 -0.816497
vn -0.408248 -0.408248 -0.816497
vn 0.408248 0.408248 -0.816497
vn 0.666667 -0.666667 -0.333333
vn -0.408248 -0.408248 -0.816497
vn 0.666667 -0.666667 -0.333333
vn -0.666667 -0.666667 0.333333
vn -0.666667 -0.666667 0.333333
vn 0.666667 -0.666667 -0.333333
vn 0.408248 -0.408248 0.816497
vn 0.408248 -0.408248 0.816497
vn 0.666667 -0.666667 -0.333333
vn 0.666667 0.666667 0.333333
vn 0.666667 0.666667 0.333333
vn 0.666667 -0.666667 -0.333333
vn 0.408248 0.408248 -0.816497
vn -0.408248 -0.408248 -0.816497
vn -0.666667 -0.666667 0.333333
vn -0.666667 0.666667 -0.333333
vn -0.666667 0.666667 -0.333333
vn -0.666667 -0.666667 0.333333
vn -0.408248 0.408248 0.816497
f 1//1 2//2 3//3
f 3//4 2//5 4//6
f 3//7 4//8 5//9
f 5//10 4//11 6//12
f 5//13 6//14 7//15
f 7//16 6//17 8//18
f 7//19 8//20 1//21
f 1//22 8//23 2//24
f 2//25 8//26 4//27
f 4//28 8//29 6//30
f 7//31 1//32 5//33
f 5//34 1//35 3//36
f 1//37 2//38 3//39
f 3//40 2//41 4//42
f 3//43 4//44 5//45
f 5//46 4//47 6//48
f 5//49 6//50 7//51
f 7//52 6//53 8//54
f 7//55 8//56 1//57
f 1//58 8//59 2//60
f 2//61 8//62 4//63
f 4//64 8//65 6//66
f 7//67 1//68 5//69
f 5//70 1//71 3//72
