v 1.027999997 48.6590004 3.164999962
vn 0.5178374052 0.01852338016 0.855278492
v 0.05620199814 48.6590004 1.827210903
vn -0.2482843995 0.595592916 0.7639528513
v -2.691999912 48.6590004 1.955999851
vn -0.6533805132 0.02356329374 0.7566628456
v 1.027999997 -1 3.164999962
vn -0.1191473678 -0.004213406704 0.9928676486
v 0.6568920016 48.6590004 2.02243495
vn 0.2712382972 0.2881377339 0.9183716178
v -1.162515998 48.6590004 1.431128025
vn -0.3074231446 0.1035930216 0.9459172487
v -2.691999912 -1 1.955999851
vn -0.981086731 -0.004211947322 0.1935227364
v -1.663722873 -1 2.290189981
vn -0.6414145231 -0.008245711215 0.7671501637
v -1.663722873 1 2.290189981
vn -0.6496084332 0.004953545984 0.7602528334
v -1.027999997 1 2.496799946
vn -0.309058696 0.01333272364 0.9509494901
v -0.6353139877 1 2.624423027
vn -0.3090586066 0.0133327283 0.9509495497
v 0 1 2.830899954
vn -0.2942340076 0.005201534368 0.9557192326
v 0 -1 2.830899954
vn 0.2942340076 -0.005201534368 0.9557192326
v 1.663722873 -1 2.290189981
vn 0.6496084332 -0.004953545984 0.7602528334
v 1.663722873 1 2.290189981
vn 0.6414145231 0.008245711215 0.7671501637
v 2.691999912 1 0.8751909733
vn 0.8145009875 0.008344465867 0.5801021457
v 2.691999912 -1 0.8751909733
vn 0.9999194741 -0.00835817866 0.00955011975
v 3.328000069 -1 0
vn 0.9074561 -0.00421780441 0.4201257527
v 0.6568920016 52.65000153 2.02243495
vn 0.1390040368 0.6609575748 0.7374367714
v 1.00169003 48.6590004 1.547963977
vn 0.8079839945 0.04903465882 0.5871605277
v -1.720188022 48.6590004 1.249884009
vn -0.9288329482 0.2708914578 0.2527591586
v -2.691999912 48.6590004 -1.955999851
vn -0.9217097163 0.01723677665 -0.3874971569
v -2.691999912 -1 0.8751909733
vn -0.8145009875 -0.008344465867 0.5801021457
v 0.6353139877 -1 2.624423027
vn 0.3090586066 -0.0133327283 0.9509495497
v 1.027999997 -1 2.496799946
vn 0.309058696 -0.01333272364 0.9509494901
v 2.691999912 -1 -0.8751909733
vn 0.9698358178 -0.008254648186 -0.2436193228
v 3.328000069 48.6590004 0
vn 0.9733192921 0.02356713638 -0.2282414734
v 1.027999997 48.6590004 1.51175797
vn 0.6498306394 0.5955825448 0.4722304344
v -1.720188022 52.65000153 1.249884009
vn -0.8524983525 0.2365014702 0.4661690891
v -1.720188022 48.6590004 -0.6181910038
vn -0.8033161759 0.5955528021 0
v -2.691999912 -1 -1.955999851
vn -0.4872286916 -0.004212123808 -0.8732642531
v -2.691999912 -1 -0.8751909733
vn -0.9724165797 -0.004951857962 -0.2331984788
v -2.691999912 1 -0.8751909733
vn -0.9698358178 0.008254648186 -0.2436193228
v -2.691999912 1 0.8751909733
vn -0.9999194741 0.00835817866 0.00955011975
v 2.691999912 1 -0.8751909733
vn 0.9724165797 0.004951857962 -0.2331984788
v 2.29936409 1 -1.415492058
vn 0.8088853359 0.01333044283 -0.5878153443
v 1.663722873 1 -2.290189981
vn 0.8015027642 0.006779794116 -0.5979526043
v 1.663722873 -1 -2.290189981
vn 0.3238481283 -0.005202540196 -0.9460947514
v 1.027999997 -1 -3.164999962
vn 0.6799511909 -0.004212523345 -0.7332453132
v 2.126591921 52.65000153 0
vn 0.9636778831 0.2365850806 0.1239049137
v -1.720188022 52.65000153 -1.249884009
vn -0.6135357618 0.5374269485 -0.5785724521
v -1.720188022 48.6590004 -0.6634280086
vn -0.9987958074 0.04906096682 0
v 1.027999997 48.6590004 -3.164999962
vn 0.08374524862 0.02233178169 -0.9962369204
v -2.29936409 -1 -1.415492058
vn -0.8088853359 -0.01333044283 -0.5878153443
v 1.027999997 -1 -2.496799946
vn 0.3090586066 -0.01333272737 -0.9509495497
v 2.126591921 48.6590004 0
vn 0.8999713659 0.2709177136 0.3415482044
v 0.6568920016 52.65000153 -2.02243495
vn 0.3607127666 0.5374567509 -0.7622509599
v -1.720188022 48.6590004 -1.249884009
vn -0.4409252107 0.5844931006 -0.6811407804
v 0 -1 -2.830899954
vn -0.006415172946 -0.006594798062 -0.9999576807
v 0 1 -2.830899954
vn 0.006415172946 0.006594798062 -0.9999576807
v -1.027999997 1 -2.496799946
vn -0.3090586066 0.01333272737 -0.9509495497
v -1.663722873 1 -2.290189981
vn -0.3238481283 0.005202540196 -0.9460947514
v -1.663722873 -1 -2.290189981
vn -0.8015027642 -0.006779794116 -0.5979526043
v 1.027999997 48.6590004 -1.51175797
vn 0.6498304605 0.5955827832 -0.472230345
v 1.781793952 48.6590004 -0.4744710028
vn 0.8046036363 0.1036054716 -0.5847041011
v 0.09921900183 48.6590004 -1.841190934
vn -0.3068199158 0.1208704486 -0.9440613985
v 0.6568920016 48.6590004 -2.02243495
vn 0.3201111555 0.2881382406 -0.9024994373
v -1.027999997 -48.6590004 3.164999962
vn -0.5178374052 -0.01852338016 0.855278492
v -0.05620199814 -48.6590004 1.827210903
vn 0.2482843995 -0.595592916 0.7639528513
v 2.691999912 -48.6590004 1.955999851
vn 0.6533805132 -0.02356329374 0.7566628456
v -1.027999997 1 3.164999962
vn 0.1191473678 0.004213406704 0.9928676486
v -0.6568920016 -48.6590004 2.02243495
vn -0.2712382972 -0.2881377339 0.9183716178
v 1.162515998 -48.6590004 1.431128025
vn 0.3074231446 -0.1035930216 0.9459172487
v 2.691999912 1 1.955999851
vn 0.981086731 0.004211947322 0.1935227364
v -3.328000069 1 0
vn -0.9074561 0.00421780441 0.4201257527
v -0.6568920016 -52.65000153 2.02243495
vn -0.1390040368 -0.6609575748 0.7374367714
v -1.00169003 -48.6590004 1.547963977
vn -0.8079839945 -0.04903465882 0.5871605277
v 1.720188022 -48.6590004 1.249884009
vn 0.9288329482 -0.2708914578 0.2527591586
v 2.691999912 -48.6590004 -1.955999851
vn 0.9217097163 -0.01723677665 -0.3874971569
v -3.328000069 -48.6590004 0
vn -0.9733192921 -0.02356713638 -0.2282414734
v -1.027999997 -48.6590004 1.51175797
vn -0.6498306394 -0.5955825448 0.4722304344
v 1.720188022 -52.65000153 1.249884009
vn 0.8524983525 -0.2365014702 0.4661690891
v 1.720188022 -48.6590004 -0.6181910038
vn 0.8033161759 -0.5955528021 0
v 2.691999912 1 -1.955999851
vn 0.4872286916 0.004212123808 -0.8732642531
v -1.027999997 1 -3.164999962
vn -0.6799511909 0.004212523345 -0.7332453132
v -2.126591921 -52.65000153 0
vn -0.9636778831 -0.2365850806 0.1239049137
v 1.720188022 -52.65000153 -1.249884009
vn 0.6135357618 -0.5374269485 -0.5785724521
v 1.720188022 -48.6590004 -0.6634280086
vn 0.9987958074 -0.04906096682 0
v -1.027999997 -48.6590004 -3.164999962
vn -0.08374524862 -0.02233178169 -0.9962369204
v -2.126591921 -48.6590004 0
vn -0.8999713659 -0.2709177136 0.3415482044
v -0.6568920016 -52.65000153 -2.02243495
vn -0.3607127666 -0.5374567509 -0.7622509599
v 1.720188022 -48.6590004 -1.249884009
vn 0.4409252107 -0.5844931006 -0.6811407804
v -1.027999997 -48.6590004 -1.51175797
vn -0.6498304605 -0.5955827832 -0.472230345
v -1.781793952 -48.6590004 -0.4744710028
vn -0.8046036363 -0.1036054716 -0.5847041011
v -0.09921900183 -48.6590004 -1.841190934
vn 0.3068199158 -0.1208704486 -0.9440613985
v -0.6568920016 -48.6590004 -2.02243495
vn -0.3201111555 -0.2881382406 -0.9024994373
# mm_gid 0
g mmGroup0
f 1//1 2//2 3//3 
f 3//3 4//4 1//1 
f 2//2 1//1 5//5 
f 2//2 6//6 3//3 
f 7//7 8//8 3//3 
f 8//8 9//9 3//3 
f 13//13 4//4 12//12 
f 4//4 3//3 12//12 
f 12//12 3//3 11//11 
f 11//11 3//3 10//10 
f 9//9 10//10 3//3 
f 4//4 14//14 1//1 
f 14//14 15//15 1//1 
f 17//17 18//18 16//16 
f 18//18 1//1 16//16 
f 15//15 16//16 1//1 
f 2//2 5//5 19//19 
f 1//1 20//20 5//5 
f 6//6 2//2 19//19 
f 6//6 21//21 3//3 
f 22//22 7//7 3//3 
f 7//7 23//23 8//8 
f 24//24 4//4 13//13 
f 4//4 25//25 14//14 
f 26//26 18//18 17//17 
f 1//1 18//18 27//27 
f 20//20 19//19 5//5 
f 28//28 20//20 1//1 
f 29//29 6//6 19//19 
f 6//6 29//29 21//21 
f 3//3 21//21 30//30 
f 22//22 3//3 30//30 
f 31//31 32//32 22//22 
f 32//32 33//33 22//22 
f 23//23 7//7 34//34 
f 7//7 22//22 34//34 
f 33//33 34//34 22//22 
f 25//25 4//4 24//24 
f 18//18 26//26 27//27 
f 26//26 35//35 27//27 
f 38//38 39//39 37//37 
f 39//39 27//27 37//37 
f 37//37 27//27 36//36 
f 35//35 36//36 27//27 
f 1//1 27//27 28//28 
f 19//19 20//20 40//40 
f 20//20 28//28 40//40 
f 29//29 19//19 41//41 
f 30//30 21//21 29//29 
f 30//30 42//42 22//22 
f 43//43 31//31 22//22 
f 32//32 31//31 44//44 
f 45//45 39//39 38//38 
f 27//27 39//39 43//43 
f 28//28 27//27 46//46 
f 19//19 40//40 47//47 
f 28//28 46//46 40//40 
f 41//41 42//42 29//29 
f 41//41 19//19 47//47 
f 42//42 30//30 29//29 
f 42//42 48//48 22//22 
f 22//22 48//48 43//43 
f 39//39 49//49 43//43 
f 49//49 50//50 43//43 
f 53//53 31//31 52//52 
f 31//31 43//43 52//52 
f 52//52 43//43 51//51 
f 50//50 51//51 43//43 
f 31//31 53//53 44//44 
f 49//49 39//39 45//45 
f 43//43 54//54 27//27 
f 27//27 55//55 46//46 
f 40//40 55//55 47//47 
f 55//55 40//40 46//46 
f 42//42 41//41 48//48 
f 56//56 41//41 47//47 
f 48//48 56//56 43//43 
f 54//54 43//43 57//57 
f 54//54 55//55 27//27 
f 55//55 54//54 47//47 
f 48//48 41//41 56//56 
f 56//56 47//47 57//57 
f 56//56 57//57 43//43 
f 54//54 57//57 47//47 
f 58//58 59//59 60//60 
f 60//60 61//61 58//58 
f 59//59 58//58 62//62 
f 59//59 63//63 60//60 
f 64//64 15//15 60//60 
f 15//15 14//14 60//60 
f 12//12 61//61 13//13 
f 61//61 60//60 13//13 
f 13//13 60//60 24//24 
f 24//24 60//60 25//25 
f 14//14 25//25 60//60 
f 61//61 9//9 58//58 
f 9//9 8//8 58//58 
f 34//34 65//65 23//23 
f 65//65 58//58 23//23 
f 8//8 23//23 58//58 
f 59//59 62//62 66//66 
f 58//58 67//67 62//62 
f 63//63 59//59 66//66 
f 63//63 68//68 60//60 
f 69//69 64//64 60//60 
f 64//64 16//16 15//15 
f 11//11 61//61 12//12 
f 61//61 10//10 9//9 
f 33//33 65//65 34//34 
f 58//58 65//65 70//70 
f 67//67 66//66 62//62 
f 71//71 67//67 58//58 
f 72//72 63//63 66//66 
f 63//63 72//72 68//68 
f 60//60 68//68 73//73 
f 69//69 60//60 73//73 
f 74//74 35//35 69//69 
f 35//35 26//26 69//69 
f 16//16 64//64 17//17 
f 64//64 69//69 17//17 
f 26//26 17//17 69//69 
f 10//10 61//61 11//11 
f 65//65 33//33 70//70 
f 33//33 32//32 70//70 
f 52//52 75//75 53//53 
f 75//75 70//70 53//53 
f 53//53 70//70 44//44 
f 32//32 44//44 70//70 
f 58//58 70//70 71//71 
f 66//66 67//67 76//76 
f 67//67 71//71 76//76 
f 72//72 66//66 77//77 
f 73//73 68//68 72//72 
f 73//73 78//78 69//69 
f 79//79 74//74 69//69 
f 35//35 74//74 36//36 
f 51//51 75//75 52//52 
f 70//70 75//75 79//79 
f 71//71 70//70 80//80 
f 66//66 76//76 81//81 
f 71//71 80//80 76//76 
f 77//77 78//78 72//72 
f 77//77 66//66 81//81 
f 78//78 73//73 72//72 
f 78//78 82//82 69//69 
f 69//69 82//82 79//79 
f 75//75 50//50 79//79 
f 50//50 49//49 79//79 
f 37//37 74//74 38//38 
f 74//74 79//79 38//38 
f 38//38 79//79 45//45 
f 49//49 45//45 79//79 
f 74//74 37//37 36//36 
f 50//50 75//75 51//51 
f 79//79 83//83 70//70 
f 70//70 84//84 80//80 
f 76//76 84//84 81//81 
f 84//84 76//76 80//80 
f 78//78 77//77 82//82 
f 85//85 77//77 81//81 
f 82//82 85//85 79//79 
f 83//83 79//79 86//86 
f 83//83 84//84 70//70 
f 84//84 83//83 81//81 
f 82//82 77//77 85//85 
f 85//85 81//81 86//86 
f 85//85 86//86 79//79 
f 83//83 86//86 81//81 
