v 1.027999997 13.05000019 3.164999962
vn 0.4997515976 0.06838544458 0.8634650111
v 0.05620199814 13.05000019 1.827211142
vn -0.2484825253 0.5947273374 0.7645624876
v -2.691999912 13.05000019 1.95599997
vn -0.6658647656 0.0868755877 0.7409971356
v 1.027999997 -1 3.164999962
vn -0.1080879197 -0.01572858728 0.9940168858
v 0.6568920016 13.05000019 2.02243495
vn 0.2712889016 0.2875432074 0.9185429811
v -1.162515998 13.05000019 1.431128025
vn -0.3074305654 0.1033624783 0.9459400773
v -2.691999912 -1 1.95599997
vn -0.9787621498 -0.01572328806 0.2043952346
v -1.663722992 -1 2.290189981
vn -0.624930203 -0.0287421979 0.7801513672
v -1.663722992 1 2.290189981
vn -0.6534210443 0.01613879576 0.7568226457
v -1.027999997 1 2.496799946
vn -0.3086572587 0.05266381055 0.949714303
v -0.6353139877 1 2.624423027
vn -0.3086571693 0.05266382545 0.949714303
v 0 1 2.830899954
vn -0.2459458858 0.02191537991 0.9690358043
v 0 -1 2.830899954
vn 0.2459458858 -0.02191537991 0.9690358043
v 1.663722992 -1 2.290189981
vn 0.6534210443 -0.01613879576 0.7568226457
v 1.663722992 1 2.290189981
vn 0.624930203 0.0287421979 0.7801513672
v 2.691999912 1 0.8751909733
vn 0.8309087157 0.03429170698 0.5553510189
v 2.691999912 -1 0.8751909733
vn 0.9986389279 -0.03434919938 0.03924766183
v 3.328000069 -1 0
vn 0.9119654298 -0.01574467681 0.4099647999
v 0.6568920016 17.04999924 2.02243495
vn 0.1391406804 0.6601190567 0.7381616831
v 1.00169003 13.05000019 1.547963977
vn 0.8079883456 0.04892462119 0.5871636868
v -1.720188022 13.05000019 1.249884009
vn -0.9289861321 0.270326674 0.2528008521
v -2.691999912 13.05000019 -1.95599997
vn -0.9121524096 0.06365507841 -0.4048777521
v -2.691999912 -1 0.8751909733
vn -0.8309087157 -0.03429170698 0.5553510189
v 0.6353139877 -1 2.624423027
vn 0.3086571693 -0.05266382545 0.949714303
v 1.027999997 -1 2.496799946
vn 0.3086572587 -0.05266381055 0.949714303
v 2.691999912 -1 -0.8751909733
vn 0.9641347528 -0.02877482958 -0.2638486922
v 3.328000069 13.05000019 0
vn 0.9742127657 0.08688914031 -0.2082301527
v 1.027999997 13.05000019 1.51175797
vn 0.6503491998 0.5947169662 0.4726072848
v -1.720188022 17.04999924 1.249884009
vn -0.8526055217 0.2359991223 0.4662276804
v -1.720188022 13.05000019 -0.6181910038
vn -0.8039571643 0.5946872234 0
v -2.691999912 -1 -1.95599997
vn -0.4968446791 -0.01572372206 -0.8676970005
v -2.691999912 -1 -0.8751909733
vn -0.9734779 -0.01613203436 -0.2282116562
v -2.691999912 1 -0.8751909733
vn -0.9641347528 0.02877482958 -0.2638486922
v -2.691999912 1 0.8751909733
vn -0.9986389279 0.03434919938 0.03924766183
v 2.691999912 1 -0.8751909733
vn 0.9734779 0.01613203436 -0.2282116562
v 2.29936409 1 -1.415492058
vn 0.8078349829 0.05265482143 -0.5870520473
v 1.663722992 1 -2.290189981
vn 0.7768582702 0.02820979245 -0.6290432811
v 1.663722992 -1 -2.290189981
vn 0.3707106411 -0.02191701904 -0.9284898043
v 1.027999997 -1 -3.164999962
vn 0.6716849208 -0.01572526433 -0.7406700253
v 2.126591921 17.04999924 0
vn 0.963799119 0.2360825837 0.1239205003
v -1.720188022 17.04999924 -1.249884009
vn -0.6139343381 0.5365663767 -0.578948319
v -1.720188022 13.05000019 -0.6634280086
vn -0.9988011718 0.04895087704 0
v 1.027999997 13.05000019 -3.164999962
vn 0.1030942351 0.08236455172 -0.9912555814
v -2.29936409 -1 -1.415492058
vn -0.8078349829 -0.05265482143 -0.5870520473
v 1.027999997 -1 -2.496799946
vn 0.3086571395 -0.05266382545 -0.949714303
v 2.126591921 13.05000019 0
vn 0.9001197815 0.2703528702 0.3416045606
v 0.6568920016 17.04999924 -2.02243495
vn 0.3609471321 0.5365961194 -0.7627462149
v -1.720188022 13.05000019 -1.249884009
vn -0.4412641227 0.5836264491 -0.6816642284
v 0 -1 -2.830899954
vn -0.02158433571 -0.02218869701 -0.9995207787
v 0 1 -2.830899954
vn 0.02158433571 0.02218869701 -0.9995207787
v -1.027999997 1 -2.496799946
vn -0.3086571395 0.05266382545 -0.949714303
v -1.663722992 1 -2.290189981
vn -0.3707106411 0.02191701904 -0.9284898043
v -1.663722992 -1 -2.290189981
vn -0.7768582702 -0.02820979245 -0.6290432811
v 1.027999997 13.05000019 -1.51175797
vn 0.650349021 0.5947172642 -0.4726071954
v 1.781793952 13.05000019 -0.4744710028
vn 0.8046230674 0.1033749133 -0.5847181678
v 0.09921900183 13.05000019 -1.841191053
vn -0.306829989 0.1206025109 -0.9440923929
v 0.6568920016 13.05000019 -2.02243495
vn 0.3201709092 0.2875437438 -0.9026678205
v -1.027999997 -13.05000019 3.164999962
vn -0.4997515976 -0.06838544458 0.8634650111
v -0.05620199814 -13.05000019 1.827211142
vn 0.2484825253 -0.5947273374 0.7645624876
v 2.691999912 -13.05000019 1.95599997
vn 0.6658647656 -0.0868755877 0.7409971356
v -1.027999997 1 3.164999962
vn 0.1080879197 0.01572858728 0.9940168858
v -0.6568920016 -13.05000019 2.02243495
vn -0.2712889016 -0.2875432074 0.9185429811
v 1.162515998 -13.05000019 1.431128025
vn 0.3074305654 -0.1033624783 0.9459400773
v 2.691999912 1 1.95599997
vn 0.9787621498 0.01572328806 0.2043952346
v -3.328000069 1 0
vn -0.9119654298 0.01574467681 0.4099647999
v -0.6568920016 -17.04999924 2.02243495
vn -0.1391406804 -0.6601190567 0.7381616831
v -1.00169003 -13.05000019 1.547963977
vn -0.8079883456 -0.04892462119 0.5871636868
v 1.720188022 -13.05000019 1.249884009
vn 0.9289861321 -0.270326674 0.2528008521
v 2.691999912 -13.05000019 -1.95599997
vn 0.9121524096 -0.06365507841 -0.4048777521
v -3.328000069 -13.05000019 0
vn -0.9742127657 -0.08688914031 -0.2082301527
v -1.027999997 -13.05000019 1.51175797
vn -0.6503491998 -0.5947169662 0.4726072848
v 1.720188022 -17.04999924 1.249884009
vn 0.8526055217 -0.2359991223 0.4662276804
v 1.720188022 -13.05000019 -0.6181910038
vn 0.8039571643 -0.5946872234 0
v 2.691999912 1 -1.95599997
vn 0.4968446791 0.01572372206 -0.8676970005
v -1.027999997 1 -3.164999962
vn -0.6716849208 0.01572526433 -0.7406700253
v -2.126591921 -17.04999924 0
vn -0.963799119 -0.2360825837 0.1239205003
v 1.720188022 -17.04999924 -1.249884009
vn 0.6139343381 -0.5365663767 -0.578948319
v 1.720188022 -13.05000019 -0.6634280086
vn 0.9988011718 -0.04895087704 0
v -1.027999997 -13.05000019 -3.164999962
vn -0.1030942351 -0.08236455172 -0.9912555814
v -2.126591921 -13.05000019 0
vn -0.9001197815 -0.2703528702 0.3416045606
v -0.6568920016 -17.04999924 -2.02243495
vn -0.3609471321 -0.5365961194 -0.7627462149
v 1.720188022 -13.05000019 -1.249884009
vn 0.4412641227 -0.5836264491 -0.6816642284
v -1.027999997 -13.05000019 -1.51175797
vn -0.650349021 -0.5947172642 -0.4726071954
v -1.781793952 -13.05000019 -0.4744710028
vn -0.8046230674 -0.1033749133 -0.5847181678
v -0.09921900183 -13.05000019 -1.841191053
vn 0.306829989 -0.1206025109 -0.9440923929
v -0.6568920016 -13.05000019 -2.02243495
vn -0.3201709092 -0.2875437438 -0.9026678205
# mm_gid 0
g mmGroup0
f 1//1 2//2 3//3 
f 3//3 4//4 1//1 
f 2//2 1//1 5//5 
f 2//2 6//6 3//3 
f 7//7 8//8 3//3 
f 8//8 9//9 3//3 
f 13//13 4//4 12//12 
f 4//4 3//3 12//12 
f 12//12 3//3 11//11 
f 11//11 3//3 10//10 
f 9//9 10//10 3//3 
f 4//4 14//14 1//1 
f 14//14 15//15 1//1 
f 17//17 18//18 16//16 
f 18//18 1//1 16//16 
f 15//15 16//16 1//1 
f 2//2 5//5 19//19 
f 1//1 20//20 5//5 
f 6//6 2//2 19//19 
f 6//6 21//21 3//3 
f 22//22 7//7 3//3 
f 7//7 23//23 8//8 
f 24//24 4//4 13//13 
f 4//4 25//25 14//14 
f 26//26 18//18 17//17 
f 1//1 18//18 27//27 
f 20//20 19//19 5//5 
f 28//28 20//20 1//1 
f 29//29 6//6 19//19 
f 6//6 29//29 21//21 
f 3//3 21//21 30//30 
f 22//22 3//3 30//30 
f 31//31 32//32 22//22 
f 32//32 33//33 22//22 
f 23//23 7//7 34//34 
f 7//7 22//22 34//34 
f 33//33 34//34 22//22 
f 25//25 4//4 24//24 
f 18//18 26//26 27//27 
f 26//26 35//35 27//27 
f 38//38 39//39 37//37 
f 39//39 27//27 37//37 
f 37//37 27//27 36//36 
f 35//35 36//36 27//27 
f 1//1 27//27 28//28 
f 19//19 20//20 40//40 
f 20//20 28//28 40//40 
f 29//29 19//19 41//41 
f 30//30 21//21 29//29 
f 30//30 42//42 22//22 
f 43//43 31//31 22//22 
f 32//32 31//31 44//44 
f 45//45 39//39 38//38 
f 27//27 39//39 43//43 
f 28//28 27//27 46//46 
f 19//19 40//40 47//47 
f 28//28 46//46 40//40 
f 41//41 42//42 29//29 
f 41//41 19//19 47//47 
f 42//42 30//30 29//29 
f 42//42 48//48 22//22 
f 22//22 48//48 43//43 
f 39//39 49//49 43//43 
f 49//49 50//50 43//43 
f 53//53 31//31 52//52 
f 31//31 43//43 52//52 
f 52//52 43//43 51//51 
f 50//50 51//51 43//43 
f 31//31 53//53 44//44 
f 49//49 39//39 45//45 
f 43//43 54//54 27//27 
f 27//27 55//55 46//46 
f 40//40 55//55 47//47 
f 55//55 40//40 46//46 
f 42//42 41//41 48//48 
f 56//56 41//41 47//47 
f 48//48 56//56 43//43 
f 54//54 43//43 57//57 
f 54//54 55//55 27//27 
f 55//55 54//54 47//47 
f 48//48 41//41 56//56 
f 56//56 47//47 57//57 
f 56//56 57//57 43//43 
f 54//54 57//57 47//47 
f 58//58 59//59 60//60 
f 60//60 61//61 58//58 
f 59//59 58//58 62//62 
f 59//59 63//63 60//60 
f 64//64 15//15 60//60 
f 15//15 14//14 60//60 
f 12//12 61//61 13//13 
f 61//61 60//60 13//13 
f 13//13 60//60 24//24 
f 24//24 60//60 25//25 
f 14//14 25//25 60//60 
f 61//61 9//9 58//58 
f 9//9 8//8 58//58 
f 34//34 65//65 23//23 
f 65//65 58//58 23//23 
f 8//8 23//23 58//58 
f 59//59 62//62 66//66 
f 58//58 67//67 62//62 
f 63//63 59//59 66//66 
f 63//63 68//68 60//60 
f 69//69 64//64 60//60 
f 64//64 16//16 15//15 
f 11//11 61//61 12//12 
f 61//61 10//10 9//9 
f 33//33 65//65 34//34 
f 58//58 65//65 70//70 
f 67//67 66//66 62//62 
f 71//71 67//67 58//58 
f 72//72 63//63 66//66 
f 63//63 72//72 68//68 
f 60//60 68//68 73//73 
f 69//69 60//60 73//73 
f 74//74 35//35 69//69 
f 35//35 26//26 69//69 
f 16//16 64//64 17//17 
f 64//64 69//69 17//17 
f 26//26 17//17 69//69 
f 10//10 61//61 11//11 
f 65//65 33//33 70//70 
f 33//33 32//32 70//70 
f 52//52 75//75 53//53 
f 75//75 70//70 53//53 
f 53//53 70//70 44//44 
f 32//32 44//44 70//70 
f 58//58 70//70 71//71 
f 66//66 67//67 76//76 
f 67//67 71//71 76//76 
f 72//72 66//66 77//77 
f 73//73 68//68 72//72 
f 73//73 78//78 69//69 
f 79//79 74//74 69//69 
f 35//35 74//74 36//36 
f 51//51 75//75 52//52 
f 70//70 75//75 79//79 
f 71//71 70//70 80//80 
f 66//66 76//76 81//81 
f 71//71 80//80 76//76 
f 77//77 78//78 72//72 
f 77//77 66//66 81//81 
f 78//78 73//73 72//72 
f 78//78 82//82 69//69 
f 69//69 82//82 79//79 
f 75//75 50//50 79//79 
f 50//50 49//49 79//79 
f 37//37 74//74 38//38 
f 74//74 79//79 38//38 
f 38//38 79//79 45//45 
f 49//49 45//45 79//79 
f 74//74 37//37 36//36 
f 50//50 75//75 51//51 
f 79//79 83//83 70//70 
f 70//70 84//84 80//80 
f 76//76 84//84 81//81 
f 84//84 76//76 80//80 
f 78//78 77//77 82//82 
f 85//85 77//77 81//81 
f 82//82 85//85 79//79 
f 83//83 79//79 86//86 
f 83//83 84//84 70//70 
f 84//84 83//83 81//81 
f 82//82 77//77 85//85 
f 85//85 81//81 86//86 
f 85//85 86//86 79//79 
f 83//83 86//86 81//81 
