v 50.98202896 -167.459549 119.8254395
vn 0.24033162 -0.7894118428 0.5648624897
v 8.587685585 125.0651932 171.1284637
vn 0.04048272967 0.5895629525 0.806707263
v -50.98202896 167.459549 -119.8254395
vn -0.24033162 0.7894118428 -0.5648624897
v -8.587685585 -125.0651932 -171.1284637
vn -0.04048272967 -0.5895629525 -0.806707263
v -115.6920853 -46.8486824 171.5241699
vn -0.5453777313 -0.2208468169 0.8085727096
v 175.261795 4.45433712 119.429718
vn 0.826192081 0.02099796012 0.5629971027
v -166.674118 120.6108551 51.69873428
vn -0.8853480816 0.3985894322 0.2393433154
v 124.2797699 171.9138794 -0.3957149982
vn 0.7285737395 0.683167398 -0.0496246703
v -175.261795 -4.45433712 -119.429718
vn -0.826192081 -0.02099796012 -0.5629971027
v 115.6920853 46.8486824 -171.5241699
vn 0.5453777313 0.2208468169 -0.8085727096
v -124.2797699 -171.9138794 0.3957149982
vn -0.7285737395 -0.683167398 0.0496246703
v 166.674118 -120.6108551 -51.69873428
vn 0.8853480816 -0.3985894322 -0.2393433154
# mm_gid 0
g mmGroup0
f 5//5 11//11 1//1 
f 12//12 6//6 1//1 
f 7//7 5//5 2//2 
f 6//6 8//8 2//2 
f 9//9 7//7 3//3 
f 5//5 1//1 2//2 
f 2//2 1//1 6//6 
f 8//8 10//10 3//3 
f 11//11 9//9 4//4 
f 7//7 2//2 3//3 
f 3//3 2//2 8//8 
f 10//10 12//12 4//4 
f 9//9 11//11 7//7 
f 7//7 11//11 5//5 
f 6//6 12//12 8//8 
f 8//8 12//12 10//10 
f 11//11 4//4 1//1 
f 1//1 4//4 12//12 
f 9//9 3//3 4//4 
f 4//4 3//3 10//10 
