v 33.98802185 -111.6396942 79.88362122
vn 0.24033162 -0.7894118428 0.5648624897
v 5.725123882 83.37679291 114.08564
vn 0.04048274457 0.5895629525 0.8067073226
v -33.98802185 111.6396942 -79.88362122
vn -0.24033162 0.7894118428 -0.5648624897
v -5.725123882 -83.37679291 -114.08564
vn -0.04048274457 -0.5895629525 -0.8067073226
v -77.12805939 -31.23245621 114.3494492
vn -0.5453777313 -0.2208468318 0.8085727096
v 116.8412018 2.969558001 79.61981201
vn 0.826192081 0.02099795453 0.5629971027
v -111.1160812 80.40723419 34.46582413
vn -0.8853480816 0.3985894322 0.2393433303
v 82.85317993 114.6092529 -0.2638100088
vn 0.7285737395 0.683167398 -0.04962467402
v -116.8412018 -2.969558001 -79.61981201
vn -0.826192081 -0.02099795453 -0.5629971027
v 77.12805939 31.23245621 -114.3494492
vn 0.5453777313 0.2208468318 -0.8085727096
v -82.85317993 -114.6092529 0.2638100088
vn -0.7285737395 -0.683167398 0.04962467402
v 111.1160812 -80.40723419 -34.46582413
vn 0.8853480816 -0.3985894322 -0.2393433303
# mm_gid 0
g mmGroup0
f 5//5 11//11 1//1 
f 12//12 6//6 1//1 
f 7//7 5//5 2//2 
f 6//6 8//8 2//2 
f 9//9 7//7 3//3 
f 5//5 1//1 2//2 
f 2//2 1//1 6//6 
f 8//8 10//10 3//3 
f 11//11 9//9 4//4 
f 7//7 2//2 3//3 
f 3//3 2//2 8//8 
f 10//10 12//12 4//4 
f 9//9 11//11 7//7 
f 7//7 11//11 5//5 
f 6//6 12//12 8//8 
f 8//8 12//12 10//10 
f 11//11 4//4 1//1 
f 1//1 4//4 12//12 
f 9//9 3//3 4//4 
f 4//4 3//3 10//10 
