v 1.176959991 43.59770966 2.038187027
vn 0.7746531367 0.447096467 0.4472329319
v -2.353178978 43.59770966 0
vn -0.850135982 0.1907163411 0.4908117056
v 1.176959991 43.59770966 -2.038187027
vn 0 0.3278734386 -0.9447216392
v 1.85056603 43.59770966 -3.20469594
vn 0.6509780884 0.02699436247 -0.7586163878
v -3.699967146 43.59770966 0
vn -0.9822561145 0.03349537775 -0.1845289469
v 1.85056603 43.59770966 3.20469594
vn 0.3314678669 0.02048206516 0.9432441592
v -2.353178978 47.59999847 0
vn -0.7717278004 0.4537914097 -0.445544064
v 1.176959991 47.59999847 2.038187027
vn 0 0.4537994266 0.8911038637
v 1.176959991 47.59999847 -2.038187027
vn 0.7717278004 0.4537914097 -0.445544064
v 1.85056603 0 -3.20469594
vn 0.5000109673 -2.79588019e-018 -0.8660190701
v 0 0 -2.136240005
vn 1.527917239e-017 0 -1
v 0 0.7785309553 -2.136240005
vn -0.4932098389 0.0107081756 -0.8698444366
v -1.85056603 0.7785309553 -1.067783952
vn -0.5065518022 0.02113073692 -0.8619505763
v -1.85056603 0 -1.067783952
vn -0.866122663 0 -0.4998314977
v -3.699967146 0 0
vn -1 0 -8.059186959e-017
v -1.85056603 0 1.067783952
vn -0.866122663 0 0.4998314977
v -1.85056603 0.7785309553 1.067783952
vn -0.5067244172 0.01070820168 0.8620415926
v 0 0.7785309553 2.136240005
vn -0.4932195246 0.02112400346 0.8696483374
v 0 0 2.136240005
vn 0 0 1
v 1.85056603 0 3.20469594
vn 0.5000109673 -3.505903283e-018 0.8660190701
v 1.85056603 0 1.067783952
vn 0.866122663 0 0.4998314977
v 1.85056603 0.7785309553 1.067783952
vn 0.9999123812 0.01069615595 0.007798665203
v 1.85056603 0.7785309553 -1.067783952
vn 0.9997476935 0.02110351622 -0.007693383377
v 1.85056603 0 -1.067783952
vn 0.866122663 0 -0.4998314977
v 1.85056603 -0.7785309553 -3.20469594
vn 0.5100131631 -0.8081999421 -0.2944476604
v 0 -0.7785309553 -2.136240005
vn 0.4932098389 -0.0107081756 -0.8698444366
v -1.85056603 0 -3.20469594
vn -0.5000109673 2.79588019e-018 -0.8660190701
v -1.85056603 0.7785309553 -3.20469594
vn -0.5100131631 0.8081999421 -0.2944476604
v -1.85056603 -0.7785309553 -1.067783952
vn -0.9997476935 -0.02110351622 -0.007693383377
v -3.699967146 -0.7785309553 0
vn -0.510223031 -0.8080233932 -0.2945685983
v -1.85056603 -0.7785309553 1.067783952
vn -0.9999123812 -0.01069615595 0.007798665203
v -1.85056603 0 3.20469594
vn -0.5000109673 3.505903283e-018 0.8660190701
v -1.85056603 0.7785309553 3.20469594
vn -1.8967798e-008 0.8082060814 0.5888997912
v 0 -0.7785309553 2.136240005
vn 0.4932195246 -0.02112400346 0.8696483374
v 1.85056603 -0.7785309553 3.20469594
vn 1.8967798e-008 -0.8082060814 0.5888997912
v 1.85056603 -0.7785309553 1.067783952
vn 0.5067244172 -0.01070820168 0.8620415926
v 3.699967146 0 0
vn 1 0 0
v 3.699967146 0.7785309553 0
vn 0.510223031 0.8080233932 -0.2945685983
v 1.85056603 -0.7785309553 -1.067783952
vn 0.5065518022 -0.02113073692 -0.8619505763
v 3.699967146 -43.59770966 0
vn 0.9822561145 -0.03349537775 -0.1845289469
v -1.85056603 -43.59770966 -3.20469594
vn -0.6509780884 -0.02699436247 -0.7586163878
v -1.85056603 -43.59770966 3.20469594
vn -0.3314678669 -0.02048206516 0.9432441592
v -1.176959991 -43.59770966 2.038187027
vn -0.7746531367 -0.447096467 0.4472329319
v 2.353178978 -43.59770966 0
vn 0.850135982 -0.1907163411 0.4908117056
v -1.176959991 -43.59770966 -2.038187027
vn 0 -0.3278734386 -0.9447216392
v 2.353178978 -47.59999847 0
vn 0.7717278004 -0.4537914097 -0.445544064
v -1.176959991 -47.59999847 2.038187027
vn 0 -0.4537994266 0.8911038637
v -1.176959991 -47.59999847 -2.038187027
vn -0.7717278004 -0.4537914097 -0.445544064
# mm_gid 0
g mmGroup0
f 1//1 2//2 5//5 
f 4//4 5//5 3//3 
f 2//2 3//3 5//5 
f 5//5 6//6 1//1 
f 6//6 4//4 1//1 
f 4//4 3//3 1//1 
f 7//7 2//2 8//8 
f 8//8 2//2 1//1 
f 9//9 3//3 7//7 
f 7//7 3//3 2//2 
f 10//10 11//11 4//4 
f 11//11 12//12 4//4 
f 4//4 12//12 5//5 
f 12//12 13//13 5//5 
f 14//14 15//15 13//13 
f 13//13 15//15 5//5 
f 15//15 16//16 5//5 
f 16//16 17//17 5//5 
f 5//5 17//17 6//6 
f 17//17 18//18 6//6 
f 19//19 20//20 18//18 
f 18//18 20//20 6//6 
f 20//20 21//21 6//6 
f 21//21 22//22 6//6 
f 6//6 22//22 4//4 
f 22//22 23//23 4//4 
f 24//24 10//10 23//23 
f 23//23 10//10 4//4 
f 8//8 1//1 9//9 
f 9//9 1//1 3//3 
f 9//9 7//7 8//8 
f 11//11 10//10 26//26 
f 26//26 10//10 25//25 
f 11//11 27//27 12//12 
f 12//12 27//27 28//28 
f 12//12 28//28 13//13 
f 27//27 14//14 28//28 
f 28//28 14//14 13//13 
f 15//15 14//14 30//30 
f 30//30 14//14 29//29 
f 16//16 15//15 31//31 
f 31//31 15//15 30//30 
f 16//16 32//32 17//17 
f 17//17 32//32 33//33 
f 33//33 18//18 17//17 
f 32//32 19//19 33//33 
f 33//33 19//19 18//18 
f 20//20 19//19 35//35 
f 35//35 19//19 34//34 
f 21//21 20//20 36//36 
f 36//36 20//20 35//35 
f 21//21 37//37 22//22 
f 22//22 37//37 38//38 
f 22//22 38//38 23//23 
f 37//37 24//24 38//38 
f 38//38 24//24 23//23 
f 10//10 24//24 25//25 
f 25//25 24//24 39//39 
f 27//27 11//11 41//41 
f 11//11 26//26 41//41 
f 41//41 26//26 40//40 
f 26//26 39//39 40//40 
f 24//24 37//37 39//39 
f 39//39 37//37 40//40 
f 26//26 25//25 39//39 
f 32//32 16//16 42//42 
f 16//16 31//31 42//42 
f 42//42 31//31 41//41 
f 31//31 29//29 41//41 
f 14//14 27//27 29//29 
f 29//29 27//27 41//41 
f 31//31 30//30 29//29 
f 37//37 21//21 40//40 
f 21//21 36//36 40//40 
f 40//40 36//36 42//42 
f 36//36 34//34 42//42 
f 19//19 32//32 34//34 
f 34//34 32//32 42//42 
f 35//35 34//34 36//36 
f 43//43 44//44 40//40 
f 41//41 40//40 45//45 
f 44//44 45//45 40//40 
f 40//40 42//42 43//43 
f 42//42 41//41 43//43 
f 41//41 45//45 43//43 
f 46//46 44//44 47//47 
f 47//47 44//44 43//43 
f 48//48 45//45 46//46 
f 46//46 45//45 44//44 
f 47//47 43//43 48//48 
f 48//48 43//43 45//45 
f 46//46 47//47 48//48 
