v 1.20590198 23.5535984 2.08830595
vn 0.7705909014 0.4563600123 0.4448878169
v -2.411043882 23.5535984 0
vn -0.8493195176 0.1955061108 0.4903404415
v 1.20590198 23.5535984 -2.08830595
vn -1.15768956e-016 0.335478723 -0.9420477748
v 1.89607203 23.5535984 -3.283499956
vn 0.650363028 0.05114687979 -0.7578997016
v -3.790950298 23.5535984 0
vn -0.9808284044 0.06343222409 -0.1842607707
v 1.89607203 23.5535984 3.283499956
vn 0.3312874436 0.03882343695 0.9427307844
v -2.411043882 27.54999924 0
vn -0.767559886 0.4631204903 -0.4431379139
v 1.20590198 27.54999924 2.08830595
vn 0 0.4631284773 0.8862911463
v 1.20590198 27.54999924 -2.08830595
vn 0.767559886 0.4631204903 -0.4431379139
v 1.89607203 0 -3.283499956
vn 0.5000107288 -5.073176038e-018 -0.8660191894
v 0 0 -2.188770056
vn -1.800194491e-017 0 -1
v 0 0.420599997 -2.188770056
vn -0.4931363463 0.02030520327 -0.869715035
v -1.89607203 0.420599997 -1.09404099
vn -0.5062582493 0.04005159065 -0.8614513874
v -1.89607203 0 -1.09404099
vn -0.866122663 5.657427684e-017 -0.4998315275
v -3.790950298 0 0
vn -1 -5.069981053e-018 1.476752577e-016
v -1.89607203 0 1.09404099
vn -0.866122663 0 0.4998315275
v -1.89607203 0.420599997 1.09404099
vn -0.5066488981 0.0203052517 0.8619133234
v 0 0.420599997 2.188770056
vn -0.4929339588 0.04003881291 0.8691449761
v 0 0 2.188770056
vn 0 0 1
v 1.89607203 0 3.283499956
vn 0.5000107288 6.730245866e-018 0.8660191894
v 1.89607203 0 1.09404099
vn 0.866122663 0 0.4998315275
v 1.89607203 0.420599997 1.09404099
vn 0.999763906 0.02028242499 0.007797502447
v 1.89607203 0.420599997 -1.09404099
vn 0.9991700649 0.04000004381 -0.007688934449
v 1.89607203 0 -1.09404099
vn 0.866122663 -5.657427684e-017 -0.4998315275
v 1.89607203 -0.420599997 -3.283499956
vn 0.3106037378 -0.9334714413 -0.1793219745
v 0 -0.420599997 -2.188770056
vn 0.4931363463 -0.02030520327 -0.869715035
v -1.89607203 0 -3.283499956
vn -0.5000107288 5.073176038e-018 -0.8660191894
v -1.89607203 0.420599997 -3.283499956
vn -0.3106037378 0.9334714413 -0.1793219745
v -1.89607203 -0.420599997 -1.09404099
vn -0.9991700649 -0.04000004381 -0.007688934449
v -3.790950298 -0.420599997 0
vn -0.3107742965 -0.933395803 -0.1794202775
v -1.89607203 -0.420599997 1.09404099
vn -0.999763906 -0.02028242499 0.007797502447
v -1.89607203 0 3.283499956
vn -0.5000107288 -6.730245866e-018 0.8660191894
v -1.89607203 0.420599997 3.283499956
vn 7.892017351e-008 0.9334740639 0.3586449325
v 0 -0.420599997 2.188770056
vn 0.4929339588 -0.04003881291 0.8691449761
v 1.89607203 -0.420599997 3.283499956
vn -7.892017351e-008 -0.9334740639 0.3586449325
v 1.89607203 -0.420599997 1.09404099
vn 0.5066488981 -0.0203052517 0.8619133234
v 3.790950298 0 0
vn 1 5.069981053e-018 1.331157275e-016
v 3.790950298 0.420599997 0
vn 0.3107742965 0.933395803 -0.1794202775
v 1.89607203 -0.420599997 -1.09404099
vn 0.5062582493 -0.04005159065 -0.8614513874
v 3.790950298 -23.5535984 0
vn 0.9808284044 -0.06343222409 -0.1842607707
v -1.89607203 -23.5535984 -3.283499956
vn -0.650363028 -0.05114687979 -0.7578997016
v -1.89607203 -23.5535984 3.283499956
vn -0.3312874436 -0.03882343695 0.9427307844
v -1.20590198 -23.5535984 2.08830595
vn -0.7705909014 -0.4563600123 0.4448878169
v 2.411043882 -23.5535984 0
vn 0.8493195176 -0.1955061108 0.4903404415
v -1.20590198 -23.5535984 -2.08830595
vn 1.15768956e-016 -0.335478723 -0.9420477748
v 2.411043882 -27.54999924 0
vn 0.767559886 -0.4631204903 -0.4431379139
v -1.20590198 -27.54999924 2.08830595
vn 0 -0.4631284773 0.8862911463
v -1.20590198 -27.54999924 -2.08830595
vn -0.767559886 -0.4631204903 -0.4431379139
# mm_gid 0
g mmGroup0
f 1//1 2//2 5//5 
f 4//4 5//5 3//3 
f 2//2 3//3 5//5 
f 5//5 6//6 1//1 
f 6//6 4//4 1//1 
f 4//4 3//3 1//1 
f 7//7 2//2 8//8 
f 8//8 2//2 1//1 
f 9//9 3//3 7//7 
f 7//7 3//3 2//2 
f 10//10 11//11 4//4 
f 11//11 12//12 4//4 
f 4//4 12//12 5//5 
f 12//12 13//13 5//5 
f 14//14 15//15 13//13 
f 13//13 15//15 5//5 
f 15//15 16//16 5//5 
f 16//16 17//17 5//5 
f 5//5 17//17 6//6 
f 17//17 18//18 6//6 
f 19//19 20//20 18//18 
f 18//18 20//20 6//6 
f 20//20 21//21 6//6 
f 21//21 22//22 6//6 
f 6//6 22//22 4//4 
f 22//22 23//23 4//4 
f 24//24 10//10 23//23 
f 23//23 10//10 4//4 
f 8//8 1//1 9//9 
f 9//9 1//1 3//3 
f 8//8 9//9 7//7 
f 11//11 10//10 26//26 
f 26//26 10//10 25//25 
f 11//11 27//27 12//12 
f 12//12 27//27 28//28 
f 12//12 28//28 13//13 
f 27//27 14//14 28//28 
f 28//28 14//14 13//13 
f 15//15 14//14 30//30 
f 30//30 14//14 29//29 
f 16//16 15//15 31//31 
f 31//31 15//15 30//30 
f 16//16 32//32 17//17 
f 17//17 32//32 33//33 
f 33//33 18//18 17//17 
f 32//32 19//19 33//33 
f 33//33 19//19 18//18 
f 20//20 19//19 35//35 
f 35//35 19//19 34//34 
f 21//21 20//20 36//36 
f 36//36 20//20 35//35 
f 21//21 37//37 22//22 
f 22//22 37//37 38//38 
f 22//22 38//38 23//23 
f 37//37 24//24 38//38 
f 38//38 24//24 23//23 
f 10//10 24//24 25//25 
f 25//25 24//24 39//39 
f 27//27 11//11 41//41 
f 11//11 26//26 41//41 
f 41//41 26//26 40//40 
f 26//26 39//39 40//40 
f 24//24 37//37 39//39 
f 39//39 37//37 40//40 
f 26//26 25//25 39//39 
f 32//32 16//16 42//42 
f 16//16 31//31 42//42 
f 42//42 31//31 41//41 
f 31//31 29//29 41//41 
f 14//14 27//27 29//29 
f 29//29 27//27 41//41 
f 31//31 30//30 29//29 
f 37//37 21//21 40//40 
f 21//21 36//36 40//40 
f 40//40 36//36 42//42 
f 36//36 34//34 42//42 
f 19//19 32//32 34//34 
f 34//34 32//32 42//42 
f 35//35 34//34 36//36 
f 43//43 44//44 40//40 
f 41//41 40//40 45//45 
f 44//44 45//45 40//40 
f 40//40 42//42 43//43 
f 42//42 41//41 43//43 
f 41//41 45//45 43//43 
f 46//46 44//44 47//47 
f 47//47 44//44 43//43 
f 48//48 45//45 46//46 
f 46//46 45//45 44//44 
f 47//47 43//43 48//48 
f 48//48 43//43 45//45 
f 48//48 46//46 47//47 
