v 1.20590198 44.0118866 2.08830595
vn 0.7723314762 0.4524199963 0.4458926916
v -2.411043882 44.0118866 0
vn -0.849670589 0.1934613436 0.4905431569
v 1.20590198 44.0118866 -2.08830595
vn 0 0.3322372437 -0.9431958795
v 1.89607203 44.0118866 -3.283499956
vn 0.6509708762 0.02739757672 -0.7586081028
v -3.79095006 44.0118866 0
vn -0.9822395444 0.0339955166 -0.1845258623
v 1.89607203 44.0118866 3.283499956
vn 0.3314657509 0.02078810707 0.9432381988
v -2.411043882 48.0521965 0
vn -0.7693455219 0.4591530859 -0.4441688061
v 1.20590198 48.0521965 2.08830595
vn 0 0.4591610432 0.8883530498
v 1.20590198 48.0521965 -2.08830595
vn 0.7693455219 0.4591530859 -0.4441688061
v 1.89607203 0 -3.283499956
vn 0.5000107288 -2.832809048e-018 -0.8660191894
v 0 0 -2.188770056
vn -4.49586725e-018 0 -1
v 0 0.7859269977 -2.188770056
vn -0.493208915 0.01086822245 -0.8698430061
v -1.89607203 0.7859269977 -1.09404099
vn -0.5065482855 0.02144646831 -0.8619448543
v -1.89607203 0 -1.09404099
vn -0.866122663 3.159204261e-017 -0.4998315275
v -3.79095006 0 0
vn -1 6.690252304e-019 2.203950612e-016
v -1.89607203 0 1.09404099
vn -0.866122663 0 0.4998315275
v -1.89607203 0.7859269977 1.09404099
vn -0.5067234635 0.01086824853 0.8620401621
v 0 0.7859269977 2.188770056
vn -0.493216157 0.0214396175 0.8696425557
v 0 0 2.188770056
vn 0 0 1
v 1.89607203 0 3.283499956
vn 0.5000107288 0 0.8660191894
v 1.89607203 0 1.09404099
vn 0.866122663 0 0.4998315275
v 1.89607203 0.7859269977 1.09404099
vn 0.9999106526 0.01085602678 0.007798651233
v 1.89607203 0.7859269977 -1.09404099
vn 0.9997410178 0.02141883411 -0.007693331223
v 1.89607203 0 -1.09404099
vn 0.866122663 -3.159204261e-017 -0.4998315275
v 1.89607203 -0.7859269977 -3.283499956
vn 0.5050689578 -0.8123292327 -0.2915932536
v 0 -0.7859269977 -2.188770056
vn 0.493208915 -0.01086822245 -0.8698430061
v -1.89607203 0 -3.283499956
vn -0.5000107288 2.832809048e-018 -0.8660191894
v -1.89607203 0.7859269977 -3.283499956
vn -0.5050689578 0.8123292327 -0.2915932536
v -1.89607203 -0.7859269977 -1.09404099
vn -0.9997410178 -0.02141883411 -0.007693331223
v -3.79095006 -0.7859269977 0
vn -0.505278945 -0.8121551275 -0.2917142212
v -1.89607203 -0.7859269977 1.09404099
vn -0.9999106526 -0.01085602678 0.007798651233
v -1.89607203 0 3.283499956
vn -0.5000107288 0 0.8660191894
v -1.89607203 0.7859269977 3.283499956
vn 1.283317062e-007 0.8123351932 0.5831907988
v 0 -0.7859269977 2.188770056
vn 0.493216157 -0.0214396175 0.8696425557
v 1.89607203 -0.7859269977 3.283499956
vn -1.283317062e-007 -0.8123351932 0.5831907988
v 1.89607203 -0.7859269977 1.09404099
vn 0.5067234635 -0.01086824853 0.8620401621
v 3.79095006 0 0
vn 1 -6.690252304e-019 2.849552507e-016
v 3.79095006 0.7859269977 0
vn 0.505278945 0.8121551275 -0.2917142212
v 1.89607203 -0.7859269977 -1.09404099
vn 0.5065482855 -0.02144646831 -0.8619448543
v 3.79095006 -44.0118866 0
vn 0.9822395444 -0.0339955166 -0.1845258623
v -1.89607203 -44.0118866 -3.283499956
vn -0.6509708762 -0.02739757672 -0.7586081028
v -1.89607203 -44.0118866 3.283499956
vn -0.3314657509 -0.02078810707 0.9432381988
v -1.20590198 -44.0118866 2.08830595
vn -0.7723314762 -0.4524199963 0.4458926916
v 2.411043882 -44.0118866 0
vn 0.849670589 -0.1934613436 0.4905431569
v -1.20590198 -44.0118866 -2.08830595
vn 0 -0.3322372437 -0.9431958795
v 2.411043882 -48.0521965 0
vn 0.7693455219 -0.4591530859 -0.4441688061
v -1.20590198 -48.0521965 2.08830595
vn 0 -0.4591610432 0.8883530498
v -1.20590198 -48.0521965 -2.08830595
vn -0.7693455219 -0.4591530859 -0.4441688061
# mm_gid 0
g mmGroup0
f 1//1 2//2 5//5 
f 4//4 5//5 3//3 
f 2//2 3//3 5//5 
f 5//5 6//6 1//1 
f 6//6 4//4 1//1 
f 4//4 3//3 1//1 
f 7//7 2//2 8//8 
f 8//8 2//2 1//1 
f 9//9 3//3 7//7 
f 7//7 3//3 2//2 
f 10//10 11//11 4//4 
f 11//11 12//12 4//4 
f 4//4 12//12 5//5 
f 12//12 13//13 5//5 
f 14//14 15//15 13//13 
f 13//13 15//15 5//5 
f 15//15 16//16 5//5 
f 16//16 17//17 5//5 
f 5//5 17//17 6//6 
f 17//17 18//18 6//6 
f 19//19 20//20 18//18 
f 18//18 20//20 6//6 
f 20//20 21//21 6//6 
f 21//21 22//22 6//6 
f 6//6 22//22 4//4 
f 22//22 23//23 4//4 
f 24//24 10//10 23//23 
f 23//23 10//10 4//4 
f 8//8 1//1 9//9 
f 9//9 1//1 3//3 
f 9//9 7//7 8//8 
f 11//11 10//10 26//26 
f 26//26 10//10 25//25 
f 11//11 27//27 12//12 
f 12//12 27//27 28//28 
f 12//12 28//28 13//13 
f 27//27 14//14 28//28 
f 28//28 14//14 13//13 
f 15//15 14//14 30//30 
f 30//30 14//14 29//29 
f 16//16 15//15 31//31 
f 31//31 15//15 30//30 
f 16//16 32//32 17//17 
f 17//17 32//32 33//33 
f 33//33 18//18 17//17 
f 32//32 19//19 33//33 
f 33//33 19//19 18//18 
f 20//20 19//19 35//35 
f 35//35 19//19 34//34 
f 21//21 20//20 36//36 
f 36//36 20//20 35//35 
f 21//21 37//37 22//22 
f 22//22 37//37 38//38 
f 22//22 38//38 23//23 
f 37//37 24//24 38//38 
f 38//38 24//24 23//23 
f 10//10 24//24 25//25 
f 25//25 24//24 39//39 
f 27//27 11//11 41//41 
f 11//11 26//26 41//41 
f 41//41 26//26 40//40 
f 26//26 39//39 40//40 
f 24//24 37//37 39//39 
f 39//39 37//37 40//40 
f 26//26 25//25 39//39 
f 32//32 16//16 42//42 
f 16//16 31//31 42//42 
f 42//42 31//31 41//41 
f 31//31 29//29 41//41 
f 14//14 27//27 29//29 
f 29//29 27//27 41//41 
f 31//31 30//30 29//29 
f 37//37 21//21 40//40 
f 21//21 36//36 40//40 
f 40//40 36//36 42//42 
f 36//36 34//34 42//42 
f 19//19 32//32 34//34 
f 34//34 32//32 42//42 
f 35//35 34//34 36//36 
f 43//43 44//44 40//40 
f 41//41 40//40 45//45 
f 44//44 45//45 40//40 
f 40//40 42//42 43//43 
f 42//42 41//41 43//43 
f 41//41 45//45 43//43 
f 46//46 44//44 47//47 
f 47//47 44//44 43//43 
f 48//48 45//45 46//46 
f 46//46 45//45 44//44 
f 47//47 43//43 48//48 
f 48//48 43//43 45//45 
f 46//46 47//47 48//48 
