v 1.009968042 23.5535984 1.748999953
vn 0.7957267165 0.3946783841 0.459399581
v -2.019299984 23.5535984 0
vn -0.8542074561 0.1646827757 0.4931624532
v 1.009968042 23.5535984 -1.748999953
vn 0 0.2858133614 -0.9582853317
v 1.588000059 23.5535984 -2.75
vn 0.6506171227 0.04285333306 -0.7581958771
v -3.174999952 23.5535984 0
vn -0.9814180732 0.05315774307 -0.1843715459
v 1.588000059 23.5535984 2.75
vn 0.331362009 0.03252276033 0.942942977
v -2.019299984 27.54999924 0
vn -0.7933822274 0.4009220004 -0.4580460191
v 1.009968042 27.54999924 1.748999953
vn 0 0.4009293914 0.9161089659
v 1.009968042 27.54999924 -1.748999953
vn 0.7933822274 0.4009220004 -0.4580460191
v 1.588000059 0 -2.75
vn 0.5000109076 0 -0.8660191298
v 0 0 -1.83314085
vn 1.86284118e-017 0 -1
v 0 0.420599997 -1.83314085
vn -0.4931667745 0.0170070827 -0.8697685599
v -1.588000059 0.420599997 -0.9162819386
vn -0.5063796043 0.03355207667 -0.8616576791
v -1.588000059 0 -0.9162819386
vn -0.866122663 -4.774011032e-017 -0.4998314977
v -3.174999952 0 0
vn -1 1.105037032e-017 1.663905434e-016
v -1.588000059 0 0.9162819386
vn -0.866122663 0 0.4998314977
v -1.588000059 0.420599997 0.9162819386
vn -0.506680131 0.01700712368 0.8619663715
v 0 0.420599997 1.83314085
vn -0.4930520356 0.03354138881 0.8693529963
v 0 0 1.83314085
vn 0 0 1
v 1.588000059 0 2.75
vn 0.5000109076 0 0.8660191298
v 1.588000059 0 0.9162819386
vn 0.866122663 0 0.4998314977
v 1.588000059 0.420599997 0.9162819386
vn 0.9998252988 0.01698799245 0.007797981147
v 1.588000059 0.420599997 -0.9162819386
vn 0.9994088411 0.03350887075 -0.007690771017
v 1.588000059 0 -0.9162819386
vn 0.866122663 4.774011032e-017 -0.4998314977
v 1.588000059 -0.420599997 -2.75
vn 0.3611073196 -0.9089213014 -0.208479315
v 0 -0.420599997 -1.83314085
vn 0.4931667745 -0.0170070827 -0.8697685599
v -1.588000059 0 -2.75
vn -0.5000109076 0 -0.8660191298
v -1.588000059 0.420599997 -2.75
vn -0.3611073196 0.9089213014 -0.208479315
v -1.588000059 -0.420599997 -0.9162819386
vn -0.9994088411 -0.03350887075 -0.007690771017
v -3.174999952 -0.420599997 0
vn -0.3612952828 -0.908821702 -0.2085877508
v -1.588000059 -0.420599997 0.9162819386
vn -0.9998252988 -0.01698799245 0.007797981147
v -1.588000059 0 2.75
vn -0.5000109076 0 0.8660191298
v -1.588000059 0.420599997 2.75
vn 7.825177839e-009 0.9089247584 0.4169602394
v 0 -0.420599997 1.83314085
vn 0.4930520356 -0.03354138881 0.8693529963
v 1.588000059 -0.420599997 2.75
vn -7.825177839e-009 -0.9089247584 0.4169602394
v 1.588000059 -0.420599997 0.9162819386
vn 0.506680131 -0.01700712368 0.8619663715
v 3.174999952 0 0
vn 1 -1.105037032e-017 1.589402268e-016
v 3.174999952 0.420599997 0
vn 0.3612952828 0.908821702 -0.2085877508
v 1.588000059 -0.420599997 -0.9162819386
vn 0.5063796043 -0.03355207667 -0.8616576791
v 3.174999952 -23.5535984 0
vn 0.9814180732 -0.05315774307 -0.1843715459
v -1.588000059 -23.5535984 -2.75
vn -0.6506171227 -0.04285333306 -0.7581958771
v -1.588000059 -23.5535984 2.75
vn -0.331362009 -0.03252276033 0.942942977
v -1.009968042 -23.5535984 1.748999953
vn -0.7957267165 -0.3946783841 0.459399581
v 2.019299984 -23.5535984 0
vn 0.8542074561 -0.1646827757 0.4931624532
v -1.009968042 -23.5535984 -1.748999953
vn 0 -0.2858133614 -0.9582853317
v 2.019299984 -27.54999924 0
vn 0.7933822274 -0.4009220004 -0.4580460191
v -1.009968042 -27.54999924 1.748999953
vn 0 -0.4009293914 0.9161089659
v -1.009968042 -27.54999924 -1.748999953
vn -0.7933822274 -0.4009220004 -0.4580460191
# mm_gid 0
g mmGroup0
f 1//1 2//2 5//5 
f 4//4 5//5 3//3 
f 2//2 3//3 5//5 
f 5//5 6//6 1//1 
f 6//6 4//4 1//1 
f 4//4 3//3 1//1 
f 7//7 2//2 8//8 
f 8//8 2//2 1//1 
f 9//9 3//3 7//7 
f 7//7 3//3 2//2 
f 10//10 11//11 4//4 
f 11//11 12//12 4//4 
f 4//4 12//12 5//5 
f 12//12 13//13 5//5 
f 14//14 15//15 13//13 
f 13//13 15//15 5//5 
f 15//15 16//16 5//5 
f 16//16 17//17 5//5 
f 5//5 17//17 6//6 
f 17//17 18//18 6//6 
f 19//19 20//20 18//18 
f 18//18 20//20 6//6 
f 20//20 21//21 6//6 
f 21//21 22//22 6//6 
f 6//6 22//22 4//4 
f 22//22 23//23 4//4 
f 24//24 10//10 23//23 
f 23//23 10//10 4//4 
f 8//8 1//1 9//9 
f 9//9 1//1 3//3 
f 8//8 9//9 7//7 
f 11//11 10//10 26//26 
f 26//26 10//10 25//25 
f 11//11 27//27 12//12 
f 12//12 27//27 28//28 
f 12//12 28//28 13//13 
f 27//27 14//14 28//28 
f 28//28 14//14 13//13 
f 15//15 14//14 30//30 
f 30//30 14//14 29//29 
f 16//16 15//15 31//31 
f 31//31 15//15 30//30 
f 16//16 32//32 17//17 
f 17//17 32//32 33//33 
f 33//33 18//18 17//17 
f 32//32 19//19 33//33 
f 33//33 19//19 18//18 
f 20//20 19//19 35//35 
f 35//35 19//19 34//34 
f 21//21 20//20 36//36 
f 36//36 20//20 35//35 
f 21//21 37//37 22//22 
f 22//22 37//37 38//38 
f 22//22 38//38 23//23 
f 37//37 24//24 38//38 
f 38//38 24//24 23//23 
f 10//10 24//24 25//25 
f 25//25 24//24 39//39 
f 27//27 11//11 41//41 
f 11//11 26//26 41//41 
f 41//41 26//26 40//40 
f 26//26 39//39 40//40 
f 24//24 37//37 39//39 
f 39//39 37//37 40//40 
f 26//26 25//25 39//39 
f 32//32 16//16 42//42 
f 16//16 31//31 42//42 
f 42//42 31//31 41//41 
f 31//31 29//29 41//41 
f 14//14 27//27 29//29 
f 29//29 27//27 41//41 
f 31//31 30//30 29//29 
f 37//37 21//21 40//40 
f 21//21 36//36 40//40 
f 40//40 36//36 42//42 
f 36//36 34//34 42//42 
f 19//19 32//32 34//34 
f 34//34 32//32 42//42 
f 35//35 34//34 36//36 
f 43//43 44//44 40//40 
f 41//41 40//40 45//45 
f 44//44 45//45 40//40 
f 40//40 42//42 43//43 
f 42//42 41//41 43//43 
f 41//41 45//45 43//43 
f 46//46 44//44 47//47 
f 47//47 44//44 43//43 
f 48//48 45//45 46//46 
f 46//46 45//45 44//44 
f 47//47 43//43 48//48 
f 48//48 43//43 45//45 
f 48//48 46//46 47//47 
