v 1.009968042 43.59770966 1.748999953
vn 0.7959089875 0.3941880167 0.459504813
v -2.019299984 43.59770966 0
vn -0.8542414904 0.1644470543 0.4931821227
v 1.009968042 43.59770966 -1.748999953
vn 0 0.2854271531 -0.9584004283
v 1.58799994 43.59770966 -2.75
vn 0.651040554 0.0231665168 -0.7586893439
v -3.174999952 43.59770966 0
vn -0.9824014306 0.0287471693 -0.1845562756
v 1.58799994 43.59770966 2.75
vn 0.3314861655 0.01757695898 0.9432963133
v -2.019299984 47.59999847 0
vn -0.7935698032 0.400426805 -0.4581543207
v 1.009968042 47.59999847 1.748999953
vn 0 0.400434196 0.9163255095
v 1.009968042 47.59999847 -1.748999953
vn 0.7935698032 0.400426805 -0.4581543207
v 1.58799994 0 -2.75
vn 0.5000109076 0 -0.8660191298
v 0 0 -1.833140969
vn -8.515668896e-018 0 -1
v 0 0.7785309553 -1.833140969
vn -0.4932172596 0.009188991971 -0.8698576093
v -1.58799994 0.7785309553 -0.9162819386
vn -0.5065815449 0.01813368872 -0.8620013595
v -1.58799994 0 -0.9162819386
vn -0.866122663 -2.731240037e-017 -0.4998314977
v -3.174999952 0 0
vn -1 -1.130141095e-018 1.744177952e-016
v -1.58799994 0 0.9162819386
vn -0.866122663 0 0.4998314977
v -1.58799994 0.7785309553 0.9162819386
vn -0.5067320466 0.009189014323 0.862054646
v 0 0.7785309553 1.833140969
vn -0.4932485223 0.01812790707 0.8696995378
v 0 0 1.833140969
vn 0 0 1
v 1.58799994 0 2.75
vn 0.5000109076 0 0.8660191298
v 1.58799994 0 0.9162819386
vn 0.866122663 0 0.4998314977
v 1.58799994 0.7785309553 0.9162819386
vn 0.9999274611 0.009178676642 0.00779878255
v 1.58799994 0.7785309553 -0.9162819386
vn 0.9998064041 0.01811031811 -0.007693835068
v 1.58799994 0 -0.9162819386
vn 0.866122663 2.731240037e-017 -0.4998314977
v 1.58799994 -0.7785309553 -2.75
vn 0.5605570674 -0.762260139 -0.3236283362
v 0 -0.7785309553 -1.833140969
vn 0.4932172596 -0.009188991971 -0.8698576093
v -1.58799994 0 -2.75
vn -0.5000109076 0 -0.8660191298
v -1.58799994 0.7785309553 -2.75
vn -0.5605570674 0.762260139 -0.3236283362
v -1.58799994 -0.7785309553 -0.9162819386
vn -0.9998064041 -0.01811031811 -0.007693835068
v -3.174999952 -0.7785309553 0
vn -0.5607622862 -0.7620588541 -0.3237466514
v -1.58799994 -0.7785309553 0.9162819386
vn -0.9999274611 -0.009178676642 0.00779878255
v -1.58799994 0 2.75
vn -0.5000109076 0 0.8660191298
v -1.58799994 0.7785309553 2.75
vn 1.214730982e-008 0.7622670531 0.6472626328
v 0 -0.7785309553 1.833140969
vn 0.4932485223 -0.01812790707 0.8696995378
v 1.58799994 -0.7785309553 2.75
vn -1.214730982e-008 -0.7622670531 0.6472626328
v 1.58799994 -0.7785309553 0.9162819386
vn 0.5067320466 -0.009189014323 0.862054646
v 3.174999952 0 0
vn 1 1.130141095e-018 1.717344345e-016
v 3.174999952 0.7785309553 0
vn 0.5607622862 0.7620588541 -0.3237466514
v 1.58799994 -0.7785309553 -0.9162819386
vn 0.5065815449 -0.01813368872 -0.8620013595
v 3.174999952 -43.59770966 0
vn 0.9824014306 -0.0287471693 -0.1845562756
v -1.58799994 -43.59770966 -2.75
vn -0.651040554 -0.0231665168 -0.7586893439
v -1.58799994 -43.59770966 2.75
vn -0.3314861655 -0.01757695898 0.9432963133
v -1.009968042 -43.59770966 1.748999953
vn -0.7959089875 -0.3941880167 0.459504813
v 2.019299984 -43.59770966 0
vn 0.8542414904 -0.1644470543 0.4931821227
v -1.009968042 -43.59770966 -1.748999953
vn 0 -0.2854271531 -0.9584004283
v 2.019299984 -47.59999847 0
vn 0.7935698032 -0.400426805 -0.4581543207
v -1.009968042 -47.59999847 1.748999953
vn 0 -0.400434196 0.9163255095
v -1.009968042 -47.59999847 -1.748999953
vn -0.7935698032 -0.400426805 -0.4581543207
# mm_gid 0
g mmGroup0
f 1//1 2//2 5//5 
f 4//4 5//5 3//3 
f 2//2 3//3 5//5 
f 5//5 6//6 1//1 
f 6//6 4//4 1//1 
f 4//4 3//3 1//1 
f 7//7 2//2 8//8 
f 8//8 2//2 1//1 
f 9//9 3//3 7//7 
f 7//7 3//3 2//2 
f 10//10 11//11 4//4 
f 11//11 12//12 4//4 
f 4//4 12//12 5//5 
f 12//12 13//13 5//5 
f 14//14 15//15 13//13 
f 13//13 15//15 5//5 
f 15//15 16//16 5//5 
f 16//16 17//17 5//5 
f 5//5 17//17 6//6 
f 17//17 18//18 6//6 
f 19//19 20//20 18//18 
f 18//18 20//20 6//6 
f 20//20 21//21 6//6 
f 21//21 22//22 6//6 
f 6//6 22//22 4//4 
f 22//22 23//23 4//4 
f 24//24 10//10 23//23 
f 23//23 10//10 4//4 
f 8//8 1//1 9//9 
f 9//9 1//1 3//3 
f 9//9 7//7 8//8 
f 11//11 10//10 26//26 
f 26//26 10//10 25//25 
f 11//11 27//27 12//12 
f 12//12 27//27 28//28 
f 12//12 28//28 13//13 
f 27//27 14//14 28//28 
f 28//28 14//14 13//13 
f 15//15 14//14 30//30 
f 30//30 14//14 29//29 
f 16//16 15//15 31//31 
f 31//31 15//15 30//30 
f 16//16 32//32 17//17 
f 17//17 32//32 33//33 
f 33//33 18//18 17//17 
f 32//32 19//19 33//33 
f 33//33 19//19 18//18 
f 20//20 19//19 35//35 
f 35//35 19//19 34//34 
f 21//21 20//20 36//36 
f 36//36 20//20 35//35 
f 21//21 37//37 22//22 
f 22//22 37//37 38//38 
f 22//22 38//38 23//23 
f 37//37 24//24 38//38 
f 38//38 24//24 23//23 
f 10//10 24//24 25//25 
f 25//25 24//24 39//39 
f 27//27 11//11 41//41 
f 11//11 26//26 41//41 
f 41//41 26//26 40//40 
f 26//26 39//39 40//40 
f 24//24 37//37 39//39 
f 39//39 37//37 40//40 
f 26//26 25//25 39//39 
f 32//32 16//16 42//42 
f 16//16 31//31 42//42 
f 42//42 31//31 41//41 
f 31//31 29//29 41//41 
f 14//14 27//27 29//29 
f 29//29 27//27 41//41 
f 31//31 30//30 29//29 
f 37//37 21//21 40//40 
f 21//21 36//36 40//40 
f 40//40 36//36 42//42 
f 36//36 34//34 42//42 
f 19//19 32//32 34//34 
f 34//34 32//32 42//42 
f 35//35 34//34 36//36 
f 43//43 44//44 40//40 
f 41//41 40//40 45//45 
f 44//44 45//45 40//40 
f 40//40 42//42 43//43 
f 42//42 41//41 43//43 
f 41//41 45//45 43//43 
f 46//46 44//44 47//47 
f 47//47 44//44 43//43 
f 48//48 45//45 46//46 
f 46//46 45//45 44//44 
f 47//47 43//43 48//48 
f 48//48 43//43 45//45 
f 46//46 47//47 48//48 
